RosaSans-Thin.ufo
<glyph name="exclam" format="2">
  <advance width="600"/>
  <unicode hex="0021"/>
  <outline>
    <contour>
      <point x="248" y="440" type="line"/>
      <point x="227" y="1440" type="line"/>
      <point x="373" y="1440" type="line"/>
      <point x="354" y="440" type="line"/>
    </contour>
    <contour>
      <point x="301" y="-30" type="curve" smooth="yes"/>
      <point x="270" y="-30"/>
      <point x="245" y="-19"/>
      <point x="222" y="0" type="curve"/>
      <point x="202" y="20"/>
      <point x="190" y="42"/>
      <point x="190" y="74" type="curve" smooth="yes"/>
      <point x="190" y="94"/>
      <point x="195" y="113"/>
      <point x="206" y="128" type="curve"/>
      <point x="225" y="159"/>
      <point x="259" y="178"/>
      <point x="300" y="178" type="curve" smooth="yes"/>
      <point x="332" y="178"/>
      <point x="359" y="169"/>
      <point x="379" y="149" type="curve"/>
      <point x="402" y="130"/>
      <point x="410" y="105"/>
      <point x="410" y="74" type="curve" smooth="yes"/>
      <point x="410" y="54"/>
      <point x="407" y="36"/>
      <point x="396" y="21" type="curve"/>
      <point x="377" y="-10"/>
      <point x="341" y="-30"/>
    </contour>
  </outline>
</glyph>
<glyph name="dollar" format="2">
  <advance width="1296"/>
  <unicode hex="0024"/>
  <anchor x="666" y="1400" name="top"/>
  <anchor x="654" y="0" name="bottom"/>
  <outline>
    <contour>
      <point x="654" y="-30" type="curve" smooth="yes"/>
      <point x="569" y="-30"/>
      <point x="486" y="-18"/>
      <point x="405" y="5" type="curve" smooth="yes"/>
      <point x="323" y="28"/>
      <point x="254" y="62"/>
      <point x="199" y="107" type="curve"/>
      <point x="264" y="204" type="line"/>
      <point x="299" y="177"/>
      <point x="337" y="154"/>
      <point x="379" y="135" type="curve" smooth="yes"/>
      <point x="462" y="98"/>
      <point x="557" y="78"/>
      <point x="654" y="78" type="curve" smooth="yes"/>
      <point x="762" y="78"/>
      <point x="849" y="101"/>
      <point x="915" y="148" type="curve" smooth="yes"/>
      <point x="981" y="194"/>
      <point x="1014" y="262"/>
      <point x="1014" y="352" type="curve" smooth="yes"/>
      <point x="1014" y="420"/>
      <point x="991" y="476"/>
      <point x="946" y="520" type="curve" smooth="yes"/>
      <point x="900" y="563"/>
      <point x="822" y="602"/>
      <point x="712" y="636" type="curve" smooth="yes"/>
      <point x="552" y="686" type="line" smooth="yes"/>
      <point x="448" y="718"/>
      <point x="365" y="761"/>
      <point x="304" y="816" type="curve" smooth="yes"/>
      <point x="243" y="870"/>
      <point x="212" y="945"/>
      <point x="212" y="1042" type="curve" smooth="yes"/>
      <point x="212" y="1123"/>
      <point x="232" y="1192"/>
      <point x="272" y="1250" type="curve" smooth="yes"/>
      <point x="311" y="1308"/>
      <point x="366" y="1353"/>
      <point x="436" y="1384" type="curve" smooth="yes"/>
      <point x="505" y="1415"/>
      <point x="585" y="1430"/>
      <point x="676" y="1430" type="curve" smooth="yes"/>
      <point x="755" y="1430"/>
      <point x="829" y="1418"/>
      <point x="898" y="1394" type="curve" smooth="yes"/>
      <point x="967" y="1370"/>
      <point x="1024" y="1338"/>
      <point x="1071" y="1299" type="curve"/>
      <point x="1006" y="1208" type="line"/>
      <point x="960" y="1245"/>
      <point x="907" y="1274"/>
      <point x="846" y="1294" type="curve" smooth="yes"/>
      <point x="785" y="1314"/>
      <point x="721" y="1324"/>
      <point x="656" y="1324" type="curve" smooth="yes"/>
      <point x="590" y="1324"/>
      <point x="532" y="1314"/>
      <point x="481" y="1293" type="curve" smooth="yes"/>
      <point x="380" y="1251"/>
      <point x="320" y="1169"/>
      <point x="320" y="1050" type="curve" smooth="yes"/>
      <point x="320" y="982"/>
      <point x="343" y="928"/>
      <point x="390" y="889" type="curve" smooth="yes"/>
      <point x="437" y="850"/>
      <point x="513" y="813"/>
      <point x="620" y="780" type="curve" smooth="yes"/>
      <point x="794" y="726" type="line" smooth="yes"/>
      <point x="899" y="694"/>
      <point x="980" y="650"/>
      <point x="1037" y="593" type="curve" smooth="yes"/>
      <point x="1094" y="536"/>
      <point x="1122" y="458"/>
      <point x="1122" y="360" type="curve" smooth="yes"/>
      <point x="1122" y="283"/>
      <point x="1104" y="215"/>
      <point x="1069" y="156" type="curve" smooth="yes"/>
      <point x="997" y="39"/>
      <point x="857" y="-30"/>
    </contour>
    <contour>
      <point x="616" y="-160" type="line"/>
      <point x="616" y="1560" type="line"/>
      <point x="716" y="1560" type="line"/>
      <point x="716" y="-160" type="line"/>
    </contour>
  </outline>
</glyph>
<glyph name="percent" format="2">
  <advance width="2038"/>
  <unicode hex="0025"/>
  <outline>
    <contour>
      <point x="662" y="-30" type="line"/>
      <point x="586" y="16" type="line"/>
      <point x="1376" y="1430" type="line"/>
      <point x="1452" y="1390" type="line"/>
    </contour>
    <contour>
      <point x="464" y="710" type="curve" smooth="yes"/>
      <point x="397" y="710"/>
      <point x="337" y="726"/>
      <point x="282" y="758" type="curve" smooth="yes"/>
      <point x="227" y="790"/>
      <point x="183" y="833"/>
      <point x="150" y="887" type="curve" smooth="yes"/>
      <point x="117" y="941"/>
      <point x="100" y="1001"/>
      <point x="100" y="1066" type="curve" smooth="yes"/>
      <point x="100" y="1131"/>
      <point x="117" y="1190"/>
      <point x="150" y="1244" type="curve" smooth="yes"/>
      <point x="183" y="1297"/>
      <point x="227" y="1340"/>
      <point x="282" y="1372" type="curve" smooth="yes"/>
      <point x="337" y="1404"/>
      <point x="397" y="1420"/>
      <point x="464" y="1420" type="curve" smooth="yes"/>
      <point x="531" y="1420"/>
      <point x="591" y="1404"/>
      <point x="646" y="1372" type="curve" smooth="yes"/>
      <point x="701" y="1340"/>
      <point x="744" y="1297"/>
      <point x="777" y="1244" type="curve" smooth="yes"/>
      <point x="810" y="1190"/>
      <point x="826" y="1131"/>
      <point x="826" y="1066" type="curve" smooth="yes"/>
      <point x="826" y="1001"/>
      <point x="810" y="941"/>
      <point x="777" y="887" type="curve" smooth="yes"/>
      <point x="712" y="779"/>
      <point x="597" y="710"/>
    </contour>
    <contour>
      <point x="464" y="806" type="curve" smooth="yes"/>
      <point x="517" y="806"/>
      <point x="563" y="817"/>
      <point x="602" y="839" type="curve" smooth="yes"/>
      <point x="681" y="882"/>
      <point x="726" y="962"/>
      <point x="726" y="1066" type="curve" smooth="yes"/>
      <point x="726" y="1144"/>
      <point x="702" y="1207"/>
      <point x="655" y="1254" type="curve" smooth="yes"/>
      <point x="607" y="1301"/>
      <point x="543" y="1324"/>
      <point x="464" y="1324" type="curve" smooth="yes"/>
      <point x="412" y="1324"/>
      <point x="366" y="1313"/>
      <point x="327" y="1291" type="curve" smooth="yes"/>
      <point x="247" y="1247"/>
      <point x="200" y="1167"/>
      <point x="200" y="1066" type="curve" smooth="yes"/>
      <point x="200" y="990"/>
      <point x="225" y="928"/>
      <point x="274" y="879" type="curve" smooth="yes"/>
      <point x="323" y="830"/>
      <point x="386" y="806"/>
    </contour>
    <contour>
      <point x="1576" y="-20" type="curve" smooth="yes"/>
      <point x="1509" y="-20"/>
      <point x="1449" y="-4"/>
      <point x="1394" y="28" type="curve" smooth="yes"/>
      <point x="1339" y="60"/>
      <point x="1295" y="103"/>
      <point x="1262" y="157" type="curve" smooth="yes"/>
      <point x="1229" y="211"/>
      <point x="1212" y="271"/>
      <point x="1212" y="336" type="curve" smooth="yes"/>
      <point x="1212" y="401"/>
      <point x="1229" y="460"/>
      <point x="1262" y="514" type="curve" smooth="yes"/>
      <point x="1295" y="567"/>
      <point x="1339" y="610"/>
      <point x="1394" y="642" type="curve" smooth="yes"/>
      <point x="1449" y="674"/>
      <point x="1509" y="690"/>
      <point x="1576" y="690" type="curve" smooth="yes"/>
      <point x="1643" y="690"/>
      <point x="1703" y="674"/>
      <point x="1758" y="642" type="curve" smooth="yes"/>
      <point x="1813" y="610"/>
      <point x="1856" y="567"/>
      <point x="1889" y="514" type="curve" smooth="yes"/>
      <point x="1922" y="460"/>
      <point x="1938" y="401"/>
      <point x="1938" y="336" type="curve" smooth="yes"/>
      <point x="1938" y="271"/>
      <point x="1922" y="211"/>
      <point x="1889" y="157" type="curve" smooth="yes"/>
      <point x="1824" y="49"/>
      <point x="1709" y="-20"/>
    </contour>
    <contour>
      <point x="1576" y="76" type="curve" smooth="yes"/>
      <point x="1629" y="76"/>
      <point x="1675" y="87"/>
      <point x="1714" y="109" type="curve" smooth="yes"/>
      <point x="1793" y="152"/>
      <point x="1838" y="232"/>
      <point x="1838" y="336" type="curve" smooth="yes"/>
      <point x="1838" y="414"/>
      <point x="1814" y="477"/>
      <point x="1767" y="524" type="curve" smooth="yes"/>
      <point x="1719" y="571"/>
      <point x="1655" y="594"/>
      <point x="1576" y="594" type="curve" smooth="yes"/>
      <point x="1524" y="594"/>
      <point x="1478" y="583"/>
      <point x="1439" y="561" type="curve" smooth="yes"/>
      <point x="1359" y="517"/>
      <point x="1312" y="437"/>
      <point x="1312" y="336" type="curve" smooth="yes"/>
      <point x="1312" y="260"/>
      <point x="1337" y="198"/>
      <point x="1386" y="149" type="curve" smooth="yes"/>
      <point x="1435" y="100"/>
      <point x="1498" y="76"/>
    </contour>
  </outline>
</glyph>
<glyph name="ampersand" format="2">
  <advance width="1462"/>
  <unicode hex="0026"/>
  <outline>
    <contour>
      <point x="560" y="-30" type="curve" smooth="yes"/>
      <point x="645" y="-30"/>
      <point x="729" y="-12"/>
      <point x="811" y="26" type="curve" smooth="yes"/>
      <point x="892" y="63"/>
      <point x="968" y="116"/>
      <point x="1038" y="186" type="curve"/>
      <point x="1216" y="0" type="line"/>
      <point x="1368" y="0" type="line"/>
      <point x="1104" y="274" type="line"/>
      <point x="1171" y="358"/>
      <point x="1232" y="456"/>
      <point x="1282" y="564" type="curve" smooth="yes"/>
      <point x="1307" y="617"/>
      <point x="1329" y="673"/>
      <point x="1348" y="730" type="curve"/>
      <point x="1246" y="776" type="line"/>
      <point x="1216" y="683"/>
      <point x="1183" y="602"/>
      <point x="1148" y="531" type="curve" smooth="yes"/>
      <point x="1112" y="460"/>
      <point x="1074" y="399"/>
      <point x="1034" y="348" type="curve"/>
      <point x="586" y="806" type="line" smooth="yes"/>
      <point x="520" y="873"/>
      <point x="473" y="927"/>
      <point x="448" y="970" type="curve" smooth="yes"/>
      <point x="423" y="1013"/>
      <point x="410" y="1059"/>
      <point x="410" y="1110" type="curve" smooth="yes"/>
      <point x="410" y="1171"/>
      <point x="433" y="1222"/>
      <point x="478" y="1262" type="curve" smooth="yes"/>
      <point x="527" y="1306"/>
      <point x="597" y="1321"/>
      <point x="671" y="1320" type="curve" smooth="yes"/>
      <point x="802" y="1319"/>
      <point x="949" y="1264"/>
      <point x="1026" y="1198" type="curve"/>
      <point x="1094" y="1292" type="line"/>
      <point x="995" y="1375"/>
      <point x="840" y="1428"/>
      <point x="691" y="1430" type="curve" smooth="yes"/>
      <point x="551" y="1432"/>
      <point x="416" y="1388"/>
      <point x="339" y="1272" type="curve" smooth="yes"/>
      <point x="306" y="1224"/>
      <point x="290" y="1171"/>
      <point x="290" y="1114" type="curve" smooth="yes"/>
      <point x="290" y="1029"/>
      <point x="310" y="964"/>
      <point x="366" y="891" type="curve" smooth="yes"/>
      <point x="394" y="854"/>
      <point x="434" y="813"/>
      <point x="482" y="764" type="curve" smooth="yes"/>
      <point x="966" y="262" type="line"/>
      <point x="850" y="138"/>
      <point x="714" y="78"/>
      <point x="562" y="78" type="curve" smooth="yes"/>
      <point x="462" y="78"/>
      <point x="383" y="103"/>
      <point x="326" y="154" type="curve" smooth="yes"/>
      <point x="269" y="204"/>
      <point x="240" y="272"/>
      <point x="240" y="358" type="curve" smooth="yes"/>
      <point x="240" y="518"/>
      <point x="364" y="642"/>
      <point x="588" y="703" type="curve"/>
      <point x="516" y="774" type="line"/>
      <point x="350" y="728"/>
      <point x="227" y="640"/>
      <point x="164" y="527" type="curve" smooth="yes"/>
      <point x="135" y="474"/>
      <point x="120" y="418"/>
      <point x="120" y="358" type="curve" smooth="yes"/>
      <point x="120" y="207"/>
      <point x="200" y="87"/>
      <point x="332" y="20" type="curve" smooth="yes"/>
      <point x="398" y="-13"/>
      <point x="474" y="-30"/>
    </contour>
  </outline>
</glyph>
<glyph name="quotesingle" format="2">
  <advance width="420"/>
  <unicode hex="0027"/>
  <outline>
    <contour>
      <point x="166" y="992" type="line"/>
      <point x="156" y="1400" type="line"/>
      <point x="266" y="1400" type="line"/>
      <point x="256" y="992" type="line"/>
    </contour>
  </outline>
</glyph>
<glyph name="parenleft" format="2">
  <advance width="666"/>
  <unicode hex="0028"/>
  <outline>
    <contour>
      <point x="442" y="-230" type="line"/>
      <point x="358" y="-95"/>
      <point x="297" y="50"/>
      <point x="256" y="211" type="curve" smooth="yes"/>
      <point x="215" y="370"/>
      <point x="194" y="528"/>
      <point x="194" y="692" type="curve" smooth="yes"/>
      <point x="194" y="803"/>
      <point x="203" y="908"/>
      <point x="222" y="1017" type="curve" smooth="yes"/>
      <point x="258" y="1230"/>
      <point x="330" y="1433"/>
      <point x="442" y="1610" type="curve"/>
      <point x="522" y="1568" type="line"/>
      <point x="447" y="1452"/>
      <point x="393" y="1312"/>
      <point x="353" y="1164" type="curve" smooth="yes"/>
      <point x="314" y="1013"/>
      <point x="296" y="856"/>
      <point x="296" y="696" type="curve" smooth="yes"/>
      <point x="296" y="537"/>
      <point x="315" y="382"/>
      <point x="354" y="227" type="curve" smooth="yes"/>
      <point x="391" y="72"/>
      <point x="446" y="-64"/>
      <point x="522" y="-188" type="curve"/>
    </contour>
  </outline>
</glyph>
<glyph name="period" format="2">
  <advance width="500"/>
  <unicode hex="002E"/>
  <outline>
    <contour>
      <point x="250" y="-30" type="qcurve"/>
      <point x="204" y="-30"/>
      <point x="140" y="29"/>
      <point x="140" y="74" type="qcurve"/>
      <point x="140" y="104"/>
      <point x="169" y="151"/>
      <point x="219" y="178"/>
      <point x="250" y="178" type="qcurve"/>
      <point x="297" y="178"/>
      <point x="360" y="119"/>
      <point x="360" y="74" type="qcurve"/>
      <point x="360" y="44"/>
      <point x="331" y="-3"/>
      <point x="281" y="-30"/>
    </contour>
  </outline>
</glyph>
<glyph name="zero" format="2">
  <advance width="1348"/>
  <unicode hex="0030"/>
  <outline>
    <contour>
      <point x="674" y="-30" type="curve" smooth="yes"/>
      <point x="503" y="-30"/>
      <point x="367" y="49"/>
      <point x="271" y="185" type="curve" smooth="yes"/>
      <point x="172" y="321"/>
      <point x="120" y="499"/>
      <point x="120" y="700" type="curve" smooth="yes"/>
      <point x="120" y="903"/>
      <point x="172" y="1081"/>
      <point x="271" y="1216" type="curve" smooth="yes"/>
      <point x="367" y="1351"/>
      <point x="503" y="1430"/>
      <point x="674" y="1430" type="curve" smooth="yes"/>
      <point x="845" y="1430"/>
      <point x="981" y="1351"/>
      <point x="1077" y="1216" type="curve" smooth="yes"/>
      <point x="1176" y="1081"/>
      <point x="1228" y="903"/>
      <point x="1228" y="700" type="curve" smooth="yes"/>
      <point x="1228" y="499"/>
      <point x="1176" y="321"/>
      <point x="1077" y="185" type="curve" smooth="yes"/>
      <point x="981" y="49"/>
      <point x="845" y="-30"/>
    </contour>
    <contour>
      <point x="674" y="82" type="curve" smooth="yes"/>
      <point x="805" y="82"/>
      <point x="910" y="142"/>
      <point x="986" y="250" type="curve" smooth="yes"/>
      <point x="1061" y="359"/>
      <point x="1104" y="512"/>
      <point x="1104" y="700" type="curve" smooth="yes"/>
      <point x="1104" y="827"/>
      <point x="1087" y="935"/>
      <point x="1050" y="1028" type="curve" smooth="yes"/>
      <point x="979" y="1213"/>
      <point x="847" y="1318"/>
      <point x="674" y="1318" type="curve" smooth="yes"/>
      <point x="546" y="1318"/>
      <point x="440" y="1258"/>
      <point x="363" y="1151" type="curve" smooth="yes"/>
      <point x="287" y="1043"/>
      <point x="244" y="891"/>
      <point x="244" y="700" type="curve" smooth="yes"/>
      <point x="244" y="576"/>
      <point x="262" y="468"/>
      <point x="299" y="373" type="curve" smooth="yes"/>
      <point x="370" y="188"/>
      <point x="503" y="82"/>
    </contour>
  </outline>
</glyph>
<glyph name="zero.tnum" format="2">
  <advance width="1200"/>
  <unicode hex="0030"/>
  <outline>
    <contour>
      <point x="600" y="-30" type="curve" smooth="yes"/>
      <point x="972" y="-30"/>
      <point x="1114" y="392"/>
      <point x="1114" y="700" type="curve" smooth="yes"/>
      <point x="1114" y="1009"/>
      <point x="973" y="1430"/>
      <point x="600" y="1430" type="curve" smooth="yes"/>
      <point x="228" y="1430"/>
      <point x="87" y="1008"/>
      <point x="87" y="700" type="curve" smooth="yes"/>
      <point x="87" y="393"/>
      <point x="229" y="-30"/>
    </contour>
    <contour>
      <point x="600" y="82" type="curve" smooth="yes"/>
      <point x="305" y="82"/>
      <point x="208" y="437"/>
      <point x="208" y="700" type="curve" smooth="yes"/>
      <point x="208" y="1113"/>
      <point x="404" y="1322"/>
      <point x="600" y="1322" type="curve" smooth="yes"/>
      <point x="796" y="1322"/>
      <point x="992" y="1116"/>
      <point x="992" y="700" type="curve" smooth="yes"/>
      <point x="992" y="458"/>
      <point x="909" y="82"/>
    </contour>
  </outline>
</glyph>
<glyph name="two" format="2">
  <advance width="1128"/>
  <unicode hex="0032"/>
  <anchor x="723.436" y="-79.9784" name="top"/>
  <outline>
    <contour>
      <point x="209" y="1010" type="curve"/>
      <point x="98" y="1017" type="line"/>
      <point x="95" y="1045"/>
      <point x="93" y="1073"/>
      <point x="93" y="1103" type="curve" smooth="yes"/>
      <point x="93" y="1169"/>
      <point x="123" y="1240"/>
      <point x="176" y="1301" type="curve" smooth="yes"/>
      <point x="253" y="1390"/>
      <point x="370" y="1430"/>
      <point x="548" y="1430" type="curve" smooth="yes"/>
      <point x="823" y="1430"/>
      <point x="1004" y="1270"/>
      <point x="1004" y="1028" type="curve" smooth="yes"/>
      <point x="1004" y="815"/>
      <point x="875" y="620"/>
      <point x="572" y="376" type="curve" smooth="yes"/>
      <point x="240" y="108" type="line"/>
      <point x="1038" y="108" type="line"/>
      <point x="1038" y="0" type="line"/>
      <point x="90" y="0" type="line"/>
      <point x="90" y="102" type="line"/>
      <point x="525" y="464" type="line" smooth="yes"/>
      <point x="775" y="672"/>
      <point x="890" y="850"/>
      <point x="890" y="1026" type="curve" smooth="yes"/>
      <point x="890" y="1209"/>
      <point x="753" y="1322"/>
      <point x="532" y="1322" type="curve" smooth="yes"/>
      <point x="410" y="1322"/>
      <point x="317" y="1293"/>
      <point x="265" y="1238" type="curve" smooth="yes"/>
      <point x="224" y="1194"/>
      <point x="201" y="1146"/>
      <point x="201" y="1102" type="curve" smooth="yes"/>
      <point x="201" y="1069"/>
      <point x="204" y="1039"/>
    </contour>
  </outline>
</glyph>
<glyph name="two.tnum" format="2">
  <advance width="1200"/>
  <unicode hex="0032"/>
  <outline>
    <contour>
      <point x="170" y="1066" type="line"/>
      <point x="266" y="1327"/>
      <point x="389" y="1430"/>
      <point x="608" y="1430" type="curve" smooth="yes"/>
      <point x="871" y="1430"/>
      <point x="1020" y="1270"/>
      <point x="1020" y="1028" type="curve" smooth="yes"/>
      <point x="1020" y="814"/>
      <point x="897" y="620"/>
      <point x="607" y="376" type="curve" smooth="yes"/>
      <point x="290" y="108" type="line"/>
      <point x="1052" y="108" type="line"/>
      <point x="1052" y="0" type="line"/>
      <point x="148" y="0" type="line"/>
      <point x="148" y="102" type="line"/>
      <point x="564" y="464" type="line" smooth="yes"/>
      <point x="803" y="672"/>
      <point x="913" y="850"/>
      <point x="913" y="1026" type="curve" smooth="yes"/>
      <point x="913" y="1209"/>
      <point x="815" y="1322"/>
      <point x="603" y="1322" type="curve" smooth="yes"/>
      <point x="453" y="1322"/>
      <point x="332" y="1217"/>
      <point x="270" y="1027" type="curve"/>
    </contour>
  </outline>
</glyph>
<glyph name="three" format="2">
  <advance width="1156"/>
  <unicode hex="0033"/>
  <outline>
    <contour>
      <point x="522" y="-30" type="curve" smooth="yes"/>
      <point x="468" y="-30"/>
      <point x="415" y="-25"/>
      <point x="362" y="-15" type="curve" smooth="yes"/>
      <point x="257" y="6"/>
      <point x="162" y="45"/>
      <point x="98" y="94" type="curve"/>
      <point x="148" y="200" type="line"/>
      <point x="195" y="164"/>
      <point x="253" y="135"/>
      <point x="320" y="114" type="curve" smooth="yes"/>
      <point x="387" y="93"/>
      <point x="452" y="82"/>
      <point x="516" y="82" type="curve" smooth="yes"/>
      <point x="593" y="82"/>
      <point x="660" y="95"/>
      <point x="717" y="122" type="curve" smooth="yes"/>
      <point x="830" y="175"/>
      <point x="894" y="275"/>
      <point x="894" y="408" type="curve" smooth="yes"/>
      <point x="894" y="507"/>
      <point x="858" y="585"/>
      <point x="786" y="641" type="curve" smooth="yes"/>
      <point x="713" y="696"/>
      <point x="616" y="724"/>
      <point x="494" y="724" type="curve" smooth="yes"/>
      <point x="441" y="724"/>
      <point x="385" y="718"/>
      <point x="326" y="706" type="curve"/>
      <point x="284" y="792" type="line"/>
      <point x="794" y="1292" type="line"/>
      <point x="104" y="1292" type="line"/>
      <point x="104" y="1400" type="line"/>
      <point x="954" y="1400" type="line"/>
      <point x="954" y="1300" type="line"/>
      <point x="456" y="818" type="line"/>
      <point x="557" y="825"/>
      <point x="650" y="814"/>
      <point x="735" y="787" type="curve" smooth="yes"/>
      <point x="820" y="759"/>
      <point x="889" y="714"/>
      <point x="941" y="651" type="curve" smooth="yes"/>
      <point x="992" y="588"/>
      <point x="1018" y="507"/>
      <point x="1018" y="408" type="curve" smooth="yes"/>
      <point x="1018" y="319"/>
      <point x="997" y="242"/>
      <point x="955" y="177" type="curve" smooth="yes"/>
      <point x="870" y="45"/>
      <point x="715" y="-30"/>
    </contour>
  </outline>
</glyph>
<glyph name="three.tnum" format="2">
  <advance width="1200"/>
  <unicode hex="0033"/>
  <outline>
    <contour>
      <point x="545" y="-30" type="curve" smooth="yes"/>
      <point x="866" y="-30"/>
      <point x="1036" y="189"/>
      <point x="1036" y="405" type="curve" smooth="yes"/>
      <point x="1036" y="665"/>
      <point x="797" y="822"/>
      <point x="548" y="822" type="curve" smooth="yes"/>
      <point x="523" y="822"/>
      <point x="498" y="818"/>
      <point x="473" y="818" type="curve"/>
      <point x="968" y="1299" type="line"/>
      <point x="968" y="1400" type="line"/>
      <point x="135" y="1400" type="line"/>
      <point x="135" y="1292" type="line"/>
      <point x="820" y="1292" type="line"/>
      <point x="312" y="793" type="line"/>
      <point x="356" y="707" type="line"/>
      <point x="410" y="719"/>
      <point x="464" y="724"/>
      <point x="517" y="724" type="curve" smooth="yes"/>
      <point x="727" y="724"/>
      <point x="921" y="638"/>
      <point x="921" y="408" type="curve" smooth="yes"/>
      <point x="921" y="184"/>
      <point x="745" y="82"/>
      <point x="539" y="82" type="curve" smooth="yes"/>
      <point x="404" y="82"/>
      <point x="272" y="122"/>
      <point x="177" y="194" type="curve"/>
      <point x="128" y="93" type="line"/>
      <point x="239" y="11"/>
      <point x="410" y="-30"/>
    </contour>
  </outline>
</glyph>
<glyph name="four.tnum" format="2">
  <advance width="1200"/>
  <unicode hex="0034"/>
  <outline>
    <contour>
      <point x="799" y="0" type="line"/>
      <point x="903" y="0" type="line"/>
      <point x="903" y="312" type="line"/>
      <point x="1138" y="312" type="line"/>
      <point x="1138" y="420" type="line"/>
      <point x="903" y="420" type="line"/>
      <point x="903" y="768" type="line"/>
      <point x="799" y="768" type="line"/>
      <point x="799" y="420" type="line"/>
      <point x="225" y="420" type="line"/>
      <point x="760" y="1400" type="line"/>
      <point x="636" y="1400" type="line"/>
      <point x="102" y="412" type="line"/>
      <point x="102" y="312" type="line"/>
      <point x="799" y="312" type="line"/>
    </contour>
  </outline>
</glyph>
<glyph name="five" format="2">
  <advance width="1156"/>
  <unicode hex="0035"/>
  <outline>
    <contour>
      <point x="522" y="-30" type="curve" smooth="yes"/>
      <point x="442" y="-30"/>
      <point x="365" y="-18"/>
      <point x="286" y="5" type="curve"/>
      <point x="210" y="29"/>
      <point x="149" y="57"/>
      <point x="98" y="96" type="curve"/>
      <point x="148" y="200" type="line"/>
      <point x="196" y="164"/>
      <point x="252" y="137"/>
      <point x="320" y="114" type="curve"/>
      <point x="388" y="94"/>
      <point x="452" y="82"/>
      <point x="516" y="82" type="curve" smooth="yes"/>
      <point x="596" y="82"/>
      <point x="665" y="97"/>
      <point x="725" y="126" type="curve" smooth="yes"/>
      <point x="842" y="181"/>
      <point x="906" y="288"/>
      <point x="906" y="428" type="curve" smooth="yes"/>
      <point x="906" y="497"/>
      <point x="891" y="555"/>
      <point x="856" y="603" type="curve"/>
      <point x="788" y="702"/>
      <point x="667" y="754"/>
      <point x="520" y="754" type="curve" smooth="yes"/>
      <point x="433" y="754"/>
      <point x="336" y="734"/>
      <point x="236" y="690" type="curve"/>
      <point x="186" y="738" type="line"/>
      <point x="258" y="1396" type="line"/>
      <point x="994" y="1400" type="line"/>
      <point x="994" y="1292" type="line"/>
      <point x="348" y="1292" type="line"/>
      <point x="294" y="806" type="line"/>
      <point x="387" y="842"/>
      <point x="475" y="858"/>
      <point x="558" y="858" type="curve" smooth="yes"/>
      <point x="647" y="858"/>
      <point x="724" y="842"/>
      <point x="797" y="807" type="curve" smooth="yes"/>
      <point x="941" y="739"/>
      <point x="1030" y="611"/>
      <point x="1030" y="428" type="curve" smooth="yes"/>
      <point x="1030" y="335"/>
      <point x="1009" y="255"/>
      <point x="966" y="187" type="curve" smooth="yes"/>
      <point x="877" y="48"/>
      <point x="722" y="-30"/>
    </contour>
  </outline>
</glyph>
<glyph name="five.tnum" format="2">
  <advance width="1200"/>
  <unicode hex="0035"/>
  <outline>
    <contour>
      <point x="560" y="-30" type="curve" smooth="yes"/>
      <point x="830" y="-30"/>
      <point x="1045" y="133"/>
      <point x="1045" y="428" type="curve" smooth="yes"/>
      <point x="1045" y="709"/>
      <point x="839" y="858"/>
      <point x="595" y="858" type="curve" smooth="yes"/>
      <point x="515" y="858"/>
      <point x="436" y="843"/>
      <point x="347" y="808" type="curve"/>
      <point x="340" y="808" type="line"/>
      <point x="392" y="1292" type="line"/>
      <point x="1010" y="1292" type="line"/>
      <point x="1010" y="1400" type="line"/>
      <point x="309" y="1396" type="line"/>
      <point x="240" y="738" type="line"/>
      <point x="287" y="691" type="line"/>
      <point x="382" y="735"/>
      <point x="474" y="754"/>
      <point x="558" y="754" type="curve" smooth="yes"/>
      <point x="759" y="754"/>
      <point x="929" y="646"/>
      <point x="929" y="428" type="curve" smooth="yes"/>
      <point x="929" y="195"/>
      <point x="761" y="82"/>
      <point x="554" y="82" type="curve" smooth="yes"/>
      <point x="429" y="82"/>
      <point x="297" y="125"/>
      <point x="204" y="199" type="curve"/>
      <point x="156" y="96" type="line"/>
      <point x="261" y="11"/>
      <point x="430" y="-30"/>
    </contour>
  </outline>
</glyph>
<glyph name="seven.tnum" format="2">
  <advance width="1200"/>
  <unicode hex="0037"/>
  <outline>
    <contour>
      <point x="286" y="0" type="line"/>
      <point x="408" y="0" type="line"/>
      <point x="1018" y="1300" type="line"/>
      <point x="1018" y="1400" type="line"/>
      <point x="204" y="1400" type="line"/>
      <point x="204" y="1292" type="line"/>
      <point x="896" y="1292" type="line"/>
    </contour>
  </outline>
</glyph>
<glyph name="eight" format="2">
  <advance width="1224"/>
  <unicode hex="0038"/>
  <outline>
    <contour>
      <point x="612" y="-30" type="curve" smooth="yes"/>
      <point x="516" y="-30"/>
      <point x="431" y="-10"/>
      <point x="359" y="27" type="curve" smooth="yes"/>
      <point x="214" y="103"/>
      <point x="130" y="234"/>
      <point x="130" y="390" type="curve" smooth="yes"/>
      <point x="130" y="449"/>
      <point x="139" y="498"/>
      <point x="162" y="541" type="curve"/>
      <point x="203" y="629"/>
      <point x="283" y="695"/>
      <point x="396" y="736" type="curve"/>
      <point x="336" y="759"/>
      <point x="284" y="797"/>
      <point x="241" y="850" type="curve"/>
      <point x="200" y="905"/>
      <point x="176" y="970"/>
      <point x="176" y="1050" type="curve" smooth="yes"/>
      <point x="176" y="1123"/>
      <point x="195" y="1190"/>
      <point x="232" y="1247" type="curve" smooth="yes"/>
      <point x="309" y="1362"/>
      <point x="442" y="1430"/>
      <point x="613" y="1430" type="curve" smooth="yes"/>
      <point x="698" y="1430"/>
      <point x="773" y="1416"/>
      <point x="841" y="1381" type="curve"/>
      <point x="974" y="1316"/>
      <point x="1052" y="1197"/>
      <point x="1052" y="1050" type="curve" smooth="yes"/>
      <point x="1052" y="997"/>
      <point x="1043" y="950"/>
      <point x="1022" y="909" type="curve"/>
      <point x="983" y="824"/>
      <point x="913" y="765"/>
      <point x="832" y="736" type="curve"/>
      <point x="912" y="705"/>
      <point x="978" y="662"/>
      <point x="1023" y="603" type="curve"/>
      <point x="1071" y="547"/>
      <point x="1094" y="477"/>
      <point x="1094" y="390" type="curve" smooth="yes"/>
      <point x="1094" y="313"/>
      <point x="1074" y="243"/>
      <point x="1035" y="179" type="curve" smooth="yes"/>
      <point x="996" y="115"/>
      <point x="941" y="64"/>
      <point x="869" y="27" type="curve" smooth="yes"/>
      <point x="797" y="-10"/>
      <point x="712" y="-30"/>
    </contour>
    <contour>
      <point x="612" y="82" type="curve" smooth="yes"/>
      <point x="677" y="82"/>
      <point x="734" y="93"/>
      <point x="790" y="117" type="curve"/>
      <point x="899" y="161"/>
      <point x="970" y="251"/>
      <point x="970" y="380" type="curve" smooth="yes"/>
      <point x="970" y="447"/>
      <point x="954" y="500"/>
      <point x="923" y="545" type="curve" smooth="yes"/>
      <point x="860" y="634"/>
      <point x="748" y="680"/>
      <point x="612" y="680" type="curve" smooth="yes"/>
      <point x="509" y="680"/>
      <point x="423" y="654"/>
      <point x="356" y="603" type="curve"/>
      <point x="288" y="554"/>
      <point x="254" y="479"/>
      <point x="254" y="380" type="curve" smooth="yes"/>
      <point x="254" y="316"/>
      <point x="271" y="261"/>
      <point x="304" y="216" type="curve" smooth="yes"/>
      <point x="368" y="128"/>
      <point x="481" y="82"/>
    </contour>
    <contour>
      <point x="614" y="792" type="curve" smooth="yes"/>
      <point x="677" y="792"/>
      <point x="731" y="801"/>
      <point x="779" y="824" type="curve"/>
      <point x="876" y="864"/>
      <point x="932" y="941"/>
      <point x="932" y="1045" type="curve" smooth="yes"/>
      <point x="932" y="1124"/>
      <point x="905" y="1188"/>
      <point x="846" y="1241" type="curve"/>
      <point x="785" y="1292"/>
      <point x="709" y="1318"/>
      <point x="614" y="1318" type="curve" smooth="yes"/>
      <point x="551" y="1318"/>
      <point x="495" y="1307"/>
      <point x="448" y="1282" type="curve"/>
      <point x="352" y="1234"/>
      <point x="296" y="1148"/>
      <point x="296" y="1045" type="curve" smooth="yes"/>
      <point x="296" y="965"/>
      <point x="327" y="905"/>
      <point x="387" y="860" type="curve" smooth="yes"/>
      <point x="446" y="815"/>
      <point x="521" y="792"/>
    </contour>
  </outline>
</glyph>
<glyph name="eight.tnum" format="2">
  <advance width="1200"/>
  <unicode hex="0038"/>
  <outline>
    <contour>
      <point x="600" y="-30" type="curve" smooth="yes"/>
      <point x="852" y="-30"/>
      <point x="1060" y="129"/>
      <point x="1060" y="390" type="curve" smooth="yes"/>
      <point x="1060" y="559"/>
      <point x="966" y="674"/>
      <point x="810" y="736" type="curve"/>
      <point x="940" y="785"/>
      <point x="1020" y="904"/>
      <point x="1020" y="1050" type="curve" smooth="yes"/>
      <point x="1020" y="1288"/>
      <point x="830" y="1430"/>
      <point x="601" y="1430" type="curve" smooth="yes"/>
      <point x="383" y="1430"/>
      <point x="184" y="1296"/>
      <point x="184" y="1050" type="curve" smooth="yes"/>
      <point x="184" y="904"/>
      <point x="267" y="785"/>
      <point x="395" y="736" type="curve"/>
      <point x="241" y="678"/>
      <point x="140" y="567"/>
      <point x="140" y="390" type="curve" smooth="yes"/>
      <point x="140" y="119"/>
      <point x="368" y="-30"/>
    </contour>
    <contour>
      <point x="600" y="82" type="curve" smooth="yes"/>
      <point x="419" y="82"/>
      <point x="256" y="181"/>
      <point x="256" y="380" type="curve" smooth="yes"/>
      <point x="256" y="576"/>
      <point x="402" y="680"/>
      <point x="600" y="680" type="curve" smooth="yes"/>
      <point x="787" y="680"/>
      <point x="944" y="584"/>
      <point x="944" y="380" type="curve" smooth="yes"/>
      <point x="944" y="177"/>
      <point x="777" y="82"/>
    </contour>
    <contour>
      <point x="602" y="792" type="curve" smooth="yes"/>
      <point x="450" y="792"/>
      <point x="296" y="870"/>
      <point x="296" y="1045" type="curve" smooth="yes"/>
      <point x="296" y="1223"/>
      <point x="444" y="1318"/>
      <point x="602" y="1318" type="curve" smooth="yes"/>
      <point x="765" y="1318"/>
      <point x="908" y="1225"/>
      <point x="908" y="1045" type="curve" smooth="yes"/>
      <point x="908" y="875"/>
      <point x="764" y="792"/>
    </contour>
  </outline>
</glyph>
<glyph name="nine" format="2">
  <advance width="1228"/>
  <unicode hex="0039"/>
  <outline>
    <contour>
      <point x="272" y="-30" type="line"/>
      <point x="457" y="-30"/>
      <point x="627" y="32"/>
      <point x="766" y="138" type="curve" smooth="yes"/>
      <point x="979" y="300"/>
      <point x="1116" y="565"/>
      <point x="1116" y="866" type="curve" smooth="yes"/>
      <point x="1116" y="1231"/>
      <point x="901" y="1430"/>
      <point x="604" y="1430" type="curve" smooth="yes"/>
      <point x="319" y="1430"/>
      <point x="112" y="1233"/>
      <point x="112" y="978" type="curve" smooth="yes"/>
      <point x="112" y="715"/>
      <point x="319" y="532"/>
      <point x="580" y="532" type="curve" smooth="yes"/>
      <point x="753" y="532"/>
      <point x="902" y="623"/>
      <point x="984" y="764" type="curve"/>
      <point x="957" y="560"/>
      <point x="870" y="388"/>
      <point x="740" y="267" type="curve" smooth="yes"/>
      <point x="607" y="142"/>
      <point x="429" y="70"/>
      <point x="228" y="70" type="curve"/>
    </contour>
    <contour>
      <point x="604" y="646" type="curve" smooth="yes"/>
      <point x="397" y="646"/>
      <point x="236" y="791"/>
      <point x="236" y="982" type="curve" smooth="yes"/>
      <point x="236" y="1177"/>
      <point x="389" y="1316"/>
      <point x="604" y="1316" type="curve" smooth="yes"/>
      <point x="819" y="1316"/>
      <point x="972" y="1177"/>
      <point x="972" y="982" type="curve" smooth="yes"/>
      <point x="972" y="791"/>
      <point x="811" y="646"/>
    </contour>
  </outline>
</glyph>
<glyph name="colon" format="2">
  <advance width="560"/>
  <unicode hex="003A"/>
  <outline>
    <contour>
      <point x="281" y="792" type="qcurve" smooth="yes"/>
      <point x="258" y="792"/>
      <point x="217" y="806"/>
      <point x="188" y="834"/>
      <point x="171" y="872"/>
      <point x="171" y="896" type="qcurve" smooth="yes"/>
      <point x="171" y="920"/>
      <point x="187" y="957"/>
      <point x="217" y="985"/>
      <point x="257" y="1000"/>
      <point x="279" y="1000" type="qcurve"/>
      <point x="305" y="1001"/>
      <point x="344" y="985"/>
      <point x="374" y="958"/>
      <point x="391" y="919"/>
      <point x="391" y="896" type="qcurve" smooth="yes"/>
      <point x="391" y="874"/>
      <point x="373" y="835"/>
      <point x="343" y="808"/>
      <point x="303" y="792"/>
    </contour>
    <contour>
      <point x="281" y="-30" type="qcurve" smooth="yes"/>
      <point x="258" y="-30"/>
      <point x="217" y="-16"/>
      <point x="188" y="12"/>
      <point x="171" y="50"/>
      <point x="171" y="74" type="qcurve" smooth="yes"/>
      <point x="171" y="98"/>
      <point x="187" y="135"/>
      <point x="217" y="163"/>
      <point x="257" y="178"/>
      <point x="279" y="178" type="qcurve"/>
      <point x="305" y="179"/>
      <point x="344" y="163"/>
      <point x="374" y="136"/>
      <point x="391" y="97"/>
      <point x="391" y="74" type="qcurve" smooth="yes"/>
      <point x="391" y="52"/>
      <point x="373" y="13"/>
      <point x="343" y="-14"/>
      <point x="303" y="-30"/>
    </contour>
  </outline>
</glyph>
<glyph name="semicolon" format="2">
  <advance width="560"/>
  <unicode hex="003B"/>
  <outline>
    <contour>
      <point x="281" y="792" type="qcurve" smooth="yes"/>
      <point x="257" y="792"/>
      <point x="218" y="808"/>
      <point x="203" y="822" type="qcurve"/>
      <point x="186" y="837"/>
      <point x="171" y="872"/>
      <point x="171" y="896" type="qcurve" smooth="yes"/>
      <point x="171" y="911"/>
      <point x="177" y="939"/>
      <point x="185" y="950" type="qcurve"/>
      <point x="199" y="973"/>
      <point x="250" y="1000"/>
      <point x="279" y="1000" type="qcurve" smooth="yes"/>
      <point x="303" y="1000"/>
      <point x="343" y="986"/>
      <point x="360" y="971" type="qcurve" smooth="yes"/>
      <point x="376" y="957"/>
      <point x="391" y="919"/>
      <point x="391" y="896" type="qcurve" smooth="yes"/>
      <point x="391" y="881"/>
      <point x="384" y="854"/>
      <point x="377" y="843" type="qcurve" smooth="yes"/>
      <point x="362" y="820"/>
      <point x="311" y="792"/>
    </contour>
    <contour>
      <point x="116" y="-176" type="line"/>
      <point x="148" y="-159"/>
      <point x="202" y="-120"/>
      <point x="226" y="-97" type="qcurve" smooth="yes"/>
      <point x="248" y="-76"/>
      <point x="278" y="-34"/>
      <point x="283" y="-14" type="qcurve"/>
      <point x="266" y="-14"/>
      <point x="240" y="-10"/>
      <point x="227" y="-5" type="qcurve"/>
      <point x="201" y="7"/>
      <point x="172" y="51"/>
      <point x="172" y="81" type="qcurve" smooth="yes"/>
      <point x="172" y="102"/>
      <point x="188" y="136"/>
      <point x="202" y="150" type="qcurve"/>
      <point x="217" y="164"/>
      <point x="253" y="178"/>
      <point x="276" y="178" type="qcurve" smooth="yes"/>
      <point x="303" y="178"/>
      <point x="343" y="161"/>
      <point x="357" y="145" type="qcurve"/>
      <point x="374" y="127"/>
      <point x="388" y="79"/>
      <point x="388" y="48" type="qcurve" smooth="yes"/>
      <point x="388" y="25"/>
      <point x="376" y="-26"/>
      <point x="364" y="-51" type="qcurve" smooth="yes"/>
      <point x="339" y="-103"/>
      <point x="243" y="-203"/>
      <point x="174" y="-246" type="qcurve"/>
    </contour>
  </outline>
</glyph>
<glyph name="question" format="2">
  <advance width="950"/>
  <unicode hex="003F"/>
  <outline>
    <contour>
      <point x="615" y="380" type="line"/>
      <point x="645" y="441" type="line"/>
      <point x="640" y="450" type="line"/>
      <point x="600" y="450" type="line" smooth="yes"/>
      <point x="508" y="450"/>
      <point x="425" y="485"/>
      <point x="384" y="533" type="curve" smooth="yes"/>
      <point x="368" y="552"/>
      <point x="358" y="572"/>
      <point x="358" y="595" type="curve" smooth="yes"/>
      <point x="358" y="643"/>
      <point x="391" y="682"/>
      <point x="471" y="730" type="curve" smooth="yes"/>
      <point x="530" y="766"/>
      <point x="594" y="794"/>
      <point x="654" y="828" type="curve" smooth="yes"/>
      <point x="714" y="862"/>
      <point x="769" y="901"/>
      <point x="810" y="960" type="curve" smooth="yes"/>
      <point x="843" y="1007"/>
      <point x="860" y="1058"/>
      <point x="860" y="1118" type="curve" smooth="yes"/>
      <point x="860" y="1182"/>
      <point x="848" y="1235"/>
      <point x="823" y="1279" type="curve" smooth="yes"/>
      <point x="799" y="1322"/>
      <point x="768" y="1357"/>
      <point x="725" y="1388" type="curve" smooth="yes"/>
      <point x="682" y="1419"/>
      <point x="636" y="1438"/>
      <point x="585" y="1451" type="curve" smooth="yes"/>
      <point x="534" y="1464"/>
      <point x="481" y="1470"/>
      <point x="422" y="1470" type="curve" smooth="yes"/>
      <point x="391" y="1470"/>
      <point x="361" y="1468"/>
      <point x="330" y="1464" type="curve" smooth="yes"/>
      <point x="299" y="1460"/>
      <point x="270" y="1454"/>
      <point x="239" y="1445" type="curve" smooth="yes"/>
      <point x="176" y="1426"/>
      <point x="123" y="1397"/>
      <point x="76" y="1358" type="curve"/>
      <point x="126" y="1256" type="line"/>
      <point x="165" y="1293"/>
      <point x="212" y="1318"/>
      <point x="264" y="1333" type="curve" smooth="yes"/>
      <point x="316" y="1348"/>
      <point x="368" y="1354"/>
      <point x="420" y="1354" type="curve" smooth="yes"/>
      <point x="513" y="1354"/>
      <point x="585" y="1338"/>
      <point x="640" y="1303" type="curve" smooth="yes"/>
      <point x="704" y="1262"/>
      <point x="736" y="1198"/>
      <point x="736" y="1110" type="curve" smooth="yes"/>
      <point x="736" y="1035"/>
      <point x="698" y="978"/>
      <point x="617" y="927" type="curve" smooth="yes"/>
      <point x="576" y="902"/>
      <point x="520" y="878"/>
      <point x="464" y="851" type="curve"/>
      <point x="435" y="838"/>
      <point x="408" y="823"/>
      <point x="381" y="808" type="curve"/>
      <point x="327" y="776"/>
      <point x="283" y="739"/>
      <point x="257" y="691" type="curve" smooth="yes"/>
      <point x="244" y="667"/>
      <point x="237" y="640"/>
      <point x="237" y="610" type="curve" smooth="yes"/>
      <point x="237" y="542"/>
      <point x="280" y="480"/>
      <point x="349" y="437" type="curve" smooth="yes"/>
      <point x="406" y="402"/>
      <point x="480" y="380"/>
      <point x="561" y="380" type="curve" smooth="yes"/>
    </contour>
    <contour>
      <point x="416" y="-30" type="curve" smooth="yes"/>
      <point x="445" y="-30"/>
      <point x="472" y="-20"/>
      <point x="495" y="-1" type="curve"/>
      <point x="514" y="16"/>
      <point x="526" y="45"/>
      <point x="526" y="74" type="curve" smooth="yes"/>
      <point x="526" y="102"/>
      <point x="515" y="127"/>
      <point x="494" y="150" type="curve"/>
      <point x="475" y="169"/>
      <point x="447" y="178"/>
      <point x="416" y="178" type="curve" smooth="yes"/>
      <point x="387" y="178"/>
      <point x="359" y="168"/>
      <point x="340" y="151" type="curve"/>
      <point x="317" y="132"/>
      <point x="306" y="103"/>
      <point x="306" y="74" type="curve" smooth="yes"/>
      <point x="306" y="45"/>
      <point x="317" y="19"/>
      <point x="340" y="-1" type="curve"/>
      <point x="359" y="-20"/>
      <point x="387" y="-30"/>
    </contour>
  </outline>
</glyph>
<glyph name="at" format="2">
  <advance width="1726"/>
  <unicode hex="0040"/>
  <outline>
    <contour>
      <point x="862" y="-234" type="curve" smooth="yes"/>
      <point x="714" y="-234"/>
      <point x="582" y="-204"/>
      <point x="469" y="-143" type="curve" smooth="yes"/>
      <point x="356" y="-84"/>
      <point x="271" y="1"/>
      <point x="206" y="109" type="curve" smooth="yes"/>
      <point x="143" y="217"/>
      <point x="112" y="341"/>
      <point x="112" y="484" type="curve" smooth="yes"/>
      <point x="112" y="703"/>
      <point x="193" y="890"/>
      <point x="333" y="1027" type="curve" smooth="yes"/>
      <point x="473" y="1164"/>
      <point x="665" y="1242"/>
      <point x="886" y="1242" type="curve" smooth="yes"/>
      <point x="1031" y="1242"/>
      <point x="1156" y="1214"/>
      <point x="1264" y="1158" type="curve" smooth="yes"/>
      <point x="1373" y="1101"/>
      <point x="1458" y="1023"/>
      <point x="1522" y="923" type="curve"/>
      <point x="1583" y="820"/>
      <point x="1614" y="706"/>
      <point x="1614" y="574" type="curve" smooth="yes"/>
      <point x="1614" y="489"/>
      <point x="1599" y="415"/>
      <point x="1568" y="346" type="curve" smooth="yes"/>
      <point x="1539" y="279"/>
      <point x="1496" y="228"/>
      <point x="1444" y="189" type="curve" smooth="yes"/>
      <point x="1392" y="150"/>
      <point x="1336" y="132"/>
      <point x="1272" y="132" type="curve" smooth="yes"/>
      <point x="1152" y="132"/>
      <point x="1085" y="191"/>
      <point x="1070" y="284" type="curve"/>
      <point x="1018" y="189"/>
      <point x="913" y="132"/>
      <point x="786" y="132" type="curve" smooth="yes"/>
      <point x="727" y="132"/>
      <point x="678" y="150"/>
      <point x="630" y="179" type="curve"/>
      <point x="538" y="244"/>
      <point x="480" y="352"/>
      <point x="480" y="488" type="curve" smooth="yes"/>
      <point x="480" y="563"/>
      <point x="496" y="631"/>
      <point x="529" y="691" type="curve"/>
      <point x="560" y="752"/>
      <point x="602" y="800"/>
      <point x="655" y="836" type="curve" smooth="yes"/>
      <point x="708" y="873"/>
      <point x="767" y="890"/>
      <point x="832" y="890" type="curve" smooth="yes"/>
      <point x="933" y="890"/>
      <point x="1010" y="853"/>
      <point x="1074" y="772" type="curve"/>
      <point x="1078" y="864" type="line"/>
      <point x="1178" y="864" type="line"/>
      <point x="1154" y="394" type="line" smooth="yes"/>
      <point x="1151" y="330"/>
      <point x="1160" y="285"/>
      <point x="1177" y="257" type="curve"/>
      <point x="1197" y="228"/>
      <point x="1231" y="214"/>
      <point x="1286" y="214" type="curve" smooth="yes"/>
      <point x="1330" y="214"/>
      <point x="1368" y="229"/>
      <point x="1404" y="261" type="curve"/>
      <point x="1476" y="320"/>
      <point x="1520" y="432"/>
      <point x="1520" y="572" type="curve" smooth="yes"/>
      <point x="1520" y="689"/>
      <point x="1493" y="788"/>
      <point x="1440" y="876" type="curve" smooth="yes"/>
      <point x="1385" y="964"/>
      <point x="1312" y="1033"/>
      <point x="1217" y="1082" type="curve" smooth="yes"/>
      <point x="1120" y="1133"/>
      <point x="1013" y="1156"/>
      <point x="886" y="1156" type="curve" smooth="yes"/>
      <point x="691" y="1156"/>
      <point x="526" y="1088"/>
      <point x="402" y="965" type="curve" smooth="yes"/>
      <point x="278" y="845"/>
      <point x="206" y="681"/>
      <point x="206" y="490" type="curve" smooth="yes"/>
      <point x="206" y="362"/>
      <point x="233" y="253"/>
      <point x="292" y="158" type="curve"/>
      <point x="348" y="61"/>
      <point x="425" y="-12"/>
      <point x="526" y="-68" type="curve"/>
      <point x="629" y="-120"/>
      <point x="745" y="-148"/>
      <point x="878" y="-148" type="curve" smooth="yes"/>
      <point x="943" y="-148"/>
      <point x="1003" y="-143"/>
      <point x="1068" y="-128" type="curve"/>
      <point x="1193" y="-104"/>
      <point x="1304" y="-58"/>
      <point x="1372" y="2" type="curve"/>
      <point x="1412" y="-78" type="line"/>
      <point x="1372" y="-107"/>
      <point x="1324" y="-136"/>
      <point x="1265" y="-159" type="curve" smooth="yes"/>
      <point x="1145" y="-207"/>
      <point x="1005" y="-234"/>
    </contour>
    <contour>
      <point x="806" y="228" type="curve" smooth="yes"/>
      <point x="886" y="228"/>
      <point x="949" y="256"/>
      <point x="994" y="312" type="curve" smooth="yes"/>
      <point x="1038" y="368"/>
      <point x="1060" y="443"/>
      <point x="1060" y="542" type="curve" smooth="yes"/>
      <point x="1060" y="707"/>
      <point x="984" y="794"/>
      <point x="840" y="794" type="curve" smooth="yes"/>
      <point x="760" y="794"/>
      <point x="697" y="768"/>
      <point x="653" y="712" type="curve" smooth="yes"/>
      <point x="608" y="656"/>
      <point x="584" y="581"/>
      <point x="584" y="484" type="curve" smooth="yes"/>
      <point x="584" y="319"/>
      <point x="662" y="228"/>
    </contour>
  </outline>
</glyph>
<glyph name="B" format="2">
  <advance width="1220"/>
  <unicode hex="0042"/>
  <outline>
    <contour>
      <point x="200" y="0" type="line"/>
      <point x="200" y="1400" type="line"/>
      <point x="618" y="1400" type="line" smooth="yes"/>
      <point x="746" y="1400"/>
      <point x="847" y="1371"/>
      <point x="927" y="1311" type="curve" smooth="yes"/>
      <point x="1007" y="1251"/>
      <point x="1046" y="1164"/>
      <point x="1046" y="1048" type="curve" smooth="yes"/>
      <point x="1046" y="1001"/>
      <point x="1034" y="958"/>
      <point x="1011" y="914" type="curve"/>
      <point x="986" y="871"/>
      <point x="956" y="834"/>
      <point x="919" y="802" type="curve" smooth="yes"/>
      <point x="882" y="770"/>
      <point x="847" y="747"/>
      <point x="808" y="736" type="curve"/>
      <point x="888" y="716"/>
      <point x="952" y="676"/>
      <point x="1009" y="613" type="curve" smooth="yes"/>
      <point x="1065" y="552"/>
      <point x="1090" y="472"/>
      <point x="1090" y="376" type="curve" smooth="yes"/>
      <point x="1090" y="304"/>
      <point x="1072" y="244"/>
      <point x="1037" y="185" type="curve"/>
      <point x="965" y="72"/>
      <point x="833" y="0"/>
      <point x="650" y="0" type="curve" smooth="yes"/>
    </contour>
    <contour>
      <point x="316" y="108" type="line"/>
      <point x="622" y="108" type="line" smooth="yes"/>
      <point x="863" y="108"/>
      <point x="974" y="195"/>
      <point x="974" y="386" type="curve" smooth="yes"/>
      <point x="974" y="573"/>
      <point x="860" y="670"/>
      <point x="604" y="670" type="curve" smooth="yes"/>
      <point x="316" y="670" type="line"/>
    </contour>
    <contour>
      <point x="316" y="778" type="line"/>
      <point x="594" y="778" type="line" smooth="yes"/>
      <point x="662" y="778"/>
      <point x="722" y="789"/>
      <point x="771" y="810" type="curve" smooth="yes"/>
      <point x="872" y="853"/>
      <point x="930" y="933"/>
      <point x="930" y="1046" type="curve" smooth="yes"/>
      <point x="930" y="1207"/>
      <point x="809" y="1292"/>
      <point x="592" y="1292" type="curve" smooth="yes"/>
      <point x="316" y="1292" type="line"/>
    </contour>
  </outline>
</glyph>
<glyph name="C" format="2">
  <advance width="1392"/>
  <unicode hex="0043"/>
  <outline>
    <contour>
      <point x="826" y="-30" type="curve" smooth="yes"/>
      <point x="923" y="-30"/>
      <point x="1009" y="-16"/>
      <point x="1093" y="8" type="curve"/>
      <point x="1177" y="35"/>
      <point x="1250" y="74"/>
      <point x="1322" y="130" type="curve"/>
      <point x="1266" y="230" type="line"/>
      <point x="1145" y="126"/>
      <point x="1010" y="82"/>
      <point x="850" y="82" type="curve" smooth="yes"/>
      <point x="598" y="82"/>
      <point x="409" y="179"/>
      <point x="308" y="368" type="curve" smooth="yes"/>
      <point x="259" y="460"/>
      <point x="232" y="569"/>
      <point x="232" y="702" type="curve" smooth="yes"/>
      <point x="232" y="895"/>
      <point x="291" y="1047"/>
      <point x="399" y="1155" type="curve" smooth="yes"/>
      <point x="504" y="1263"/>
      <point x="652" y="1320"/>
      <point x="836" y="1320" type="curve" smooth="yes"/>
      <point x="989" y="1320"/>
      <point x="1114" y="1283"/>
      <point x="1210" y="1198" type="curve"/>
      <point x="1278" y="1292" type="line"/>
      <point x="1226" y="1336"/>
      <point x="1162" y="1370"/>
      <point x="1086" y="1395" type="curve"/>
      <point x="1009" y="1418"/>
      <point x="922" y="1430"/>
      <point x="826" y="1430" type="curve" smooth="yes"/>
      <point x="617" y="1430"/>
      <point x="442" y="1358"/>
      <point x="313" y="1225" type="curve" smooth="yes"/>
      <point x="184" y="1089"/>
      <point x="112" y="917"/>
      <point x="112" y="702" type="curve" smooth="yes"/>
      <point x="112" y="554"/>
      <point x="140" y="431"/>
      <point x="201" y="319" type="curve" smooth="yes"/>
      <point x="261" y="206"/>
      <point x="341" y="126"/>
      <point x="449" y="62" type="curve"/>
      <point x="558" y="2"/>
      <point x="681" y="-30"/>
    </contour>
  </outline>
</glyph>
<glyph name="D" format="2">
  <advance width="1396"/>
  <unicode hex="0044"/>
  <outline>
    <contour>
      <point x="200" y="0" type="line"/>
      <point x="200" y="1400" type="line"/>
      <point x="596" y="1400" type="line" smooth="yes"/>
      <point x="729" y="1400"/>
      <point x="847" y="1370"/>
      <point x="952" y="1310" type="curve" smooth="yes"/>
      <point x="1055" y="1250"/>
      <point x="1135" y="1167"/>
      <point x="1195" y="1062" type="curve" smooth="yes"/>
      <point x="1255" y="957"/>
      <point x="1284" y="835"/>
      <point x="1284" y="698" type="curve" smooth="yes"/>
      <point x="1284" y="495"/>
      <point x="1214" y="323"/>
      <point x="1090" y="199" type="curve" smooth="yes"/>
      <point x="965" y="74"/>
      <point x="796" y="0"/>
      <point x="596" y="0" type="curve" smooth="yes"/>
    </contour>
    <contour>
      <point x="316" y="108" type="line"/>
      <point x="558" y="108" type="line" smooth="yes"/>
      <point x="743" y="108"/>
      <point x="890" y="167"/>
      <point x="998" y="270" type="curve" smooth="yes"/>
      <point x="1106" y="375"/>
      <point x="1164" y="519"/>
      <point x="1164" y="698" type="curve" smooth="yes"/>
      <point x="1164" y="819"/>
      <point x="1139" y="921"/>
      <point x="1090" y="1012" type="curve"/>
      <point x="989" y="1191"/>
      <point x="805" y="1292"/>
      <point x="558" y="1292" type="curve" smooth="yes"/>
      <point x="316" y="1292" type="line"/>
    </contour>
  </outline>
</glyph>
<glyph name="G" format="2">
  <advance width="1500"/>
  <unicode hex="0047"/>
  <outline>
    <contour>
      <point x="886" y="-30" type="curve" smooth="yes"/>
      <point x="658" y="-30"/>
      <point x="467" y="40"/>
      <point x="330" y="171" type="curve"/>
      <point x="191" y="299"/>
      <point x="112" y="479"/>
      <point x="112" y="696" type="curve" smooth="yes"/>
      <point x="112" y="916"/>
      <point x="187" y="1096"/>
      <point x="322" y="1227" type="curve" smooth="yes"/>
      <point x="454" y="1358"/>
      <point x="637" y="1430"/>
      <point x="860" y="1430" type="curve" smooth="yes"/>
      <point x="912" y="1430"/>
      <point x="961" y="1426"/>
      <point x="1012" y="1417" type="curve" smooth="yes"/>
      <point x="1113" y="1400"/>
      <point x="1205" y="1368"/>
      <point x="1276" y="1311" type="curve"/>
      <point x="1220" y="1216" type="line"/>
      <point x="1112" y="1284"/>
      <point x="979" y="1318"/>
      <point x="850" y="1318" type="curve" smooth="yes"/>
      <point x="663" y="1318"/>
      <point x="510" y="1260"/>
      <point x="402" y="1151" type="curve" smooth="yes"/>
      <point x="294" y="1044"/>
      <point x="232" y="892"/>
      <point x="232" y="700" type="curve" smooth="yes"/>
      <point x="232" y="569"/>
      <point x="258" y="459"/>
      <point x="314" y="366" type="curve" smooth="yes"/>
      <point x="423" y="181"/>
      <point x="623" y="78"/>
      <point x="888" y="78" type="curve" smooth="yes"/>
      <point x="1037" y="78"/>
      <point x="1152" y="114"/>
      <point x="1208" y="150" type="curve"/>
      <point x="1208" y="578" type="line"/>
      <point x="800" y="578" type="line"/>
      <point x="800" y="686" type="line"/>
      <point x="1320" y="686" type="line"/>
      <point x="1320" y="92" type="line"/>
      <point x="1291" y="67"/>
      <point x="1247" y="47"/>
      <point x="1195" y="27" type="curve"/>
      <point x="1143" y="10"/>
      <point x="1088" y="-6"/>
      <point x="1033" y="-15" type="curve" smooth="yes"/>
      <point x="976" y="-24"/>
      <point x="929" y="-30"/>
    </contour>
  </outline>
</glyph>
<glyph name="H" format="2">
  <advance width="1436"/>
  <unicode hex="0048"/>
  <anchor x="718" y="1400" name="top"/>
  <outline>
    <contour>
      <point x="200" y="0" type="line"/>
      <point x="200" y="1400" type="line"/>
      <point x="316" y="1400" type="line"/>
      <point x="316" y="806" type="line"/>
      <point x="1120" y="806" type="line"/>
      <point x="1120" y="1400" type="line"/>
      <point x="1236" y="1400" type="line"/>
      <point x="1236" y="0" type="line"/>
      <point x="1120" y="0" type="line"/>
      <point x="1120" y="698" type="line"/>
      <point x="316" y="698" type="line"/>
      <point x="316" y="0" type="line"/>
    </contour>
  </outline>
</glyph>
<glyph name="J" format="2">
  <advance width="950"/>
  <unicode hex="004A"/>
  <anchor x="694" y="1400" name="top"/>
  <outline>
    <contour>
      <point x="336" y="-30" type="qcurve"/>
      <point x="262" y="-30"/>
      <point x="121" y="7"/>
      <point x="51" y="44" type="qcurve"/>
      <point x="100" y="144" type="line"/>
      <point x="151" y="113"/>
      <point x="265" y="78"/>
      <point x="326" y="78" type="qcurve"/>
      <point x="479" y="78"/>
      <point x="636" y="212"/>
      <point x="636" y="366" type="qcurve"/>
      <point x="636" y="1400" type="line"/>
      <point x="752" y="1400" type="line"/>
      <point x="752" y="362" type="line"/>
      <point x="752" y="241"/>
      <point x="656" y="65"/>
      <point x="470" y="-30"/>
    </contour>
  </outline>
</glyph>
<glyph name="L" format="2">
  <advance width="1054"/>
  <unicode hex="004C"/>
  <outline>
    <contour>
      <point x="200" y="0" type="line"/>
      <point x="974" y="0" type="line"/>
      <point x="974" y="108" type="line"/>
      <point x="316" y="108" type="line"/>
      <point x="316" y="1400" type="line"/>
      <point x="200" y="1400" type="line"/>
    </contour>
  </outline>
</glyph>
<glyph name="P" format="2">
  <advance width="1220"/>
  <unicode hex="0050"/>
  <outline>
    <contour>
      <point x="200" y="0" type="line"/>
      <point x="200" y="1400" type="line"/>
      <point x="652" y="1400" type="line" smooth="yes"/>
      <point x="747" y="1400"/>
      <point x="830" y="1384"/>
      <point x="902" y="1352" type="curve" smooth="yes"/>
      <point x="1045" y="1288"/>
      <point x="1130" y="1167"/>
      <point x="1130" y="1000" type="curve" smooth="yes"/>
      <point x="1130" y="914"/>
      <point x="1111" y="842"/>
      <point x="1074" y="783" type="curve" smooth="yes"/>
      <point x="999" y="666"/>
      <point x="855" y="604"/>
      <point x="650" y="604" type="curve" smooth="yes"/>
      <point x="316" y="604" type="line"/>
      <point x="316" y="0" type="line"/>
    </contour>
    <contour>
      <point x="316" y="712" type="line"/>
      <point x="664" y="712" type="line" smooth="yes"/>
      <point x="887" y="712"/>
      <point x="1014" y="811"/>
      <point x="1014" y="996" type="curve" smooth="yes"/>
      <point x="1014" y="1086"/>
      <point x="983" y="1158"/>
      <point x="921" y="1212" type="curve" smooth="yes"/>
      <point x="859" y="1265"/>
      <point x="774" y="1292"/>
      <point x="666" y="1292" type="curve" smooth="yes"/>
      <point x="316" y="1292" type="line"/>
    </contour>
  </outline>
</glyph>
<glyph name="Q" format="2">
  <advance width="1676"/>
  <unicode hex="0051"/>
  <outline>
    <component base="O"/>
    <contour>
      <point x="1418" y="-120" type="line"/>
      <point x="938" y="444" type="line"/>
      <point x="1077" y="444" type="line"/>
      <point x="1556" y="-120" type="line"/>
    </contour>
  </outline>
</glyph>
<glyph name="R" format="2">
  <advance width="1284"/>
  <unicode hex="0052"/>
  <outline>
    <contour>
      <point x="200" y="0" type="line"/>
      <point x="200" y="1400" type="line"/>
      <point x="690" y="1400" type="line" smooth="yes"/>
      <point x="781" y="1400"/>
      <point x="856" y="1383"/>
      <point x="923" y="1351" type="curve"/>
      <point x="1052" y="1283"/>
      <point x="1124" y="1161"/>
      <point x="1124" y="998" type="curve" smooth="yes"/>
      <point x="1124" y="927"/>
      <point x="1108" y="867"/>
      <point x="1076" y="811" type="curve"/>
      <point x="1009" y="702"/>
      <point x="887" y="632"/>
      <point x="716" y="616" type="curve"/>
      <point x="1184" y="0" type="line"/>
      <point x="1036" y="0" type="line"/>
      <point x="574" y="614" type="line"/>
      <point x="316" y="614" type="line"/>
      <point x="316" y="0" type="line"/>
    </contour>
    <contour>
      <point x="316" y="722" type="line"/>
      <point x="656" y="722" type="line" smooth="yes"/>
      <point x="768" y="722"/>
      <point x="853" y="746"/>
      <point x="917" y="798" type="curve" smooth="yes"/>
      <point x="977" y="847"/>
      <point x="1008" y="913"/>
      <point x="1008" y="998" type="curve" smooth="yes"/>
      <point x="1008" y="1086"/>
      <point x="981" y="1156"/>
      <point x="929" y="1211" type="curve" smooth="yes"/>
      <point x="876" y="1267"/>
      <point x="793" y="1292"/>
      <point x="680" y="1292" type="curve" smooth="yes"/>
      <point x="316" y="1292" type="line"/>
    </contour>
  </outline>
</glyph>
<glyph name="S" format="2">
  <advance width="1234"/>
  <unicode hex="0053"/>
  <outline>
    <contour>
      <point x="622" y="-30" type="qcurve" smooth="yes"/>
      <point x="557" y="-30"/>
      <point x="427" y="-11"/>
      <point x="364" y="7" type="qcurve"/>
      <point x="302" y="23"/>
      <point x="196" y="74"/>
      <point x="153" y="108" type="qcurve"/>
      <point x="216" y="204" type="line"/>
      <point x="244" y="184"/>
      <point x="305" y="150"/>
      <point x="336" y="136" type="qcurve"/>
      <point x="403" y="108"/>
      <point x="546" y="78"/>
      <point x="624" y="78" type="qcurve" smooth="yes"/>
      <point x="710" y="78"/>
      <point x="848" y="114"/>
      <point x="900" y="149" type="qcurve" smooth="yes"/>
      <point x="952" y="184"/>
      <point x="1002" y="285"/>
      <point x="1002" y="352" type="qcurve" smooth="yes"/>
      <point x="1002" y="400"/>
      <point x="970" y="482"/>
      <point x="936" y="516" type="qcurve" smooth="yes"/>
      <point x="902" y="549"/>
      <point x="776" y="610"/>
      <point x="684" y="636" type="qcurve"/>
      <point x="516" y="686" type="line" smooth="yes"/>
      <point x="425" y="713"/>
      <point x="293" y="783"/>
      <point x="250" y="825" type="qcurve" smooth="yes"/>
      <point x="207" y="868"/>
      <point x="164" y="976"/>
      <point x="164" y="1042" type="qcurve" smooth="yes"/>
      <point x="164" y="1134"/>
      <point x="235" y="1277"/>
      <point x="300" y="1327" type="qcurve"/>
      <point x="365" y="1379"/>
      <point x="540" y="1430"/>
      <point x="646" y="1430" type="qcurve" smooth="yes"/>
      <point x="709" y="1430"/>
      <point x="823" y="1412"/>
      <point x="877" y="1395" type="qcurve"/>
      <point x="930" y="1376"/>
      <point x="1018" y="1328"/>
      <point x="1056" y="1300" type="qcurve"/>
      <point x="990" y="1208" type="line"/>
      <point x="967" y="1228"/>
      <point x="912" y="1259"/>
      <point x="884" y="1271" type="qcurve" smooth="yes"/>
      <point x="823" y="1297"/>
      <point x="693" y="1324"/>
      <point x="624" y="1324" type="qcurve" smooth="yes"/>
      <point x="572" y="1324"/>
      <point x="482" y="1310"/>
      <point x="442" y="1294" type="qcurve" smooth="yes"/>
      <point x="361" y="1261"/>
      <point x="272" y="1140"/>
      <point x="272" y="1050" type="qcurve" smooth="yes"/>
      <point x="272" y="1019"/>
      <point x="287" y="965"/>
      <point x="300" y="941" type="qcurve"/>
      <point x="328" y="893"/>
      <point x="464" y="817"/>
      <point x="586" y="780" type="qcurve" smooth="yes"/>
      <point x="768" y="726" type="line" smooth="yes"/>
      <point x="857" y="700"/>
      <point x="985" y="632"/>
      <point x="1026" y="589" type="qcurve" smooth="yes"/>
      <point x="1069" y="544"/>
      <point x="1110" y="432"/>
      <point x="1110" y="360" type="qcurve" smooth="yes"/>
      <point x="1110" y="302"/>
      <point x="1084" y="201"/>
      <point x="1056" y="157" type="qcurve" smooth="yes"/>
      <point x="1000" y="69"/>
      <point x="783" y="-30"/>
    </contour>
  </outline>
</glyph>
<glyph name="T" format="2">
  <advance width="1084"/>
  <unicode hex="0054"/>
  <outline>
    <contour>
      <point x="484" y="0" type="line"/>
      <point x="484" y="1292" type="line"/>
      <point x="70" y="1292" type="line"/>
      <point x="70" y="1400" type="line"/>
      <point x="1014" y="1400" type="line"/>
      <point x="1014" y="1292" type="line"/>
      <point x="600" y="1292" type="line"/>
      <point x="600" y="0" type="line"/>
    </contour>
  </outline>
</glyph>
<glyph name="U" format="2">
  <advance width="1444"/>
  <unicode hex="0055"/>
  <anchor x="722" y="1400" name="top"/>
  <anchor x="1254" y="1400" name="horn"/>
  <anchor x="722" y="0" name="bottom"/>
  <outline>
    <contour>
      <point x="722" y="-30" type="curve" smooth="yes"/>
      <point x="603" y="-30"/>
      <point x="505" y="-5"/>
      <point x="426" y="45" type="curve" smooth="yes"/>
      <point x="347" y="94"/>
      <point x="288" y="160"/>
      <point x="249" y="243" type="curve" smooth="yes"/>
      <point x="210" y="326"/>
      <point x="190" y="417"/>
      <point x="190" y="516" type="curve" smooth="yes"/>
      <point x="190" y="1400" type="line"/>
      <point x="306" y="1400" type="line"/>
      <point x="306" y="532" type="line" smooth="yes"/>
      <point x="306" y="381"/>
      <point x="344" y="269"/>
      <point x="420" y="194" type="curve" smooth="yes"/>
      <point x="495" y="119"/>
      <point x="596" y="82"/>
      <point x="722" y="82" type="curve" smooth="yes"/>
      <point x="848" y="82"/>
      <point x="949" y="119"/>
      <point x="1025" y="194" type="curve" smooth="yes"/>
      <point x="1100" y="269"/>
      <point x="1138" y="381"/>
      <point x="1138" y="532" type="curve" smooth="yes"/>
      <point x="1138" y="1400" type="line"/>
      <point x="1254" y="1400" type="line"/>
      <point x="1254" y="516" type="line" smooth="yes"/>
      <point x="1254" y="417"/>
      <point x="1234" y="326"/>
      <point x="1195" y="243" type="curve" smooth="yes"/>
      <point x="1156" y="160"/>
      <point x="1097" y="94"/>
      <point x="1018" y="45" type="curve" smooth="yes"/>
      <point x="939" y="-5"/>
      <point x="841" y="-30"/>
    </contour>
  </outline>
</glyph>
<glyph name="a" format="2">
  <advance width="1049"/>
  <unicode hex="0061"/>
  <outline>
    <contour>
      <point x="434" y="-30" type="qcurve" smooth="yes"/>
      <point x="381" y="-30"/>
      <point x="291" y="-12"/>
      <point x="253" y="8" type="qcurve" smooth="yes"/>
      <point x="179" y="46"/>
      <point x="100" y="180"/>
      <point x="100" y="270" type="qcurve" smooth="yes"/>
      <point x="100" y="346"/>
      <point x="176" y="469"/>
      <point x="262" y="512" type="qcurve" smooth="yes"/>
      <point x="347" y="554"/>
      <point x="624" y="582"/>
      <point x="826" y="558" type="qcurve"/>
      <point x="832" y="458" type="line"/>
      <point x="654" y="481"/>
      <point x="416" y="466"/>
      <point x="344" y="437" type="qcurve" smooth="yes"/>
      <point x="272" y="408"/>
      <point x="212" y="321"/>
      <point x="212" y="271" type="qcurve" smooth="yes"/>
      <point x="212" y="179"/>
      <point x="337" y="78"/>
      <point x="449" y="78" type="qcurve" smooth="yes"/>
      <point x="497" y="78"/>
      <point x="580" y="96"/>
      <point x="618" y="114" type="qcurve" smooth="yes"/>
      <point x="694" y="150"/>
      <point x="780" y="272"/>
      <point x="780" y="350" type="qcurve" smooth="yes"/>
      <point x="780" y="644" type="line" smooth="yes"/>
      <point x="780" y="682"/>
      <point x="763" y="749"/>
      <point x="745" y="778" type="qcurve" smooth="yes"/>
      <point x="712" y="834"/>
      <point x="585" y="892"/>
      <point x="496" y="892" type="qcurve" smooth="yes"/>
      <point x="419" y="892"/>
      <point x="270" y="847"/>
      <point x="196" y="792" type="qcurve"/>
      <point x="154" y="892" type="line"/>
      <point x="240" y="955"/>
      <point x="418" y="1000"/>
      <point x="498" y="1000" type="qcurve" smooth="yes"/>
      <point x="563" y="1000"/>
      <point x="671" y="980"/>
      <point x="716" y="959" type="qcurve" smooth="yes"/>
      <point x="803" y="919"/>
      <point x="892" y="760"/>
      <point x="892" y="644" type="qcurve" smooth="yes"/>
      <point x="892" y="0" type="line"/>
      <point x="780" y="0" type="line"/>
      <point x="780" y="126" type="line"/>
      <point x="728" y="51"/>
      <point x="545" y="-30"/>
    </contour>
  </outline>
</glyph>
<glyph name="b" format="2">
  <advance width="1254"/>
  <unicode hex="0062"/>
  <outline>
    <contour>
      <point x="688" y="-30" type="curve" smooth="yes"/>
      <point x="620" y="-30"/>
      <point x="559" y="-20"/>
      <point x="506" y="0" type="curve" smooth="yes"/>
      <point x="399" y="40"/>
      <point x="320" y="113"/>
      <point x="264" y="202" type="curve"/>
      <point x="282" y="226" type="line"/>
      <point x="282" y="0" type="line"/>
      <point x="170" y="0" type="line"/>
      <point x="170" y="1440" type="line"/>
      <point x="282" y="1440" type="line"/>
      <point x="282" y="734" type="line"/>
      <point x="264" y="758" type="line"/>
      <point x="306" y="824"/>
      <point x="362" y="879"/>
      <point x="431" y="924" type="curve" smooth="yes"/>
      <point x="500" y="968"/>
      <point x="586" y="990"/>
      <point x="688" y="990" type="curve" smooth="yes"/>
      <point x="785" y="990"/>
      <point x="870" y="967"/>
      <point x="943" y="921" type="curve" smooth="yes"/>
      <point x="1016" y="874"/>
      <point x="1072" y="812"/>
      <point x="1113" y="735" type="curve" smooth="yes"/>
      <point x="1154" y="658"/>
      <point x="1174" y="573"/>
      <point x="1174" y="480" type="curve" smooth="yes"/>
      <point x="1174" y="341"/>
      <point x="1126" y="215"/>
      <point x="1040" y="121" type="curve" smooth="yes"/>
      <point x="954" y="27"/>
      <point x="833" y="-30"/>
    </contour>
    <contour>
      <point x="668" y="78" type="curve" smooth="yes"/>
      <point x="743" y="78"/>
      <point x="810" y="95"/>
      <point x="868" y="128" type="curve" smooth="yes"/>
      <point x="984" y="194"/>
      <point x="1054" y="316"/>
      <point x="1054" y="480" type="curve" smooth="yes"/>
      <point x="1054" y="562"/>
      <point x="1038" y="633"/>
      <point x="1005" y="694" type="curve" smooth="yes"/>
      <point x="939" y="814"/>
      <point x="819" y="882"/>
      <point x="668" y="882" type="curve" smooth="yes"/>
      <point x="593" y="882"/>
      <point x="526" y="866"/>
      <point x="468" y="833" type="curve" smooth="yes"/>
      <point x="352" y="768"/>
      <point x="282" y="644"/>
      <point x="282" y="480" type="curve" smooth="yes"/>
      <point x="282" y="398"/>
      <point x="299" y="327"/>
      <point x="332" y="267" type="curve" smooth="yes"/>
      <point x="398" y="147"/>
      <point x="517" y="78"/>
    </contour>
  </outline>
</glyph>
<glyph name="c" format="2">
  <advance width="991"/>
  <unicode hex="0063"/>
  <outline>
    <contour>
      <point x="594" y="-30" type="curve" smooth="yes"/>
      <point x="658" y="-30"/>
      <point x="715" y="-21"/>
      <point x="771" y="3" type="curve"/>
      <point x="827" y="23"/>
      <point x="877" y="51"/>
      <point x="926" y="88" type="curve"/>
      <point x="850" y="174" type="line"/>
      <point x="825" y="149"/>
      <point x="793" y="126"/>
      <point x="746" y="106" type="curve"/>
      <point x="701" y="89"/>
      <point x="652" y="78"/>
      <point x="600" y="78" type="curve" smooth="yes"/>
      <point x="476" y="78"/>
      <point x="381" y="114"/>
      <point x="309" y="186" type="curve" smooth="yes"/>
      <point x="236" y="258"/>
      <point x="200" y="357"/>
      <point x="200" y="482" type="curve" smooth="yes"/>
      <point x="200" y="653"/>
      <point x="268" y="771"/>
      <point x="389" y="836" type="curve"/>
      <point x="450" y="865"/>
      <point x="518" y="882"/>
      <point x="602" y="882" type="curve" smooth="yes"/>
      <point x="694" y="882"/>
      <point x="779" y="856"/>
      <point x="836" y="808" type="curve"/>
      <point x="904" y="900" type="line"/>
      <point x="820" y="965"/>
      <point x="727" y="990"/>
      <point x="610" y="990" type="curve" smooth="yes"/>
      <point x="457" y="990"/>
      <point x="327" y="940"/>
      <point x="231" y="848" type="curve" smooth="yes"/>
      <point x="134" y="756"/>
      <point x="80" y="629"/>
      <point x="80" y="480" type="curve" smooth="yes"/>
      <point x="80" y="383"/>
      <point x="102" y="295"/>
      <point x="147" y="219" type="curve"/>
      <point x="190" y="139"/>
      <point x="250" y="81"/>
      <point x="327" y="38" type="curve"/>
      <point x="404" y="-7"/>
      <point x="493" y="-30"/>
    </contour>
  </outline>
</glyph>
<glyph name="d" format="2">
  <advance width="1254"/>
  <unicode hex="0064"/>
  <outline>
    <contour>
      <point x="566" y="-30" type="curve" smooth="yes"/>
      <point x="469" y="-30"/>
      <point x="387" y="-7"/>
      <point x="312" y="41" type="curve" smooth="yes"/>
      <point x="239" y="88"/>
      <point x="182" y="149"/>
      <point x="142" y="225" type="curve"/>
      <point x="99" y="302"/>
      <point x="80" y="388"/>
      <point x="80" y="480" type="curve" smooth="yes"/>
      <point x="80" y="621"/>
      <point x="130" y="746"/>
      <point x="215" y="841" type="curve" smooth="yes"/>
      <point x="303" y="936"/>
      <point x="421" y="990"/>
      <point x="566" y="990" type="curve" smooth="yes"/>
      <point x="669" y="990"/>
      <point x="755" y="971"/>
      <point x="824" y="928" type="curve" smooth="yes"/>
      <point x="892" y="885"/>
      <point x="947" y="834"/>
      <point x="990" y="766" type="curve"/>
      <point x="972" y="742" type="line"/>
      <point x="972" y="1440" type="line"/>
      <point x="1084" y="1440" type="line"/>
      <point x="1084" y="0" type="line"/>
      <point x="972" y="0" type="line"/>
      <point x="972" y="212" type="line"/>
      <point x="990" y="186" type="line"/>
      <point x="949" y="126"/>
      <point x="893" y="74"/>
      <point x="829" y="33" type="curve" smooth="yes"/>
      <point x="764" y="-8"/>
      <point x="675" y="-30"/>
    </contour>
    <contour>
      <point x="586" y="78" type="curve" smooth="yes"/>
      <point x="663" y="78"/>
      <point x="729" y="95"/>
      <point x="786" y="128" type="curve" smooth="yes"/>
      <point x="905" y="195"/>
      <point x="972" y="315"/>
      <point x="972" y="480" type="curve" smooth="yes"/>
      <point x="972" y="563"/>
      <point x="957" y="634"/>
      <point x="924" y="694" type="curve" smooth="yes"/>
      <point x="857" y="817"/>
      <point x="739" y="882"/>
      <point x="586" y="882" type="curve" smooth="yes"/>
      <point x="510" y="882"/>
      <point x="446" y="866"/>
      <point x="386" y="833" type="curve" smooth="yes"/>
      <point x="269" y="769"/>
      <point x="200" y="645"/>
      <point x="200" y="480" type="curve" smooth="yes"/>
      <point x="200" y="397"/>
      <point x="216" y="328"/>
      <point x="251" y="268" type="curve"/>
      <point x="318" y="145"/>
      <point x="435" y="78"/>
    </contour>
  </outline>
</glyph>
<glyph name="e" format="2">
  <advance width="1101"/>
  <unicode hex="0065"/>
  <outline>
    <contour>
      <point x="590" y="-30" type="qcurve" smooth="yes"/>
      <point x="516" y="-30"/>
      <point x="384" y="2"/>
      <point x="326" y="35" type="qcurve"/>
      <point x="210" y="98"/>
      <point x="80" y="325"/>
      <point x="80" y="476" type="qcurve" smooth="yes"/>
      <point x="80" y="587"/>
      <point x="155" y="774"/>
      <point x="221" y="845" type="qcurve"/>
      <point x="289" y="914"/>
      <point x="466" y="990"/>
      <point x="572" y="990" type="qcurve" smooth="yes"/>
      <point x="685" y="990"/>
      <point x="859" y="913"/>
      <point x="917" y="841" type="qcurve" smooth="yes"/>
      <point x="977" y="768"/>
      <point x="1029" y="581"/>
      <point x="1018" y="468" type="qcurve"/>
      <point x="204" y="468" type="line"/>
      <point x="202" y="410"/>
      <point x="223" y="308"/>
      <point x="245" y="264" type="qcurve"/>
      <point x="293" y="177"/>
      <point x="476" y="78"/>
      <point x="604" y="78" type="qcurve" smooth="yes"/>
      <point x="682" y="78"/>
      <point x="835" y="134"/>
      <point x="888" y="184" type="qcurve"/>
      <point x="954" y="90" type="line"/>
      <point x="929" y="71"/>
      <point x="875" y="36"/>
      <point x="843" y="22" type="qcurve" smooth="yes"/>
      <point x="782" y="-5"/>
      <point x="653" y="-30"/>
    </contour>
    <contour>
      <point x="898" y="572" type="line"/>
      <point x="896" y="647"/>
      <point x="853" y="759"/>
      <point x="810" y="802" type="qcurve" smooth="yes"/>
      <point x="769" y="843"/>
      <point x="651" y="882"/>
      <point x="572" y="882" type="qcurve" smooth="yes"/>
      <point x="496" y="882"/>
      <point x="373" y="843"/>
      <point x="324" y="802" type="qcurve" smooth="yes"/>
      <point x="274" y="759"/>
      <point x="216" y="647"/>
      <point x="208" y="572" type="qcurve"/>
    </contour>
  </outline>
</glyph>
<glyph name="f" format="2">
  <advance width="714"/>
  <unicode hex="0066"/>
  <outline>
    <contour>
      <point x="280" y="0" type="line"/>
      <point x="280" y="1192" type="line" smooth="yes"/>
      <point x="280" y="1280"/>
      <point x="305" y="1348"/>
      <point x="354" y="1397" type="curve" smooth="yes"/>
      <point x="403" y="1446"/>
      <point x="467" y="1470"/>
      <point x="548" y="1470" type="curve" smooth="yes"/>
      <point x="615" y="1470"/>
      <point x="662" y="1452"/>
      <point x="694" y="1432" type="curve"/>
      <point x="662" y="1334" type="line"/>
      <point x="622" y="1354"/>
      <point x="585" y="1362"/>
      <point x="550" y="1362" type="curve" smooth="yes"/>
      <point x="504" y="1362"/>
      <point x="466" y="1350"/>
      <point x="436" y="1325" type="curve" smooth="yes"/>
      <point x="405" y="1300"/>
      <point x="390" y="1255"/>
      <point x="390" y="1190" type="curve" smooth="yes"/>
      <point x="390" y="960" type="line"/>
      <point x="660" y="960" type="line"/>
      <point x="660" y="856" type="line"/>
      <point x="390" y="856" type="line"/>
      <point x="390" y="0" type="line"/>
    </contour>
    <contour>
      <point x="60" y="856" type="line"/>
      <point x="60" y="960" type="line"/>
      <point x="306" y="960" type="line"/>
      <point x="306" y="856" type="line"/>
    </contour>
  </outline>
</glyph>
<glyph name="g" format="2">
  <advance width="1168"/>
  <unicode hex="0067"/>
  <outline>
    <contour>
      <point x="552" y="-450" type="curve" smooth="yes"/>
      <point x="407" y="-450"/>
      <point x="294" y="-423"/>
      <point x="213" y="-372" type="curve" smooth="yes"/>
      <point x="134" y="-323"/>
      <point x="90" y="-253"/>
      <point x="90" y="-168" type="curve" smooth="yes"/>
      <point x="90" y="-131"/>
      <point x="99" y="-100"/>
      <point x="118" y="-68" type="curve"/>
      <point x="157" y="-8"/>
      <point x="232" y="35"/>
      <point x="344" y="58" type="curve"/>
      <point x="265" y="94"/>
      <point x="224" y="139"/>
      <point x="224" y="200" type="curve" smooth="yes"/>
      <point x="224" y="252"/>
      <point x="255" y="293"/>
      <point x="308" y="328" type="curve"/>
      <point x="364" y="363"/>
      <point x="439" y="387"/>
      <point x="532" y="398" type="curve"/>
      <point x="570" y="330" type="line"/>
      <point x="525" y="331"/>
      <point x="487" y="326"/>
      <point x="451" y="318" type="curve"/>
      <point x="383" y="299"/>
      <point x="340" y="269"/>
      <point x="340" y="224" type="curve" smooth="yes"/>
      <point x="340" y="195"/>
      <point x="357" y="175"/>
      <point x="390" y="163" type="curve"/>
      <point x="423" y="154"/>
      <point x="463" y="144"/>
      <point x="512" y="140" type="curve" smooth="yes"/>
      <point x="676" y="128" type="line"/>
      <point x="761" y="123"/>
      <point x="829" y="110"/>
      <point x="885" y="89" type="curve"/>
      <point x="998" y="49"/>
      <point x="1056" y="-22"/>
      <point x="1056" y="-130" type="curve" smooth="yes"/>
      <point x="1056" y="-218"/>
      <point x="1005" y="-298"/>
      <point x="916" y="-358" type="curve"/>
      <point x="827" y="-415"/>
      <point x="701" y="-450"/>
    </contour>
    <contour>
      <point x="550" y="-352" type="curve" smooth="yes"/>
      <point x="670" y="-352"/>
      <point x="764" y="-333"/>
      <point x="832" y="-294" type="curve" smooth="yes"/>
      <point x="900" y="-255"/>
      <point x="932" y="-206"/>
      <point x="932" y="-146" type="curve" smooth="yes"/>
      <point x="932" y="-53"/>
      <point x="837" y="-1"/>
      <point x="642" y="12" type="curve" smooth="yes"/>
      <point x="472" y="24" type="line"/>
      <point x="417" y="21"/>
      <point x="373" y="11"/>
      <point x="334" y="-4" type="curve" smooth="yes"/>
      <point x="255" y="-35"/>
      <point x="214" y="-87"/>
      <point x="214" y="-156" type="curve" smooth="yes"/>
      <point x="214" y="-195"/>
      <point x="228" y="-229"/>
      <point x="255" y="-258" type="curve" smooth="yes"/>
      <point x="310" y="-317"/>
      <point x="409" y="-352"/>
    </contour>
    <contour>
      <point x="550" y="310" type="curve" smooth="yes"/>
      <point x="475" y="310"/>
      <point x="408" y="325"/>
      <point x="344" y="356" type="curve" smooth="yes"/>
      <point x="219" y="417"/>
      <point x="140" y="522"/>
      <point x="140" y="650" type="curve" smooth="yes"/>
      <point x="140" y="714"/>
      <point x="158" y="771"/>
      <point x="197" y="823" type="curve" smooth="yes"/>
      <point x="272" y="926"/>
      <point x="399" y="990"/>
      <point x="550" y="990" type="curve" smooth="yes"/>
      <point x="627" y="990"/>
      <point x="695" y="976"/>
      <point x="756" y="945" type="curve"/>
      <point x="881" y="884"/>
      <point x="960" y="778"/>
      <point x="960" y="650" type="curve" smooth="yes"/>
      <point x="960" y="586"/>
      <point x="944" y="528"/>
      <point x="905" y="479" type="curve"/>
      <point x="830" y="375"/>
      <point x="703" y="310"/>
    </contour>
    <contour>
      <point x="550" y="418" type="curve" smooth="yes"/>
      <point x="609" y="418"/>
      <point x="658" y="428"/>
      <point x="699" y="447" type="curve" smooth="yes"/>
      <point x="784" y="486"/>
      <point x="834" y="559"/>
      <point x="834" y="650" type="curve" smooth="yes"/>
      <point x="834" y="719"/>
      <point x="809" y="777"/>
      <point x="756" y="818" type="curve"/>
      <point x="705" y="861"/>
      <point x="637" y="882"/>
      <point x="550" y="882" type="curve" smooth="yes"/>
      <point x="493" y="882"/>
      <point x="443" y="872"/>
      <point x="402" y="853" type="curve" smooth="yes"/>
      <point x="317" y="814"/>
      <point x="266" y="743"/>
      <point x="266" y="650" type="curve" smooth="yes"/>
      <point x="266" y="581"/>
      <point x="293" y="526"/>
      <point x="346" y="483" type="curve" smooth="yes"/>
      <point x="397" y="442"/>
      <point x="465" y="418"/>
    </contour>
    <contour>
      <point x="1100" y="856" type="line"/>
      <point x="1040" y="856" type="line" smooth="yes"/>
      <point x="934" y="856"/>
      <point x="838" y="870"/>
      <point x="686" y="906" type="curve"/>
      <point x="666" y="960" type="line"/>
      <point x="1122" y="960" type="line"/>
    </contour>
  </outline>
</glyph>
<glyph name="h" format="2">
  <advance width="1154"/>
  <unicode hex="0068"/>
  <anchor x="226" y="1440" name="top"/>
  <anchor x="342" y="1204" name="strokeshort"/>
  <outline>
    <contour>
      <point x="170" y="0" type="line"/>
      <point x="170" y="1440" type="line"/>
      <point x="282" y="1440" type="line"/>
      <point x="282" y="784" type="line"/>
      <point x="260" y="802" type="line"/>
      <point x="304" y="870"/>
      <point x="358" y="918"/>
      <point x="421" y="947" type="curve" smooth="yes"/>
      <point x="484" y="976"/>
      <point x="547" y="990"/>
      <point x="612" y="990" type="curve" smooth="yes"/>
      <point x="697" y="990"/>
      <point x="767" y="973"/>
      <point x="824" y="938" type="curve" smooth="yes"/>
      <point x="881" y="903"/>
      <point x="923" y="860"/>
      <point x="952" y="807" type="curve" smooth="yes"/>
      <point x="980" y="754"/>
      <point x="994" y="700"/>
      <point x="994" y="646" type="curve" smooth="yes"/>
      <point x="994" y="0" type="line"/>
      <point x="882" y="0" type="line"/>
      <point x="882" y="612" type="line" smooth="yes"/>
      <point x="882" y="692"/>
      <point x="856" y="757"/>
      <point x="803" y="807" type="curve" smooth="yes"/>
      <point x="750" y="857"/>
      <point x="680" y="882"/>
      <point x="592" y="882" type="curve" smooth="yes"/>
      <point x="535" y="882"/>
      <point x="483" y="869"/>
      <point x="436" y="843" type="curve" smooth="yes"/>
      <point x="342" y="791"/>
      <point x="282" y="694"/>
      <point x="282" y="570" type="curve" smooth="yes"/>
      <point x="282" y="0" type="line"/>
    </contour>
  </outline>
</glyph>
<glyph name="l" format="2">
  <advance width="587"/>
  <unicode hex="006C"/>
  <outline>
    <contour>
      <point x="384" y="-28" type="qcurve" smooth="yes"/>
      <point x="354" y="-28"/>
      <point x="299" y="-17"/>
      <point x="276" y="-6" type="qcurve"/>
      <point x="226" y="16"/>
      <point x="170" y="108"/>
      <point x="170" y="180" type="qcurve" smooth="yes"/>
      <point x="170" y="1440" type="line"/>
      <point x="282" y="1440" type="line"/>
      <point x="282" y="256" type="line" smooth="yes"/>
      <point x="282" y="207"/>
      <point x="296" y="139"/>
      <point x="308" y="119" type="qcurve"/>
      <point x="322" y="99"/>
      <point x="367" y="80"/>
      <point x="400" y="80" type="qcurve" smooth="yes"/>
      <point x="424" y="80"/>
      <point x="476" y="95"/>
      <point x="504" y="106" type="qcurve"/>
      <point x="536" y="6" type="line"/>
      <point x="500" y="-8"/>
      <point x="420" y="-28"/>
    </contour>
  </outline>
</glyph>
<glyph name="m" format="2">
  <advance width="1818"/>
  <unicode hex="006D"/>
  <outline>
    <contour>
      <point x="170" y="0" type="line"/>
      <point x="170" y="960" type="line"/>
      <point x="282" y="960" type="line"/>
      <point x="282" y="814" type="line"/>
      <point x="305" y="846"/>
      <point x="354" y="897"/>
      <point x="381" y="918" type="qcurve"/>
      <point x="434" y="955"/>
      <point x="551" y="990"/>
      <point x="612" y="990" type="qcurve" smooth="yes"/>
      <point x="679" y="990"/>
      <point x="784" y="962"/>
      <point x="824" y="934" type="qcurve" smooth="yes"/>
      <point x="864" y="907"/>
      <point x="920" y="838"/>
      <point x="938" y="798" type="qcurve"/>
      <point x="982" y="859"/>
      <point x="1072" y="935"/>
      <point x="1120" y="955" type="qcurve"/>
      <point x="1168" y="972"/>
      <point x="1258" y="990"/>
      <point x="1300" y="990" type="qcurve" smooth="yes"/>
      <point x="1364" y="990"/>
      <point x="1466" y="965"/>
      <point x="1506" y="938" type="qcurve"/>
      <point x="1546" y="913"/>
      <point x="1603" y="848"/>
      <point x="1623" y="807" type="qcurve"/>
      <point x="1640" y="768"/>
      <point x="1658" y="688"/>
      <point x="1658" y="646" type="qcurve" smooth="yes"/>
      <point x="1658" y="0" type="line"/>
      <point x="1546" y="0" type="line"/>
      <point x="1546" y="612" type="line" smooth="yes"/>
      <point x="1546" y="673"/>
      <point x="1513" y="770"/>
      <point x="1480" y="808" type="qcurve"/>
      <point x="1445" y="846"/>
      <point x="1347" y="882"/>
      <point x="1280" y="882" type="qcurve" smooth="yes"/>
      <point x="1238" y="882"/>
      <point x="1160" y="863"/>
      <point x="1124" y="843" type="qcurve" smooth="yes"/>
      <point x="1053" y="805"/>
      <point x="970" y="665"/>
      <point x="970" y="570" type="qcurve" smooth="yes"/>
      <point x="970" y="0" type="line"/>
      <point x="858" y="0" type="line"/>
      <point x="858" y="612" type="line" smooth="yes"/>
      <point x="858" y="673"/>
      <point x="825" y="770"/>
      <point x="792" y="808" type="qcurve"/>
      <point x="757" y="846"/>
      <point x="659" y="882"/>
      <point x="592" y="882" type="qcurve" smooth="yes"/>
      <point x="550" y="882"/>
      <point x="472" y="863"/>
      <point x="436" y="843" type="qcurve" smooth="yes"/>
      <point x="365" y="805"/>
      <point x="282" y="665"/>
      <point x="282" y="570" type="qcurve" smooth="yes"/>
      <point x="282" y="0" type="line"/>
    </contour>
  </outline>
</glyph>
<glyph name="n" format="2">
  <advance width="1154"/>
  <unicode hex="006E"/>
  <outline>
    <contour>
      <point x="170" y="0" type="line"/>
      <point x="170" y="960" type="line"/>
      <point x="282" y="960" type="line"/>
      <point x="282" y="816" type="line"/>
      <point x="348" y="909"/>
      <point x="523" y="990"/>
      <point x="612" y="990" type="qcurve" smooth="yes"/>
      <point x="677" y="990"/>
      <point x="782" y="965"/>
      <point x="824" y="938" type="qcurve"/>
      <point x="868" y="913"/>
      <point x="930" y="848"/>
      <point x="953" y="807" type="qcurve" smooth="yes"/>
      <point x="974" y="768"/>
      <point x="994" y="688"/>
      <point x="994" y="646" type="qcurve" smooth="yes"/>
      <point x="994" y="0" type="line"/>
      <point x="882" y="0" type="line"/>
      <point x="882" y="612" type="line" smooth="yes"/>
      <point x="882" y="672"/>
      <point x="843" y="770"/>
      <point x="804" y="807" type="qcurve" smooth="yes"/>
      <point x="764" y="846"/>
      <point x="659" y="882"/>
      <point x="592" y="882" type="qcurve" smooth="yes"/>
      <point x="550" y="882"/>
      <point x="472" y="863"/>
      <point x="436" y="844" type="qcurve"/>
      <point x="366" y="804"/>
      <point x="282" y="665"/>
      <point x="282" y="570" type="qcurve" smooth="yes"/>
      <point x="282" y="0" type="line"/>
    </contour>
  </outline>
</glyph>
<glyph name="o" format="2">
  <advance width="1172"/>
  <unicode hex="006F"/>
  <outline>
    <contour>
      <point x="586" y="-30" type="curve" smooth="yes"/>
      <point x="490" y="-30"/>
      <point x="403" y="-7"/>
      <point x="328" y="41" type="curve"/>
      <point x="249" y="86"/>
      <point x="191" y="149"/>
      <point x="147" y="225" type="curve" smooth="yes"/>
      <point x="102" y="304"/>
      <point x="80" y="388"/>
      <point x="80" y="480" type="curve" smooth="yes"/>
      <point x="80" y="620"/>
      <point x="134" y="745"/>
      <point x="226" y="841" type="curve" smooth="yes"/>
      <point x="317" y="934"/>
      <point x="441" y="990"/>
      <point x="586" y="990" type="curve" smooth="yes"/>
      <point x="685" y="990"/>
      <point x="768" y="969"/>
      <point x="847" y="921" type="curve" smooth="yes"/>
      <point x="922" y="876"/>
      <point x="983" y="814"/>
      <point x="1026" y="735" type="curve"/>
      <point x="1070" y="659"/>
      <point x="1092" y="575"/>
      <point x="1092" y="480" type="curve" smooth="yes"/>
      <point x="1092" y="340"/>
      <point x="1040" y="217"/>
      <point x="949" y="121" type="curve"/>
      <point x="857" y="28"/>
      <point x="733" y="-30"/>
    </contour>
    <contour>
      <point x="586" y="78" type="curve" smooth="yes"/>
      <point x="663" y="78"/>
      <point x="729" y="95"/>
      <point x="786" y="128" type="curve" smooth="yes"/>
      <point x="905" y="195"/>
      <point x="972" y="315"/>
      <point x="972" y="480" type="curve" smooth="yes"/>
      <point x="972" y="563"/>
      <point x="957" y="634"/>
      <point x="924" y="694" type="curve" smooth="yes"/>
      <point x="857" y="817"/>
      <point x="739" y="882"/>
      <point x="586" y="882" type="curve" smooth="yes"/>
      <point x="510" y="882"/>
      <point x="446" y="866"/>
      <point x="386" y="833" type="curve" smooth="yes"/>
      <point x="269" y="769"/>
      <point x="200" y="645"/>
      <point x="200" y="480" type="curve" smooth="yes"/>
      <point x="200" y="397"/>
      <point x="216" y="328"/>
      <point x="251" y="268" type="curve"/>
      <point x="318" y="145"/>
      <point x="435" y="78"/>
    </contour>
  </outline>
</glyph>
<glyph name="p" format="2">
  <advance width="1254"/>
  <unicode hex="0070"/>
  <outline>
    <contour>
      <point x="170" y="-420" type="line"/>
      <point x="282" y="-420" type="line"/>
      <point x="282" y="168" type="line"/>
      <point x="325" y="111"/>
      <point x="378" y="61"/>
      <point x="446" y="26" type="curve" smooth="yes"/>
      <point x="514" y="-9"/>
      <point x="595" y="-30"/>
      <point x="688" y="-30" type="curve" smooth="yes"/>
      <point x="833" y="-30"/>
      <point x="952" y="26"/>
      <point x="1040" y="122" type="curve" smooth="yes"/>
      <point x="1128" y="218"/>
      <point x="1174" y="340"/>
      <point x="1174" y="480" type="curve" smooth="yes"/>
      <point x="1174" y="576"/>
      <point x="1156" y="656"/>
      <point x="1113" y="736" type="curve" smooth="yes"/>
      <point x="1073" y="813"/>
      <point x="1017" y="874"/>
      <point x="944" y="922" type="curve"/>
      <point x="868" y="969"/>
      <point x="785" y="990"/>
      <point x="688" y="990" type="curve" smooth="yes"/>
      <point x="584" y="990"/>
      <point x="505" y="973"/>
      <point x="441" y="937" type="curve"/>
      <point x="377" y="898"/>
      <point x="326" y="855"/>
      <point x="282" y="798" type="curve"/>
      <point x="282" y="960" type="line"/>
      <point x="170" y="960" type="line"/>
    </contour>
    <contour>
      <point x="668" y="78" type="curve" smooth="yes"/>
      <point x="516" y="78"/>
      <point x="400" y="144"/>
      <point x="332" y="268" type="curve" smooth="yes"/>
      <point x="299" y="328"/>
      <point x="282" y="396"/>
      <point x="282" y="480" type="curve" smooth="yes"/>
      <point x="282" y="647"/>
      <point x="352" y="769"/>
      <point x="469" y="833" type="curve"/>
      <point x="526" y="866"/>
      <point x="592" y="882"/>
      <point x="668" y="882" type="curve" smooth="yes"/>
      <point x="821" y="882"/>
      <point x="938" y="818"/>
      <point x="1006" y="694" type="curve" smooth="yes"/>
      <point x="1039" y="634"/>
      <point x="1054" y="564"/>
      <point x="1054" y="480" type="curve" smooth="yes"/>
      <point x="1054" y="313"/>
      <point x="986" y="196"/>
      <point x="869" y="128" type="curve"/>
      <point x="809" y="95"/>
      <point x="744" y="78"/>
    </contour>
  </outline>
</glyph>
<glyph name="q" format="2">
  <advance width="1254"/>
  <unicode hex="0071"/>
  <outline>
    <contour>
      <point x="972" y="-420" type="line"/>
      <point x="972" y="218" type="line"/>
      <point x="990" y="194" type="line"/>
      <point x="958" y="145"/>
      <point x="875" y="65"/>
      <point x="824" y="33" type="qcurve" smooth="yes"/>
      <point x="772" y="1"/>
      <point x="643" y="-30"/>
      <point x="566" y="-30" type="qcurve" smooth="yes"/>
      <point x="494" y="-30"/>
      <point x="368" y="6"/>
      <point x="312" y="40" type="qcurve"/>
      <point x="258" y="76"/>
      <point x="173" y="168"/>
      <point x="141" y="225" type="qcurve"/>
      <point x="111" y="284"/>
      <point x="80" y="411"/>
      <point x="80" y="480" type="qcurve" smooth="yes"/>
      <point x="80" y="585"/>
      <point x="150" y="769"/>
      <point x="216" y="841" type="qcurve" smooth="yes"/>
      <point x="281" y="911"/>
      <point x="457" y="990"/>
      <point x="566" y="990" type="qcurve" smooth="yes"/>
      <point x="621" y="990"/>
      <point x="714" y="977"/>
      <point x="754" y="963" type="qcurve" smooth="yes"/>
      <point x="834" y="933"/>
      <point x="947" y="835"/>
      <point x="990" y="774" type="qcurve"/>
      <point x="972" y="748" type="line"/>
      <point x="972" y="960" type="line"/>
      <point x="1084" y="960" type="line"/>
      <point x="1084" y="-420" type="line"/>
    </contour>
    <contour>
      <point x="586" y="78" type="qcurve" smooth="yes"/>
      <point x="643" y="78"/>
      <point x="742" y="103"/>
      <point x="787" y="128" type="qcurve" smooth="yes"/>
      <point x="874" y="178"/>
      <point x="972" y="356"/>
      <point x="972" y="480" type="qcurve" smooth="yes"/>
      <point x="972" y="542"/>
      <point x="949" y="649"/>
      <point x="924" y="694" type="qcurve" smooth="yes"/>
      <point x="873" y="786"/>
      <point x="701" y="882"/>
      <point x="586" y="882" type="qcurve" smooth="yes"/>
      <point x="530" y="882"/>
      <point x="430" y="858"/>
      <point x="387" y="833" type="qcurve"/>
      <point x="299" y="785"/>
      <point x="200" y="604"/>
      <point x="200" y="480" type="qcurve" smooth="yes"/>
      <point x="200" y="418"/>
      <point x="225" y="313"/>
      <point x="250" y="268" type="qcurve" smooth="yes"/>
      <point x="300" y="176"/>
      <point x="473" y="78"/>
    </contour>
  </outline>
</glyph>
<glyph name="r" format="2">
  <advance width="756"/>
  <unicode hex="0072"/>
  <anchor x="442" y="960" name="top"/>
  <anchor x="226" y="0" name="bottom"/>
  <outline>
    <contour>
      <point x="170" y="0" type="line"/>
      <point x="170" y="960" type="line"/>
      <point x="282" y="960" type="line"/>
      <point x="282" y="806" type="line"/>
      <point x="326" y="876"/>
      <point x="376" y="924"/>
      <point x="432" y="951" type="curve" smooth="yes"/>
      <point x="488" y="977"/>
      <point x="547" y="990"/>
      <point x="610" y="990" type="curve" smooth="yes"/>
      <point x="645" y="990"/>
      <point x="683" y="988"/>
      <point x="716" y="980" type="curve"/>
      <point x="696" y="862" type="line"/>
      <point x="663" y="870"/>
      <point x="630" y="874"/>
      <point x="598" y="874" type="curve" smooth="yes"/>
      <point x="506" y="874"/>
      <point x="430" y="845"/>
      <point x="371" y="787" type="curve" smooth="yes"/>
      <point x="312" y="728"/>
      <point x="282" y="652"/>
      <point x="282" y="558" type="curve" smooth="yes"/>
      <point x="282" y="0" type="line"/>
    </contour>
  </outline>
</glyph>
<glyph name="s" format="2">
  <advance width="932"/>
  <unicode hex="0073"/>
  <outline>
    <contour>
      <point x="454" y="-30" type="qcurve" smooth="yes"/>
      <point x="402" y="-30"/>
      <point x="304" y="-12"/>
      <point x="255" y="6" type="qcurve" smooth="yes"/>
      <point x="206" y="23"/>
      <point x="128" y="66"/>
      <point x="98" y="94" type="qcurve"/>
      <point x="160" y="190" type="line"/>
      <point x="188" y="162"/>
      <point x="256" y="121"/>
      <point x="295" y="105" type="qcurve" smooth="yes"/>
      <point x="334" y="89"/>
      <point x="415" y="74"/>
      <point x="456" y="74" type="qcurve" smooth="yes"/>
      <point x="574" y="74"/>
      <point x="706" y="167"/>
      <point x="706" y="248" type="qcurve" smooth="yes"/>
      <point x="706" y="287"/>
      <point x="679" y="346"/>
      <point x="651" y="365" type="qcurve"/>
      <point x="621" y="384"/>
      <point x="520" y="423"/>
      <point x="444" y="442" type="qcurve" smooth="yes"/>
      <point x="360" y="464"/>
      <point x="240" y="517"/>
      <point x="203" y="550" type="qcurve"/>
      <point x="165" y="581"/>
      <point x="128" y="667"/>
      <point x="128" y="724" type="qcurve" smooth="yes"/>
      <point x="128" y="764"/>
      <point x="150" y="834"/>
      <point x="173" y="866" type="qcurve" smooth="yes"/>
      <point x="217" y="929"/>
      <point x="371" y="1000"/>
      <point x="470" y="1000" type="qcurve" smooth="yes"/>
      <point x="520" y="1000"/>
      <point x="613" y="985"/>
      <point x="655" y="972" type="qcurve"/>
      <point x="699" y="957"/>
      <point x="772" y="913"/>
      <point x="804" y="884" type="qcurve"/>
      <point x="746" y="786" type="line"/>
      <point x="731" y="804"/>
      <point x="693" y="833"/>
      <point x="671" y="845" type="qcurve" smooth="yes"/>
      <point x="626" y="870"/>
      <point x="522" y="896"/>
      <point x="466" y="896" type="qcurve" smooth="yes"/>
      <point x="415" y="896"/>
      <point x="335" y="874"/>
      <point x="302" y="852" type="qcurve" smooth="yes"/>
      <point x="271" y="831"/>
      <point x="238" y="769"/>
      <point x="238" y="730" type="qcurve" smooth="yes"/>
      <point x="238" y="689"/>
      <point x="271" y="630"/>
      <point x="303" y="611" type="qcurve" smooth="yes"/>
      <point x="334" y="592"/>
      <point x="434" y="558"/>
      <point x="502" y="540" type="qcurve"/>
      <point x="586" y="521"/>
      <point x="706" y="467"/>
      <point x="745" y="435" type="qcurve" smooth="yes"/>
      <point x="782" y="404"/>
      <point x="818" y="313"/>
      <point x="818" y="256" type="qcurve" smooth="yes"/>
      <point x="818" y="213"/>
      <point x="796" y="137"/>
      <point x="774" y="106" type="qcurve" smooth="yes"/>
      <point x="729" y="42"/>
      <point x="566" y="-30"/>
    </contour>
  </outline>
</glyph>
<glyph name="t" format="2">
  <advance width="820"/>
  <unicode hex="0074"/>
  <outline>
    <contour>
      <point x="554" y="-30" type="curve" smooth="yes"/>
      <point x="614" y="-30"/>
      <point x="674" y="-14"/>
      <point x="726" y="10" type="curve"/>
      <point x="690" y="108" type="line"/>
      <point x="659" y="93"/>
      <point x="615" y="80"/>
      <point x="566" y="80" type="curve" smooth="yes"/>
      <point x="506" y="80"/>
      <point x="464" y="98"/>
      <point x="436" y="133" type="curve"/>
      <point x="405" y="168"/>
      <point x="392" y="226"/>
      <point x="392" y="310" type="curve" smooth="yes"/>
      <point x="392" y="856" type="line"/>
      <point x="702" y="856" type="line"/>
      <point x="702" y="960" type="line"/>
      <point x="392" y="960" type="line"/>
      <point x="392" y="1246" type="line"/>
      <point x="280" y="1246" type="line"/>
      <point x="280" y="270" type="line" smooth="yes"/>
      <point x="280" y="166"/>
      <point x="307" y="90"/>
      <point x="358" y="42" type="curve" smooth="yes"/>
      <point x="409" y="-6"/>
      <point x="474" y="-30"/>
    </contour>
    <contour>
      <point x="42" y="856" type="line"/>
      <point x="306" y="856" type="line"/>
      <point x="306" y="960" type="line"/>
      <point x="42" y="960" type="line"/>
    </contour>
  </outline>
</glyph>
<glyph name="u" format="2">
  <advance width="1142"/>
  <unicode hex="0075"/>
  <anchor x="562" y="960" name="top"/>
  <anchor x="972" y="960" name="horn"/>
  <anchor x="554" y="0" name="bottom"/>
  <outline>
    <contour>
      <point x="534" y="-30" type="qcurve"/>
      <point x="408" y="-30"/>
      <point x="242" y="75"/>
      <point x="160" y="233"/>
      <point x="160" y="314" type="qcurve"/>
      <point x="160" y="960" type="line"/>
      <point x="272" y="960" type="line"/>
      <point x="272" y="348" type="line"/>
      <point x="272" y="228"/>
      <point x="424" y="78"/>
      <point x="554" y="78" type="qcurve"/>
      <point x="638" y="78"/>
      <point x="777" y="156"/>
      <point x="860" y="297"/>
      <point x="860" y="390" type="qcurve"/>
      <point x="860" y="960" type="line"/>
      <point x="972" y="960" type="line"/>
      <point x="972" y="0" type="line"/>
      <point x="860" y="0" type="line"/>
      <point x="860" y="126" type="line"/>
      <point x="793" y="42"/>
      <point x="624" y="-30"/>
    </contour>
  </outline>
</glyph>
<glyph name="y" format="2">
  <advance width="964"/>
  <unicode hex="0079"/>
  <outline>
    <contour>
      <point x="188" y="-450" type="curve" smooth="yes"/>
      <point x="139" y="-450"/>
      <point x="93" y="-438"/>
      <point x="33" y="-402" type="curve"/>
      <point x="62" y="-300" type="line"/>
      <point x="103" y="-329"/>
      <point x="153" y="-342"/>
      <point x="186" y="-342" type="curve" smooth="yes"/>
      <point x="243" y="-342"/>
      <point x="285" y="-327"/>
      <point x="313" y="-300" type="curve"/>
      <point x="341" y="-271"/>
      <point x="365" y="-228"/>
      <point x="384" y="-172" type="curve" smooth="yes"/>
      <point x="434" y="-28" type="line"/>
      <point x="50" y="960" type="line"/>
      <point x="176" y="960" type="line"/>
      <point x="498" y="124" type="line"/>
      <point x="812" y="960" type="line"/>
      <point x="932" y="960" type="line"/>
      <point x="500" y="-184" type="line" smooth="yes"/>
      <point x="473" y="-255"/>
      <point x="444" y="-312"/>
      <point x="415" y="-349" type="curve"/>
      <point x="352" y="-425"/>
      <point x="281" y="-450"/>
    </contour>
  </outline>
</glyph>
<glyph name="braceleft" format="2">
  <advance width="666"/>
  <unicode hex="007B"/>
  <outline>
    <contour>
      <point x="532" y="-224" type="line"/>
      <point x="429" y="-240"/>
      <point x="353" y="-228"/>
      <point x="303" y="-187" type="curve" smooth="yes"/>
      <point x="252" y="-146"/>
      <point x="232" y="-85"/>
      <point x="242" y="-4" type="curve" smooth="yes"/>
      <point x="304" y="478" type="line" smooth="yes"/>
      <point x="310" y="524"/>
      <point x="310" y="559"/>
      <point x="304" y="583" type="curve" smooth="yes"/>
      <point x="292" y="631"/>
      <point x="243" y="644"/>
      <point x="134" y="644" type="curve"/>
      <point x="134" y="740" type="line"/>
      <point x="189" y="740"/>
      <point x="229" y="744"/>
      <point x="256" y="753" type="curve" smooth="yes"/>
      <point x="308" y="769"/>
      <point x="316" y="813"/>
      <point x="304" y="904" type="curve" smooth="yes"/>
      <point x="244" y="1380" type="line" smooth="yes"/>
      <point x="234" y="1462"/>
      <point x="254" y="1524"/>
      <point x="305" y="1566" type="curve" smooth="yes"/>
      <point x="356" y="1607"/>
      <point x="431" y="1620"/>
      <point x="532" y="1604" type="curve"/>
      <point x="532" y="1508" type="line"/>
      <point x="388" y="1523"/>
      <point x="344" y="1481"/>
      <point x="356" y="1374" type="curve" smooth="yes"/>
      <point x="410" y="920" type="line" smooth="yes"/>
      <point x="429" y="776"/>
      <point x="394" y="712"/>
      <point x="286" y="692" type="curve"/>
      <point x="286" y="690" type="line"/>
      <point x="341" y="679"/>
      <point x="378" y="657"/>
      <point x="397" y="622" type="curve" smooth="yes"/>
      <point x="415" y="587"/>
      <point x="419" y="534"/>
      <point x="410" y="462" type="curve" smooth="yes"/>
      <point x="356" y="6" type="line" smooth="yes"/>
      <point x="350" y="-48"/>
      <point x="360" y="-86"/>
      <point x="385" y="-107" type="curve" smooth="yes"/>
      <point x="410" y="-128"/>
      <point x="459" y="-135"/>
      <point x="532" y="-128" type="curve"/>
    </contour>
  </outline>
</glyph>
<glyph name="braceright" format="2">
  <advance width="666"/>
  <unicode hex="007D"/>
  <outline>
    <contour>
      <point x="134" y="-128" type="line"/>
      <point x="189" y="-132"/>
      <point x="264" y="-123"/>
      <point x="283" y="-107" type="qcurve"/>
      <point x="302" y="-90"/>
      <point x="315" y="-34"/>
      <point x="310" y="6" type="qcurve" smooth="yes"/>
      <point x="256" y="462" type="line" smooth="yes"/>
      <point x="249" y="516"/>
      <point x="258" y="597"/>
      <point x="272" y="623" type="qcurve" smooth="yes"/>
      <point x="286" y="648"/>
      <point x="339" y="682"/>
      <point x="380" y="690" type="qcurve"/>
      <point x="380" y="692" type="line"/>
      <point x="299" y="707"/>
      <point x="244" y="813"/>
      <point x="256" y="920" type="qcurve"/>
      <point x="310" y="1374" type="line" smooth="yes"/>
      <point x="320" y="1455"/>
      <point x="243" y="1520"/>
      <point x="134" y="1508" type="qcurve"/>
      <point x="134" y="1604" type="line"/>
      <point x="210" y="1617"/>
      <point x="324" y="1597"/>
      <point x="362" y="1566" type="qcurve" smooth="yes"/>
      <point x="400" y="1535"/>
      <point x="430" y="1443"/>
      <point x="422" y="1380" type="qcurve" smooth="yes"/>
      <point x="362" y="904" type="line" smooth="yes"/>
      <point x="358" y="871"/>
      <point x="358" y="819"/>
      <point x="363" y="801" type="qcurve" smooth="yes"/>
      <point x="372" y="766"/>
      <point x="451" y="740"/>
      <point x="532" y="740" type="qcurve"/>
      <point x="532" y="644" type="line"/>
      <point x="490" y="644"/>
      <point x="431" y="638"/>
      <point x="411" y="632" type="qcurve" smooth="yes"/>
      <point x="372" y="620"/>
      <point x="354" y="548"/>
      <point x="362" y="478" type="qcurve"/>
      <point x="424" y="-4" type="line"/>
      <point x="433" y="-64"/>
      <point x="402" y="-155"/>
      <point x="365" y="-186" type="qcurve" smooth="yes"/>
      <point x="326" y="-217"/>
      <point x="212" y="-235"/>
      <point x="134" y="-224" type="qcurve"/>
    </contour>
  </outline>
</glyph>
<glyph name="asciitilde" format="2">
  <advance width="1296"/>
  <unicode hex="007E"/>
  <outline>
    <contour>
      <point x="870" y="540" type="qcurve"/>
      <point x="811" y="540"/>
      <point x="691" y="585"/>
      <point x="575" y="643"/>
      <point x="470" y="688"/>
      <point x="426" y="688" type="qcurve"/>
      <point x="372" y="688"/>
      <point x="265" y="619"/>
      <point x="224" y="560" type="qcurve"/>
      <point x="166" y="628" type="line"/>
      <point x="220" y="708"/>
      <point x="354" y="784"/>
      <point x="426" y="784" type="qcurve"/>
      <point x="487" y="784"/>
      <point x="607" y="739"/>
      <point x="721" y="681"/>
      <point x="825" y="636"/>
      <point x="870" y="636" type="qcurve"/>
      <point x="924" y="636"/>
      <point x="1032" y="706"/>
      <point x="1072" y="772" type="qcurve"/>
      <point x="1128" y="694" type="line"/>
      <point x="1073" y="613"/>
      <point x="939" y="540"/>
    </contour>
  </outline>
</glyph>
<glyph name="exclamdown" format="2">
  <advance width="640"/>
  <unicode hex="00A1"/>
  <outline>
    <contour>
      <point x="240" y="-430" type="line"/>
      <point x="260" y="530" type="line"/>
      <point x="360" y="530" type="line"/>
      <point x="380" y="-430" type="line"/>
    </contour>
    <contour>
      <point x="310" y="792" type="curve" smooth="yes"/>
      <point x="279" y="792"/>
      <point x="253" y="802"/>
      <point x="232" y="822" type="curve" smooth="yes"/>
      <point x="211" y="841"/>
      <point x="200" y="866"/>
      <point x="200" y="896" type="curve" smooth="yes"/>
      <point x="200" y="916"/>
      <point x="205" y="934"/>
      <point x="215" y="950" type="curve" smooth="yes"/>
      <point x="234" y="981"/>
      <point x="269" y="1000"/>
      <point x="310" y="1000" type="curve" smooth="yes"/>
      <point x="341" y="1000"/>
      <point x="368" y="990"/>
      <point x="389" y="971" type="curve" smooth="yes"/>
      <point x="410" y="951"/>
      <point x="420" y="926"/>
      <point x="420" y="896" type="curve" smooth="yes"/>
      <point x="420" y="876"/>
      <point x="415" y="858"/>
      <point x="406" y="843" type="curve" smooth="yes"/>
      <point x="386" y="811"/>
      <point x="351" y="792"/>
    </contour>
  </outline>
</glyph>
<glyph name="cent" format="2">
  <advance width="1296"/>
  <unicode hex="00A2"/>
  <outline>
    <contour>
      <point x="648" y="-160" type="line"/>
      <point x="648" y="4" type="line"/>
      <point x="567" y="13"/>
      <point x="494" y="39"/>
      <point x="430" y="81" type="curve" smooth="yes"/>
      <point x="302" y="165"/>
      <point x="224" y="304"/>
      <point x="224" y="480" type="curve" smooth="yes"/>
      <point x="224" y="567"/>
      <point x="243" y="645"/>
      <point x="280" y="712" type="curve" smooth="yes"/>
      <point x="354" y="846"/>
      <point x="487" y="931"/>
      <point x="648" y="954" type="curve"/>
      <point x="648" y="1120" type="line"/>
      <point x="748" y="1120" type="line"/>
      <point x="748" y="960" type="line"/>
      <point x="800" y="958"/>
      <point x="848" y="950"/>
      <point x="892" y="935" type="curve" smooth="yes"/>
      <point x="936" y="920"/>
      <point x="979" y="896"/>
      <point x="1022" y="864" type="curve"/>
      <point x="950" y="792" type="line"/>
      <point x="897" y="832"/>
      <point x="828" y="858"/>
      <point x="748" y="862" type="curve"/>
      <point x="748" y="100" type="line"/>
      <point x="839" y="108"/>
      <point x="920" y="147"/>
      <point x="964" y="192" type="curve"/>
      <point x="1042" y="124" type="line"/>
      <point x="954" y="52"/>
      <point x="860" y="10"/>
      <point x="748" y="2" type="curve"/>
      <point x="748" y="-160" type="line"/>
    </contour>
    <contour>
      <point x="648" y="860" type="line"/>
      <point x="581" y="851"/>
      <point x="524" y="831"/>
      <point x="477" y="800" type="curve" smooth="yes"/>
      <point x="381" y="736"/>
      <point x="328" y="629"/>
      <point x="328" y="482" type="curve" smooth="yes"/>
      <point x="328" y="371"/>
      <point x="356" y="284"/>
      <point x="413" y="219" type="curve" smooth="yes"/>
      <point x="470" y="154"/>
      <point x="548" y="115"/>
      <point x="648" y="102" type="curve"/>
    </contour>
  </outline>
</glyph>
<glyph name="sterling" format="2">
  <advance width="1200"/>
  <unicode hex="00A3"/>
  <outline>
    <contour>
      <point x="183" y="0" type="line"/>
      <point x="1072" y="0" type="line"/>
      <point x="1072" y="104" type="line"/>
      <point x="378" y="104" type="line"/>
      <point x="491" y="180"/>
      <point x="553" y="268"/>
      <point x="553" y="416" type="curve" smooth="yes"/>
      <point x="553" y="516"/>
      <point x="522" y="623"/>
      <point x="485" y="733" type="curve" smooth="yes"/>
      <point x="451" y="840"/>
      <point x="419" y="947"/>
      <point x="419" y="1048" type="curve" smooth="yes"/>
      <point x="419" y="1129"/>
      <point x="440" y="1191"/>
      <point x="487" y="1246" type="curve" smooth="yes"/>
      <point x="532" y="1299"/>
      <point x="601" y="1324"/>
      <point x="694" y="1324" type="curve" smooth="yes"/>
      <point x="802" y="1324"/>
      <point x="895" y="1292"/>
      <point x="979" y="1215" type="curve"/>
      <point x="1035" y="1307" type="line"/>
      <point x="943" y="1391"/>
      <point x="821" y="1430"/>
      <point x="698" y="1430" type="curve" smooth="yes"/>
      <point x="541" y="1430"/>
      <point x="418" y="1370"/>
      <point x="352" y="1257" type="curve"/>
      <point x="317" y="1200"/>
      <point x="299" y="1137"/>
      <point x="299" y="1062" type="curve" smooth="yes"/>
      <point x="299" y="959"/>
      <point x="336" y="833"/>
      <point x="375" y="739" type="curve"/>
      <point x="393" y="687"/>
      <point x="412" y="633"/>
      <point x="426" y="584" type="curve" smooth="yes"/>
      <point x="441" y="533"/>
      <point x="447" y="480"/>
      <point x="447" y="426" type="curve" smooth="yes"/>
      <point x="447" y="327"/>
      <point x="416" y="259"/>
      <point x="366" y="209" type="curve" smooth="yes"/>
      <point x="319" y="162"/>
      <point x="255" y="129"/>
      <point x="183" y="102" type="curve"/>
    </contour>
    <contour>
      <point x="163" y="638" type="line"/>
      <point x="947" y="638" type="line"/>
      <point x="947" y="738" type="line"/>
      <point x="163" y="738" type="line"/>
    </contour>
  </outline>
</glyph>
<glyph name="currency" format="2">
  <advance width="1200"/>
  <unicode hex="00A4"/>
  <outline>
    <contour>
      <point x="241" y="151" type="line"/>
      <point x="382" y="304" type="line"/>
      <point x="447" y="250"/>
      <point x="517" y="226"/>
      <point x="600" y="226" type="curve" smooth="yes"/>
      <point x="678" y="226"/>
      <point x="753" y="248"/>
      <point x="818" y="304" type="curve"/>
      <point x="959" y="151" type="line"/>
      <point x="1033" y="230" type="line"/>
      <point x="894" y="384" type="line"/>
      <point x="946" y="455"/>
      <point x="971" y="537"/>
      <point x="971" y="620" type="curve" smooth="yes"/>
      <point x="971" y="707"/>
      <point x="946" y="789"/>
      <point x="894" y="860" type="curve"/>
      <point x="1033" y="1010" type="line"/>
      <point x="959" y="1091" type="line"/>
      <point x="818" y="938" type="line"/>
      <point x="757" y="993"/>
      <point x="683" y="1016"/>
      <point x="600" y="1016" type="curve" smooth="yes"/>
      <point x="522" y="1016"/>
      <point x="447" y="998"/>
      <point x="382" y="938" type="curve"/>
      <point x="241" y="1091" type="line"/>
      <point x="167" y="1010" type="line"/>
      <point x="307" y="860" type="line"/>
      <point x="258" y="790"/>
      <point x="231" y="707"/>
      <point x="231" y="620" type="curve" smooth="yes"/>
      <point x="231" y="537"/>
      <point x="254" y="457"/>
      <point x="307" y="384" type="curve"/>
      <point x="167" y="230" type="line"/>
    </contour>
    <contour>
      <point x="600" y="326" type="curve" smooth="yes"/>
      <point x="499" y="326"/>
      <point x="415" y="382"/>
      <point x="370" y="471" type="curve"/>
      <point x="344" y="514"/>
      <point x="334" y="563"/>
      <point x="334" y="620" type="curve" smooth="yes"/>
      <point x="334" y="791"/>
      <point x="444" y="916"/>
      <point x="600" y="916" type="curve" smooth="yes"/>
      <point x="957" y="916"/>
      <point x="953" y="326"/>
    </contour>
  </outline>
</glyph>
<glyph name="yen" format="2">
  <advance width="1200"/>
  <unicode hex="00A5"/>
  <outline>
    <contour>
      <point x="542" y="0" type="line"/>
      <point x="658" y="0" type="line"/>
      <point x="658" y="318" type="line"/>
      <point x="1021" y="318" type="line"/>
      <point x="1021" y="418" type="line"/>
      <point x="658" y="418" type="line"/>
      <point x="658" y="626" type="line"/>
      <point x="1021" y="626" type="line"/>
      <point x="1021" y="726" type="line"/>
      <point x="723" y="726" type="line"/>
      <point x="1108" y="1400" type="line"/>
      <point x="985" y="1400" type="line"/>
      <point x="598" y="737" type="line"/>
      <point x="221" y="1400" type="line"/>
      <point x="92" y="1400" type="line"/>
      <point x="479" y="726" type="line"/>
      <point x="180" y="726" type="line"/>
      <point x="180" y="626" type="line"/>
      <point x="542" y="626" type="line"/>
      <point x="542" y="418" type="line"/>
      <point x="180" y="418" type="line"/>
      <point x="180" y="318" type="line"/>
      <point x="542" y="318" type="line"/>
    </contour>
  </outline>
</glyph>
<glyph name="section" format="2">
  <advance width="1224"/>
  <unicode hex="00A7"/>
  <outline>
    <contour>
      <point x="594" y="-450" type="qcurve"/>
      <point x="465" y="-450"/>
      <point x="237" y="-359"/>
      <point x="172" y="-296" type="qcurve"/>
      <point x="242" y="-200" type="line"/>
      <point x="311" y="-273"/>
      <point x="502" y="-346"/>
      <point x="598" y="-346" type="qcurve"/>
      <point x="742" y="-346"/>
      <point x="916" y="-223"/>
      <point x="916" y="-112" type="qcurve"/>
      <point x="916" y="-45"/>
      <point x="856" y="41"/>
      <point x="711" y="107"/>
      <point x="584" y="144" type="qcurve"/>
      <point x="449" y="183"/>
      <point x="276" y="285"/>
      <point x="192" y="424"/>
      <point x="192" y="520" type="qcurve"/>
      <point x="192" y="594"/>
      <point x="260" y="717"/>
      <point x="380" y="807"/>
      <point x="537" y="854"/>
      <point x="626" y="852" type="qcurve"/>
      <point x="616" y="764" type="line"/>
      <point x="526" y="765"/>
      <point x="381" y="704"/>
      <point x="296" y="594"/>
      <point x="296" y="522" type="qcurve"/>
      <point x="296" y="404"/>
      <point x="480" y="290"/>
      <point x="648" y="246" type="qcurve"/>
      <point x="839" y="197"/>
      <point x="1026" y="45"/>
      <point x="1026" y="-98" type="qcurve"/>
      <point x="1026" y="-205"/>
      <point x="918" y="-363"/>
      <point x="723" y="-450"/>
    </contour>
    <contour>
      <point x="628" y="222" type="line"/>
      <point x="726" y="222"/>
      <point x="879" y="291"/>
      <point x="966" y="417"/>
      <point x="966" y="504" type="qcurve"/>
      <point x="966" y="572"/>
      <point x="899" y="658"/>
      <point x="745" y="722"/>
      <point x="616" y="758" type="qcurve"/>
      <point x="418" y="814"/>
      <point x="244" y="968"/>
      <point x="244" y="1100" type="qcurve"/>
      <point x="244" y="1193"/>
      <point x="347" y="1343"/>
      <point x="527" y="1430"/>
      <point x="644" y="1430" type="qcurve"/>
      <point x="763" y="1430"/>
      <point x="962" y="1357"/>
      <point x="1038" y="1288" type="qcurve"/>
      <point x="976" y="1188" type="line"/>
      <point x="933" y="1234"/>
      <point x="823" y="1296"/>
      <point x="697" y="1328"/>
      <point x="630" y="1328" type="qcurve"/>
      <point x="504" y="1328"/>
      <point x="346" y="1211"/>
      <point x="346" y="1112" type="qcurve"/>
      <point x="346" y="1035"/>
      <point x="423" y="946"/>
      <point x="575" y="888"/>
      <point x="688" y="858" type="qcurve"/>
      <point x="874" y="809"/>
      <point x="1080" y="652"/>
      <point x="1080" y="512" type="qcurve"/>
      <point x="1080" y="398"/>
      <point x="961" y="228"/>
      <point x="756" y="134"/>
      <point x="626" y="134" type="qcurve"/>
    </contour>
  </outline>
</glyph>
<glyph name="copyright" format="2">
  <advance width="1676"/>
  <unicode hex="00A9"/>
  <outline>
    <contour>
      <point x="838" y="-30" type="qcurve"/>
      <point x="679" y="-30"/>
      <point x="410" y="81"/>
      <point x="210" y="280"/>
      <point x="100" y="546"/>
      <point x="100" y="700" type="qcurve"/>
      <point x="100" y="856"/>
      <point x="211" y="1122"/>
      <point x="411" y="1320"/>
      <point x="680" y="1430"/>
      <point x="838" y="1430" type="qcurve"/>
      <point x="996" y="1430"/>
      <point x="1264" y="1318"/>
      <point x="1465" y="1118"/>
      <point x="1576" y="853"/>
      <point x="1576" y="700" type="qcurve"/>
      <point x="1576" y="545"/>
      <point x="1465" y="279"/>
      <point x="1264" y="81"/>
      <point x="996" y="-30"/>
    </contour>
    <contour>
      <point x="838" y="56" type="qcurve"/>
      <point x="965" y="56"/>
      <point x="1196" y="147"/>
      <point x="1377" y="318"/>
      <point x="1482" y="555"/>
      <point x="1482" y="700" type="qcurve"/>
      <point x="1482" y="846"/>
      <point x="1377" y="1082"/>
      <point x="1196" y="1253"/>
      <point x="965" y="1344"/>
      <point x="838" y="1344" type="qcurve"/>
      <point x="711" y="1344"/>
      <point x="480" y="1253"/>
      <point x="299" y="1082"/>
      <point x="194" y="846"/>
      <point x="194" y="700" type="qcurve"/>
      <point x="194" y="555"/>
      <point x="299" y="318"/>
      <point x="480" y="147"/>
      <point x="711" y="56"/>
    </contour>
    <contour>
      <point x="862" y="292" type="qcurve"/>
      <point x="736" y="292"/>
      <point x="548" y="393"/>
      <point x="444" y="577"/>
      <point x="444" y="700" type="qcurve"/>
      <point x="444" y="818"/>
      <point x="551" y="1002"/>
      <point x="740" y="1108"/>
      <point x="862" y="1108" type="qcurve"/>
      <point x="952" y="1108"/>
      <point x="1086" y="1065"/>
      <point x="1134" y="1026" type="qcurve"/>
      <point x="1078" y="940" type="line"/>
      <point x="1038" y="975"/>
      <point x="933" y="1008"/>
      <point x="870" y="1008" type="qcurve"/>
      <point x="726" y="1008"/>
      <point x="552" y="843"/>
      <point x="552" y="700" type="qcurve"/>
      <point x="552" y="555"/>
      <point x="728" y="392"/>
      <point x="878" y="392" type="qcurve"/>
      <point x="937" y="392"/>
      <point x="1056" y="427"/>
      <point x="1110" y="470" type="qcurve"/>
      <point x="1158" y="382" type="line"/>
      <point x="1098" y="337"/>
      <point x="952" y="292"/>
    </contour>
  </outline>
</glyph>
<glyph name="ordfeminine" format="2">
  <advance width="770"/>
  <unicode hex="00AA"/>
  <outline>
    <contour>
      <point x="318" y="702" type="curve" smooth="yes"/>
      <point x="414" y="702"/>
      <point x="501" y="734"/>
      <point x="548" y="802" type="curve"/>
      <point x="548" y="722" type="line"/>
      <point x="646" y="722" type="line"/>
      <point x="646" y="1138" type="line" smooth="yes"/>
      <point x="646" y="1219"/>
      <point x="624" y="1278"/>
      <point x="576" y="1319" type="curve" smooth="yes"/>
      <point x="529" y="1360"/>
      <point x="462" y="1380"/>
      <point x="370" y="1380" type="curve" smooth="yes"/>
      <point x="326" y="1380"/>
      <point x="284" y="1375"/>
      <point x="243" y="1362" type="curve" smooth="yes"/>
      <point x="200" y="1349"/>
      <point x="164" y="1332"/>
      <point x="129" y="1307" type="curve"/>
      <point x="162" y="1226" type="line"/>
      <point x="223" y="1270"/>
      <point x="288" y="1290"/>
      <point x="360" y="1290" type="curve" smooth="yes"/>
      <point x="421" y="1290"/>
      <point x="466" y="1276"/>
      <point x="498" y="1251" type="curve"/>
      <point x="529" y="1223"/>
      <point x="544" y="1185"/>
      <point x="544" y="1138" type="curve" smooth="yes"/>
      <point x="544" y="954" type="line" smooth="yes"/>
      <point x="544" y="909"/>
      <point x="525" y="869"/>
      <point x="486" y="837" type="curve" smooth="yes"/>
      <point x="447" y="806"/>
      <point x="400" y="790"/>
      <point x="340" y="790" type="curve" smooth="yes"/>
      <point x="248" y="790"/>
      <point x="190" y="832"/>
      <point x="190" y="904" type="curve" smooth="yes"/>
      <point x="190" y="965"/>
      <point x="237" y="1007"/>
      <point x="354" y="1023" type="curve"/>
      <point x="411" y="1028"/>
      <point x="488" y="1026"/>
      <point x="580" y="1014" type="curve"/>
      <point x="576" y="1094" type="line"/>
      <point x="343" y="1118"/>
      <point x="203" y="1085"/>
      <point x="140" y="1018" type="curve" smooth="yes"/>
      <point x="109" y="985"/>
      <point x="92" y="947"/>
      <point x="92" y="902" type="curve" smooth="yes"/>
      <point x="92" y="841"/>
      <point x="114" y="793"/>
      <point x="154" y="757" type="curve"/>
      <point x="197" y="721"/>
      <point x="250" y="702"/>
    </contour>
  </outline>
</glyph>
<glyph name="guillemetleft" format="2">
  <advance width="956"/>
  <unicode hex="00AB"/>
  <outline>
    <contour>
      <point x="781" y="110" type="line"/>
      <point x="440" y="498" type="line"/>
      <point x="781" y="886" type="line"/>
      <point x="848" y="827" type="line"/>
      <point x="564" y="498" type="line"/>
      <point x="848" y="169" type="line"/>
    </contour>
    <contour>
      <point x="401" y="110" type="line"/>
      <point x="60" y="498" type="line"/>
      <point x="401" y="886" type="line"/>
      <point x="468" y="827" type="line"/>
      <point x="184" y="498" type="line"/>
      <point x="468" y="169" type="line"/>
    </contour>
  </outline>
</glyph>
<glyph name="guillemotleft" format="2">
  <advance width="956"/>
  <unicode hex="00AB"/>
  <outline>
    <contour>
      <point x="781" y="111" type="line"/>
      <point x="849" y="169" type="line"/>
      <point x="564" y="498" type="line"/>
      <point x="848" y="827" type="line"/>
      <point x="781" y="886" type="line"/>
      <point x="440" y="498" type="line"/>
    </contour>
    <contour>
      <point x="401" y="111" type="line"/>
      <point x="469" y="169" type="line"/>
      <point x="184" y="498" type="line"/>
      <point x="468" y="827" type="line"/>
      <point x="401" y="886" type="line"/>
      <point x="60" y="498" type="line"/>
    </contour>
  </outline>
</glyph>
<glyph name="registered" format="2">
  <advance width="1228"/>
  <unicode hex="00AE"/>
  <outline>
    <contour>
      <point x="614" y="478" type="curve" smooth="yes"/>
      <point x="514" y="478"/>
      <point x="426" y="501"/>
      <point x="346" y="546" type="curve" smooth="yes"/>
      <point x="266" y="591"/>
      <point x="205" y="652"/>
      <point x="158" y="729" type="curve"/>
      <point x="114" y="806"/>
      <point x="90" y="891"/>
      <point x="90" y="988" type="curve" smooth="yes"/>
      <point x="90" y="1085"/>
      <point x="113" y="1174"/>
      <point x="160" y="1251" type="curve" smooth="yes"/>
      <point x="207" y="1328"/>
      <point x="268" y="1388"/>
      <point x="348" y="1433" type="curve" smooth="yes"/>
      <point x="428" y="1478"/>
      <point x="514" y="1500"/>
      <point x="614" y="1500" type="curve" smooth="yes"/>
      <point x="715" y="1500"/>
      <point x="803" y="1477"/>
      <point x="880" y="1432" type="curve" smooth="yes"/>
      <point x="960" y="1385"/>
      <point x="1022" y="1325"/>
      <point x="1069" y="1248" type="curve" smooth="yes"/>
      <point x="1116" y="1168"/>
      <point x="1138" y="1084"/>
      <point x="1138" y="988" type="curve" smooth="yes"/>
      <point x="1138" y="891"/>
      <point x="1116" y="806"/>
      <point x="1069" y="729" type="curve" smooth="yes"/>
      <point x="1022" y="652"/>
      <point x="962" y="591"/>
      <point x="882" y="546" type="curve" smooth="yes"/>
      <point x="802" y="501"/>
      <point x="713" y="478"/>
    </contour>
    <contour>
      <point x="614" y="544" type="curve" smooth="yes"/>
      <point x="695" y="544"/>
      <point x="768" y="563"/>
      <point x="835" y="600" type="curve" smooth="yes"/>
      <point x="904" y="637"/>
      <point x="958" y="687"/>
      <point x="1002" y="756" type="curve" smooth="yes"/>
      <point x="1045" y="824"/>
      <point x="1064" y="899"/>
      <point x="1064" y="988" type="curve" smooth="yes"/>
      <point x="1064" y="1077"/>
      <point x="1045" y="1155"/>
      <point x="1001" y="1223" type="curve"/>
      <point x="960" y="1292"/>
      <point x="905" y="1342"/>
      <point x="836" y="1379" type="curve" smooth="yes"/>
      <point x="767" y="1416"/>
      <point x="695" y="1434"/>
      <point x="614" y="1434" type="curve" smooth="yes"/>
      <point x="535" y="1434"/>
      <point x="462" y="1416"/>
      <point x="393" y="1379" type="curve" smooth="yes"/>
      <point x="324" y="1342"/>
      <point x="271" y="1292"/>
      <point x="227" y="1223" type="curve" smooth="yes"/>
      <point x="183" y="1155"/>
      <point x="164" y="1077"/>
      <point x="164" y="988" type="curve" smooth="yes"/>
      <point x="164" y="899"/>
      <point x="186" y="824"/>
      <point x="227" y="756" type="curve" smooth="yes"/>
      <point x="270" y="687"/>
      <point x="325" y="637"/>
      <point x="392" y="600" type="curve" smooth="yes"/>
      <point x="461" y="563"/>
      <point x="535" y="544"/>
    </contour>
    <contour>
      <point x="432" y="714" type="line"/>
      <point x="432" y="1262" type="line"/>
      <point x="646" y="1262" type="line" smooth="yes"/>
      <point x="703" y="1262"/>
      <point x="751" y="1249"/>
      <point x="786" y="1220" type="curve" smooth="yes"/>
      <point x="821" y="1191"/>
      <point x="838" y="1151"/>
      <point x="838" y="1100" type="curve" smooth="yes"/>
      <point x="838" y="1020"/>
      <point x="778" y="965"/>
      <point x="686" y="950" type="curve"/>
      <point x="864" y="714" type="line"/>
      <point x="766" y="714" type="line"/>
      <point x="598" y="938" type="line"/>
      <point x="512" y="938" type="line"/>
      <point x="512" y="714" type="line"/>
    </contour>
    <contour>
      <point x="512" y="1006" type="line"/>
      <point x="630" y="1006" type="line" smooth="yes"/>
      <point x="710" y="1006"/>
      <point x="754" y="1042"/>
      <point x="754" y="1098" type="curve" smooth="yes"/>
      <point x="754" y="1159"/>
      <point x="719" y="1194"/>
      <point x="638" y="1194" type="curve" smooth="yes"/>
      <point x="512" y="1194" type="line"/>
    </contour>
  </outline>
</glyph>
<glyph name="degree" format="2">
  <advance width="926"/>
  <unicode hex="00B0"/>
  <outline>
    <contour>
      <point x="464" y="710" type="curve" smooth="yes"/>
      <point x="397" y="710"/>
      <point x="337" y="726"/>
      <point x="282" y="758" type="curve" smooth="yes"/>
      <point x="227" y="790"/>
      <point x="183" y="833"/>
      <point x="150" y="887" type="curve" smooth="yes"/>
      <point x="117" y="941"/>
      <point x="100" y="1001"/>
      <point x="100" y="1066" type="curve" smooth="yes"/>
      <point x="100" y="1131"/>
      <point x="117" y="1190"/>
      <point x="150" y="1244" type="curve" smooth="yes"/>
      <point x="183" y="1297"/>
      <point x="227" y="1340"/>
      <point x="282" y="1372" type="curve" smooth="yes"/>
      <point x="337" y="1404"/>
      <point x="397" y="1420"/>
      <point x="464" y="1420" type="curve" smooth="yes"/>
      <point x="531" y="1420"/>
      <point x="591" y="1404"/>
      <point x="646" y="1372" type="curve" smooth="yes"/>
      <point x="701" y="1340"/>
      <point x="744" y="1297"/>
      <point x="777" y="1244" type="curve" smooth="yes"/>
      <point x="810" y="1190"/>
      <point x="826" y="1131"/>
      <point x="826" y="1066" type="curve" smooth="yes"/>
      <point x="826" y="1001"/>
      <point x="810" y="941"/>
      <point x="777" y="887" type="curve" smooth="yes"/>
      <point x="712" y="779"/>
      <point x="597" y="710"/>
    </contour>
    <contour>
      <point x="464" y="806" type="curve" smooth="yes"/>
      <point x="517" y="806"/>
      <point x="563" y="817"/>
      <point x="602" y="839" type="curve" smooth="yes"/>
      <point x="681" y="882"/>
      <point x="726" y="962"/>
      <point x="726" y="1066" type="curve" smooth="yes"/>
      <point x="726" y="1144"/>
      <point x="702" y="1207"/>
      <point x="655" y="1254" type="curve" smooth="yes"/>
      <point x="607" y="1301"/>
      <point x="543" y="1324"/>
      <point x="464" y="1324" type="curve" smooth="yes"/>
      <point x="412" y="1324"/>
      <point x="366" y="1313"/>
      <point x="327" y="1291" type="curve" smooth="yes"/>
      <point x="247" y="1247"/>
      <point x="200" y="1167"/>
      <point x="200" y="1066" type="curve" smooth="yes"/>
      <point x="200" y="990"/>
      <point x="225" y="928"/>
      <point x="274" y="879" type="curve" smooth="yes"/>
      <point x="323" y="830"/>
      <point x="386" y="806"/>
    </contour>
  </outline>
</glyph>
<glyph name="twosuperior" format="2">
  <advance width="857"/>
  <unicode hex="00B2"/>
  <outline>
    <contour>
      <point x="112" y="1394" type="curve"/>
      <point x="208" y="1359" type="line"/>
      <point x="227" y="1412"/>
      <point x="250" y="1461"/>
      <point x="284" y="1497" type="curve" smooth="yes"/>
      <point x="318" y="1533"/>
      <point x="361" y="1555"/>
      <point x="417" y="1555" type="curve" smooth="yes"/>
      <point x="484" y="1555"/>
      <point x="533" y="1538"/>
      <point x="565" y="1507" type="curve" smooth="yes"/>
      <point x="597" y="1475"/>
      <point x="613" y="1429"/>
      <point x="613" y="1373" type="curve" smooth="yes"/>
      <point x="613" y="1317"/>
      <point x="596" y="1262"/>
      <point x="558" y="1203" type="curve" smooth="yes"/>
      <point x="520" y="1144"/>
      <point x="462" y="1083"/>
      <point x="382" y="1018" type="curve" smooth="yes"/>
      <point x="97" y="781" type="line"/>
      <point x="97" y="703" type="line"/>
      <point x="733" y="703" type="line"/>
      <point x="733" y="791" type="line"/>
      <point x="233" y="791" type="line"/>
      <point x="428" y="948" type="line" smooth="yes"/>
      <point x="527" y="1028"/>
      <point x="598" y="1100"/>
      <point x="644" y="1169" type="curve" smooth="yes"/>
      <point x="690" y="1237"/>
      <point x="710" y="1305"/>
      <point x="710" y="1374" type="curve" smooth="yes"/>
      <point x="710" y="1454"/>
      <point x="683" y="1522"/>
      <point x="635" y="1569" type="curve" smooth="yes"/>
      <point x="586" y="1616"/>
      <point x="513" y="1643"/>
      <point x="421" y="1643" type="curve" smooth="yes"/>
      <point x="340" y="1643"/>
      <point x="276" y="1615"/>
      <point x="225" y="1571" type="curve" smooth="yes"/>
      <point x="173" y="1526"/>
      <point x="137" y="1463"/>
    </contour>
  </outline>
</glyph>
<glyph name="threesuperior" format="2">
  <advance width="816"/>
  <unicode hex="00B3"/>
  <outline>
    <contour>
      <point x="372" y="702" type="qcurve" smooth="yes"/>
      <point x="327" y="702"/>
      <point x="245" y="716"/>
      <point x="206" y="728" type="qcurve"/>
      <point x="167" y="742"/>
      <point x="106" y="771"/>
      <point x="84" y="790" type="qcurve"/>
      <point x="122" y="878" type="line"/>
      <point x="145" y="860"/>
      <point x="202" y="831"/>
      <point x="237" y="820" type="qcurve" smooth="yes"/>
      <point x="270" y="809"/>
      <point x="334" y="798"/>
      <point x="366" y="798" type="qcurve" smooth="yes"/>
      <point x="420" y="798"/>
      <point x="506" y="825"/>
      <point x="538" y="852" type="qcurve"/>
      <point x="570" y="877"/>
      <point x="602" y="947"/>
      <point x="602" y="992" type="qcurve" smooth="yes"/>
      <point x="602" y="1037"/>
      <point x="570" y="1106"/>
      <point x="536" y="1131" type="qcurve" smooth="yes"/>
      <point x="501" y="1156"/>
      <point x="411" y="1180"/>
      <point x="354" y="1180" type="qcurve" smooth="yes"/>
      <point x="329" y="1180"/>
      <point x="272" y="1175"/>
      <point x="242" y="1168" type="qcurve"/>
      <point x="208" y="1240" type="line"/>
      <point x="532" y="1540" type="line"/>
      <point x="88" y="1540" type="line"/>
      <point x="88" y="1632" type="line"/>
      <point x="666" y="1632" type="line"/>
      <point x="666" y="1548" type="line"/>
      <point x="352" y="1254" type="line"/>
      <point x="401" y="1256"/>
      <point x="487" y="1246"/>
      <point x="528" y="1232" type="qcurve" smooth="yes"/>
      <point x="610" y="1203"/>
      <point x="708" y="1083"/>
      <point x="708" y="988" type="qcurve" smooth="yes"/>
      <point x="708" y="946"/>
      <point x="687" y="871"/>
      <point x="666" y="838" type="qcurve" smooth="yes"/>
      <point x="623" y="774"/>
      <point x="472" y="702"/>
    </contour>
  </outline>
</glyph>
<glyph name="uni03BC" format="2">
  <advance width="1176"/>
  <unicode hex="00B5"/>
  <outline>
    <contour>
      <point x="170" y="-420" type="line"/>
      <point x="170" y="960" type="line"/>
      <point x="282" y="960" type="line"/>
      <point x="282" y="390" type="line" smooth="yes"/>
      <point x="282" y="328"/>
      <point x="296" y="274"/>
      <point x="324" y="227" type="curve" smooth="yes"/>
      <point x="379" y="133"/>
      <point x="476" y="78"/>
      <point x="588" y="78" type="curve" smooth="yes"/>
      <point x="644" y="78"/>
      <point x="695" y="91"/>
      <point x="742" y="117" type="curve" smooth="yes"/>
      <point x="834" y="169"/>
      <point x="894" y="266"/>
      <point x="894" y="390" type="curve" smooth="yes"/>
      <point x="894" y="960" type="line"/>
      <point x="1006" y="960" type="line"/>
      <point x="1006" y="0" type="line"/>
      <point x="894" y="0" type="line"/>
      <point x="894" y="126" type="line"/>
      <point x="849" y="70"/>
      <point x="799" y="30"/>
      <point x="743" y="6" type="curve" smooth="yes"/>
      <point x="686" y="-18"/>
      <point x="628" y="-30"/>
      <point x="568" y="-30" type="curve" smooth="yes"/>
      <point x="448" y="-30"/>
      <point x="345" y="4"/>
      <point x="274" y="92" type="curve"/>
      <point x="292" y="-420" type="line"/>
    </contour>
  </outline>
</glyph>
<glyph name="paragraph" format="2">
  <advance width="1196"/>
  <unicode hex="00B6"/>
  <outline>
    <contour>
      <point x="490" y="-420" type="line"/>
      <point x="594" y="-420" type="line"/>
      <point x="594" y="1300" type="line"/>
      <point x="800" y="1300" type="line"/>
      <point x="800" y="-420" type="line"/>
      <point x="904" y="-420" type="line"/>
      <point x="904" y="1300" type="line"/>
      <point x="1126" y="1300" type="line"/>
      <point x="1126" y="1400" type="line"/>
      <point x="512" y="1400" type="line" smooth="yes"/>
      <point x="335" y="1400"/>
      <point x="209" y="1337"/>
      <point x="140" y="1228" type="curve" smooth="yes"/>
      <point x="107" y="1176"/>
      <point x="90" y="1115"/>
      <point x="90" y="1046" type="curve" smooth="yes"/>
      <point x="90" y="909"/>
      <point x="158" y="802"/>
      <point x="287" y="738" type="curve" smooth="yes"/>
      <point x="351" y="707"/>
      <point x="424" y="692"/>
      <point x="512" y="692" type="curve"/>
      <point x="490" y="730" type="line"/>
    </contour>
  </outline>
</glyph>
<glyph name="ordmasculine" format="2">
  <advance width="834"/>
  <unicode hex="00BA"/>
  <outline>
    <contour>
      <point x="416" y="702" type="curve" smooth="yes"/>
      <point x="551" y="702"/>
      <point x="658" y="770"/>
      <point x="719" y="871" type="curve" smooth="yes"/>
      <point x="750" y="922"/>
      <point x="764" y="978"/>
      <point x="764" y="1038" type="curve" smooth="yes"/>
      <point x="764" y="1159"/>
      <point x="700" y="1265"/>
      <point x="595" y="1329" type="curve" smooth="yes"/>
      <point x="543" y="1360"/>
      <point x="485" y="1374"/>
      <point x="416" y="1374" type="curve" smooth="yes"/>
      <point x="283" y="1374"/>
      <point x="177" y="1308"/>
      <point x="116" y="1207" type="curve" smooth="yes"/>
      <point x="85" y="1156"/>
      <point x="70" y="1102"/>
      <point x="70" y="1038" type="curve" smooth="yes"/>
      <point x="70" y="917"/>
      <point x="135" y="809"/>
      <point x="240" y="749" type="curve" smooth="yes"/>
      <point x="292" y="718"/>
      <point x="348" y="702"/>
    </contour>
    <contour>
      <point x="416" y="796" type="curve" smooth="yes"/>
      <point x="344" y="796"/>
      <point x="290" y="819"/>
      <point x="245" y="863" type="curve" smooth="yes"/>
      <point x="200" y="906"/>
      <point x="176" y="962"/>
      <point x="176" y="1038" type="curve" smooth="yes"/>
      <point x="176" y="1139"/>
      <point x="221" y="1211"/>
      <point x="293" y="1252" type="curve" smooth="yes"/>
      <point x="328" y="1271"/>
      <point x="371" y="1280"/>
      <point x="416" y="1280" type="curve" smooth="yes"/>
      <point x="488" y="1280"/>
      <point x="543" y="1259"/>
      <point x="591" y="1216" type="curve"/>
      <point x="636" y="1172"/>
      <point x="658" y="1114"/>
      <point x="658" y="1038" type="curve" smooth="yes"/>
      <point x="658" y="938"/>
      <point x="613" y="866"/>
      <point x="541" y="827" type="curve" smooth="yes"/>
      <point x="504" y="806"/>
      <point x="464" y="796"/>
    </contour>
  </outline>
</glyph>
<glyph name="guillemotright" format="2">
  <advance width="956"/>
  <unicode hex="00BB"/>
  <outline>
    <contour>
      <point x="555" y="887" type="line"/>
      <point x="896" y="498" type="line"/>
      <point x="555" y="110" type="line"/>
      <point x="488" y="169" type="line"/>
      <point x="772" y="498" type="line"/>
      <point x="489" y="827" type="line"/>
    </contour>
    <contour>
      <point x="175" y="887" type="line"/>
      <point x="516" y="498" type="line"/>
      <point x="175" y="110" type="line"/>
      <point x="108" y="169" type="line"/>
      <point x="392" y="498" type="line"/>
      <point x="109" y="827" type="line"/>
    </contour>
  </outline>
</glyph>
<glyph name="onequarter" format="2">
  <advance width="1794"/>
  <unicode hex="00BC"/>
  <outline>
    <contour>
      <point x="338" y="490" type="line"/>
      <point x="436" y="490" type="line"/>
      <point x="436" y="1400" type="line"/>
      <point x="378" y="1402" type="line"/>
      <point x="48" y="1280" type="line"/>
      <point x="76" y="1200" type="line"/>
      <point x="338" y="1294" type="line"/>
    </contour>
    <contour>
      <point x="1478" y="0" type="line"/>
      <point x="1574" y="0" type="line"/>
      <point x="1574" y="196" type="line"/>
      <point x="1728" y="196" type="line"/>
      <point x="1728" y="288" type="line"/>
      <point x="1574" y="288" type="line"/>
      <point x="1574" y="504" type="line"/>
      <point x="1478" y="504" type="line"/>
      <point x="1478" y="288" type="line"/>
      <point x="1112" y="288" type="line"/>
      <point x="1470" y="910" type="line"/>
      <point x="1358" y="910" type="line"/>
      <point x="998" y="280" type="line"/>
      <point x="998" y="196" type="line"/>
      <point x="1478" y="196" type="line"/>
    </contour>
    <contour>
      <point x="456" y="-30" type="line"/>
      <point x="1246" y="1390" type="line"/>
      <point x="1170" y="1430" type="line"/>
      <point x="380" y="16" type="line"/>
    </contour>
  </outline>
</glyph>
<glyph name="onehalf" format="2">
  <advance width="1834"/>
  <unicode hex="00BD"/>
  <outline>
    <contour>
      <point x="338" y="490" type="line"/>
      <point x="338" y="1294" type="line"/>
      <point x="76" y="1200" type="line"/>
      <point x="48" y="1280" type="line"/>
      <point x="377" y="1401" type="line"/>
      <point x="436" y="1400" type="line"/>
      <point x="436" y="490" type="line"/>
    </contour>
    <contour>
      <point x="1118" y="0" type="line"/>
      <point x="1118" y="82" type="line"/>
      <point x="1324" y="266" type="line" smooth="yes"/>
      <point x="1390" y="325"/>
      <point x="1444" y="377"/>
      <point x="1487" y="422" type="curve" smooth="yes"/>
      <point x="1571" y="511"/>
      <point x="1610" y="582"/>
      <point x="1610" y="658" type="curve" smooth="yes"/>
      <point x="1610" y="769"/>
      <point x="1524" y="836"/>
      <point x="1384" y="836" type="curve" smooth="yes"/>
      <point x="1303" y="836"/>
      <point x="1221" y="811"/>
      <point x="1170" y="760" type="curve"/>
      <point x="1128" y="837" type="line"/>
      <point x="1199" y="898"/>
      <point x="1293" y="930"/>
      <point x="1398" y="930" type="curve" smooth="yes"/>
      <point x="1490" y="930"/>
      <point x="1565" y="906"/>
      <point x="1623" y="858" type="curve" smooth="yes"/>
      <point x="1681" y="810"/>
      <point x="1710" y="745"/>
      <point x="1710" y="664" type="curve" smooth="yes"/>
      <point x="1710" y="621"/>
      <point x="1701" y="578"/>
      <point x="1682" y="537" type="curve" smooth="yes"/>
      <point x="1644" y="454"/>
      <point x="1562" y="365"/>
      <point x="1430" y="248" type="curve" smooth="yes"/>
      <point x="1254" y="92" type="line"/>
      <point x="1732" y="92" type="line"/>
      <point x="1732" y="0" type="line"/>
    </contour>
    <contour>
      <point x="456" y="-30" type="line"/>
      <point x="380" y="16" type="line"/>
      <point x="1170" y="1430" type="line"/>
      <point x="1246" y="1390" type="line"/>
    </contour>
  </outline>
</glyph>
<glyph name="threequarters" format="2">
  <advance width="1994"/>
  <unicode hex="00BE"/>
  <outline>
    <contour>
      <point x="372" y="470" type="curve" smooth="yes"/>
      <point x="312" y="470"/>
      <point x="258" y="480"/>
      <point x="206" y="496" type="curve"/>
      <point x="154" y="515"/>
      <point x="113" y="533"/>
      <point x="84" y="558" type="curve"/>
      <point x="122" y="646" type="line"/>
      <point x="153" y="622"/>
      <point x="190" y="603"/>
      <point x="237" y="588" type="curve" smooth="yes"/>
      <point x="281" y="573"/>
      <point x="323" y="566"/>
      <point x="366" y="566" type="curve" smooth="yes"/>
      <point x="438" y="566"/>
      <point x="495" y="584"/>
      <point x="538" y="620" type="curve"/>
      <point x="581" y="653"/>
      <point x="602" y="700"/>
      <point x="602" y="760" type="curve" smooth="yes"/>
      <point x="602" y="820"/>
      <point x="581" y="866"/>
      <point x="536" y="899" type="curve" smooth="yes"/>
      <point x="489" y="932"/>
      <point x="430" y="948"/>
      <point x="354" y="948" type="curve" smooth="yes"/>
      <point x="321" y="948"/>
      <point x="282" y="945"/>
      <point x="242" y="936" type="curve"/>
      <point x="208" y="1008" type="line"/>
      <point x="532" y="1308" type="line"/>
      <point x="88" y="1308" type="line"/>
      <point x="88" y="1400" type="line"/>
      <point x="666" y="1400" type="line"/>
      <point x="666" y="1316" type="line"/>
      <point x="352" y="1022" type="line"/>
      <point x="417" y="1025"/>
      <point x="473" y="1019"/>
      <point x="528" y="1000" type="curve" smooth="yes"/>
      <point x="637" y="961"/>
      <point x="708" y="883"/>
      <point x="708" y="756" type="curve" smooth="yes"/>
      <point x="708" y="700"/>
      <point x="694" y="650"/>
      <point x="666" y="606" type="curve"/>
      <point x="609" y="521"/>
      <point x="505" y="470"/>
    </contour>
    <contour>
      <point x="1678" y="0" type="line"/>
      <point x="1678" y="196" type="line"/>
      <point x="1198" y="196" type="line"/>
      <point x="1198" y="280" type="line"/>
      <point x="1558" y="910" type="line"/>
      <point x="1670" y="910" type="line"/>
      <point x="1312" y="288" type="line"/>
      <point x="1678" y="288" type="line"/>
      <point x="1678" y="504" type="line"/>
      <point x="1774" y="504" type="line"/>
      <point x="1774" y="288" type="line"/>
      <point x="1928" y="288" type="line"/>
      <point x="1928" y="196" type="line"/>
      <point x="1774" y="196" type="line"/>
      <point x="1774" y="0" type="line"/>
    </contour>
    <contour>
      <point x="656" y="-30" type="line"/>
      <point x="580" y="16" type="line"/>
      <point x="1370" y="1430" type="line"/>
      <point x="1446" y="1390" type="line"/>
    </contour>
  </outline>
</glyph>
<glyph name="questiondown" format="2">
  <advance width="950"/>
  <unicode hex="00BF"/>
  <outline>
    <contour>
      <point x="300" y="591" type="curve"/>
      <point x="315" y="509" type="line"/>
      <point x="342" y="515"/>
      <point x="369" y="518"/>
      <point x="394" y="518" type="curve" smooth="yes"/>
      <point x="448" y="518"/>
      <point x="497" y="505"/>
      <point x="532" y="481" type="curve" smooth="yes"/>
      <point x="567" y="457"/>
      <point x="588" y="424"/>
      <point x="588" y="383" type="curve" smooth="yes"/>
      <point x="588" y="337"/>
      <point x="551" y="300"/>
      <point x="497" y="266" type="curve" smooth="yes"/>
      <point x="462" y="243"/>
      <point x="419" y="220"/>
      <point x="376" y="197" type="curve" smooth="yes"/>
      <point x="313" y="163"/>
      <point x="249" y="127"/>
      <point x="198" y="80" type="curve" smooth="yes"/>
      <point x="143" y="29"/>
      <point x="104" y="-35"/>
      <point x="104" y="-121" type="curve" smooth="yes"/>
      <point x="104" y="-182"/>
      <point x="116" y="-234"/>
      <point x="140" y="-276" type="curve" smooth="yes"/>
      <point x="163" y="-317"/>
      <point x="193" y="-351"/>
      <point x="234" y="-381" type="curve" smooth="yes"/>
      <point x="276" y="-411"/>
      <point x="320" y="-429"/>
      <point x="369" y="-442" type="curve" smooth="yes"/>
      <point x="418" y="-454"/>
      <point x="469" y="-460"/>
      <point x="526" y="-460" type="curve" smooth="yes"/>
      <point x="556" y="-460"/>
      <point x="585" y="-458"/>
      <point x="615" y="-454" type="curve" smooth="yes"/>
      <point x="645" y="-450"/>
      <point x="673" y="-445"/>
      <point x="703" y="-436" type="curve" smooth="yes"/>
      <point x="763" y="-418"/>
      <point x="815" y="-390"/>
      <point x="860" y="-352" type="curve"/>
      <point x="812" y="-254" type="line"/>
      <point x="774" y="-289"/>
      <point x="729" y="-314"/>
      <point x="679" y="-328" type="curve" smooth="yes"/>
      <point x="628" y="-342"/>
      <point x="578" y="-348"/>
      <point x="528" y="-348" type="curve" smooth="yes"/>
      <point x="442" y="-348"/>
      <point x="358" y="-333"/>
      <point x="300" y="-287" type="curve" smooth="yes"/>
      <point x="254" y="-251"/>
      <point x="224" y="-195"/>
      <point x="224" y="-113" type="curve" smooth="yes"/>
      <point x="224" y="-61"/>
      <point x="244" y="-21"/>
      <point x="276" y="13" type="curve" smooth="yes"/>
      <point x="316" y="56"/>
      <point x="376" y="86"/>
      <point x="439" y="116" type="curve" smooth="yes"/>
      <point x="482" y="137"/>
      <point x="526" y="157"/>
      <point x="566" y="179" type="curve" smooth="yes"/>
      <point x="644" y="223"/>
      <point x="705" y="278"/>
      <point x="705" y="369" type="curve" smooth="yes"/>
      <point x="705" y="448"/>
      <point x="666" y="512"/>
      <point x="602" y="554" type="curve" smooth="yes"/>
      <point x="552" y="587"/>
      <point x="488" y="605"/>
      <point x="415" y="605" type="curve" smooth="yes"/>
      <point x="379" y="605"/>
      <point x="339" y="600"/>
    </contour>
    <contour>
      <point x="534" y="1000" type="curve" smooth="yes"/>
      <point x="505" y="1000"/>
      <point x="478" y="990"/>
      <point x="455" y="971" type="curve"/>
      <point x="436" y="954"/>
      <point x="424" y="925"/>
      <point x="424" y="896" type="curve" smooth="yes"/>
      <point x="424" y="868"/>
      <point x="435" y="843"/>
      <point x="456" y="820" type="curve"/>
      <point x="475" y="801"/>
      <point x="503" y="792"/>
      <point x="534" y="792" type="curve" smooth="yes"/>
      <point x="563" y="792"/>
      <point x="591" y="802"/>
      <point x="610" y="819" type="curve"/>
      <point x="633" y="838"/>
      <point x="644" y="867"/>
      <point x="644" y="896" type="curve" smooth="yes"/>
      <point x="644" y="925"/>
      <point x="633" y="951"/>
      <point x="610" y="971" type="curve"/>
      <point x="591" y="990"/>
      <point x="563" y="1000"/>
    </contour>
  </outline>
</glyph>
<glyph name="Eth" format="2">
  <advance width="1436"/>
  <unicode hex="00D0"/>
  <anchor x="716" y="1400" name="top"/>
  <anchor x="476" y="742" name="strokeshort"/>
  <outline>
    <contour>
      <point x="64" y="698" type="line"/>
      <point x="64" y="786" type="line"/>
      <point x="888" y="786" type="line"/>
      <point x="888" y="698" type="line"/>
    </contour>
    <contour>
      <point x="240" y="0" type="line"/>
      <point x="240" y="1400" type="line"/>
      <point x="636" y="1400" type="line"/>
      <point x="835" y="1400"/>
      <point x="1146" y="1220"/>
      <point x="1324" y="903"/>
      <point x="1324" y="698" type="qcurve"/>
      <point x="1324" y="547"/>
      <point x="1222" y="291"/>
      <point x="1037" y="104"/>
      <point x="785" y="0"/>
      <point x="636" y="0" type="qcurve"/>
    </contour>
    <contour>
      <point x="356" y="108" type="line"/>
      <point x="598" y="108" type="line"/>
      <point x="735" y="108"/>
      <point x="958" y="192"/>
      <point x="1118" y="348"/>
      <point x="1204" y="565"/>
      <point x="1204" y="698" type="qcurve"/>
      <point x="1204" y="877"/>
      <point x="1054" y="1144"/>
      <point x="782" y="1292"/>
      <point x="598" y="1292" type="qcurve"/>
      <point x="356" y="1292" type="line"/>
    </contour>
  </outline>
</glyph>
<glyph name="Oslash" format="2">
  <advance width="1676"/>
  <unicode hex="00D8"/>
  <outline>
    <contour>
      <point x="284" y="-50" type="line"/>
      <point x="204" y="22" type="line"/>
      <point x="328" y="172" type="line"/>
      <point x="229" y="272"/>
      <point x="112" y="541"/>
      <point x="112" y="700" type="qcurve" smooth="yes"/>
      <point x="112" y="858"/>
      <point x="221" y="1122"/>
      <point x="322" y="1222" type="qcurve" smooth="yes"/>
      <point x="421" y="1322"/>
      <point x="684" y="1430"/>
      <point x="838" y="1430" type="qcurve" smooth="yes"/>
      <point x="960" y="1430"/>
      <point x="1174" y="1359"/>
      <point x="1264" y="1296" type="qcurve"/>
      <point x="1392" y="1450" type="line"/>
      <point x="1472" y="1378" type="line"/>
      <point x="1346" y="1226" type="line"/>
      <point x="1449" y="1127"/>
      <point x="1564" y="857"/>
      <point x="1564" y="700" type="qcurve" smooth="yes"/>
      <point x="1564" y="544"/>
      <point x="1455" y="280"/>
      <point x="1354" y="180" type="qcurve" smooth="yes"/>
      <point x="1255" y="80"/>
      <point x="992" y="-30"/>
      <point x="838" y="-30" type="qcurve" smooth="yes"/>
      <point x="717" y="-30"/>
      <point x="502" y="40"/>
      <point x="412" y="102" type="qcurve"/>
    </contour>
    <contour>
      <point x="1192" y="1210" type="line"/>
      <point x="1119" y="1264"/>
      <point x="938" y="1318"/>
      <point x="838" y="1318" type="qcurve" smooth="yes"/>
      <point x="711" y="1318"/>
      <point x="494" y="1231"/>
      <point x="409" y="1149" type="qcurve" smooth="yes"/>
      <point x="326" y="1067"/>
      <point x="232" y="841"/>
      <point x="232" y="700" type="qcurve" smooth="yes"/>
      <point x="232" y="564"/>
      <point x="324" y="341"/>
      <point x="402" y="260" type="qcurve"/>
    </contour>
    <contour>
      <point x="838" y="82" type="qcurve" smooth="yes"/>
      <point x="966" y="82"/>
      <point x="1184" y="170"/>
      <point x="1267" y="253" type="qcurve"/>
      <point x="1352" y="333"/>
      <point x="1444" y="560"/>
      <point x="1444" y="700" type="qcurve" smooth="yes"/>
      <point x="1444" y="839"/>
      <point x="1355" y="1061"/>
      <point x="1274" y="1140" type="qcurve"/>
      <point x="484" y="190" type="line"/>
      <point x="559" y="139"/>
      <point x="739" y="82"/>
    </contour>
  </outline>
</glyph>
<glyph name="Thorn" format="2">
  <advance width="1230"/>
  <unicode hex="00DE"/>
  <outline>
    <contour>
      <point x="200" y="0" type="line"/>
      <point x="200" y="1400" type="line"/>
      <point x="316" y="1400" type="line"/>
      <point x="316" y="1118" type="line"/>
      <point x="672" y="1118" type="line"/>
      <point x="814" y="1118"/>
      <point x="1029" y="1022"/>
      <point x="1150" y="843"/>
      <point x="1150" y="718" type="qcurve"/>
      <point x="1150" y="589"/>
      <point x="1038" y="413"/>
      <point x="824" y="322"/>
      <point x="670" y="322" type="qcurve"/>
      <point x="316" y="322" type="line"/>
      <point x="316" y="0" type="line"/>
    </contour>
    <contour>
      <point x="316" y="430" type="line"/>
      <point x="684" y="430" type="line"/>
      <point x="851" y="430"/>
      <point x="1034" y="575"/>
      <point x="1034" y="714" type="qcurve"/>
      <point x="1034" y="849"/>
      <point x="848" y="1010"/>
      <point x="686" y="1010" type="qcurve"/>
      <point x="316" y="1010" type="line"/>
    </contour>
  </outline>
</glyph>
<glyph name="germandbls" format="2">
  <advance width="1162"/>
  <unicode hex="00DF"/>
  <outline>
    <contour>
      <point x="710" y="-30" type="qcurve" smooth="yes"/>
      <point x="671" y="-30"/>
      <point x="548" y="-8"/>
      <point x="469" y="30" type="qcurve"/>
      <point x="518" y="132" type="line"/>
      <point x="578" y="99"/>
      <point x="667" y="74"/>
      <point x="717" y="74" type="qcurve" smooth="yes"/>
      <point x="830" y="74"/>
      <point x="960" y="172"/>
      <point x="960" y="260" type="qcurve" smooth="yes"/>
      <point x="960" y="303"/>
      <point x="935" y="368"/>
      <point x="909" y="391" type="qcurve" smooth="yes"/>
      <point x="882" y="415"/>
      <point x="822" y="459"/>
      <point x="786" y="480" type="qcurve" smooth="yes"/>
      <point x="763" y="494"/>
      <point x="717" y="527"/>
      <point x="691" y="545" type="qcurve" smooth="yes"/>
      <point x="642" y="580"/>
      <point x="570" y="679"/>
      <point x="570" y="744" type="qcurve" smooth="yes"/>
      <point x="570" y="771"/>
      <point x="582" y="817"/>
      <point x="593" y="838" type="qcurve"/>
      <point x="616" y="879"/>
      <point x="681" y="944"/>
      <point x="708" y="972" type="qcurve"/>
      <point x="726" y="989"/>
      <point x="757" y="1021"/>
      <point x="772" y="1036" type="qcurve" smooth="yes"/>
      <point x="802" y="1066"/>
      <point x="840" y="1132"/>
      <point x="840" y="1174" type="qcurve" smooth="yes"/>
      <point x="840" y="1220"/>
      <point x="803" y="1288"/>
      <point x="766" y="1314" type="qcurve"/>
      <point x="727" y="1339"/>
      <point x="632" y="1362"/>
      <point x="574" y="1362" type="qcurve" smooth="yes"/>
      <point x="430" y="1362"/>
      <point x="282" y="1205"/>
      <point x="282" y="1060" type="qcurve" smooth="yes"/>
      <point x="282" y="0" type="line"/>
      <point x="170" y="0" type="line"/>
      <point x="170" y="1092" type="line" smooth="yes"/>
      <point x="170" y="1147"/>
      <point x="195" y="1244"/>
      <point x="220" y="1288" type="qcurve" smooth="yes"/>
      <point x="268" y="1374"/>
      <point x="447" y="1470"/>
      <point x="570" y="1470" type="qcurve" smooth="yes"/>
      <point x="628" y="1470"/>
      <point x="730" y="1452"/>
      <point x="774" y="1434" type="qcurve" smooth="yes"/>
      <point x="864" y="1397"/>
      <point x="962" y="1267"/>
      <point x="962" y="1176" type="qcurve" smooth="yes"/>
      <point x="962" y="1145"/>
      <point x="950" y="1093"/>
      <point x="938" y="1071" type="qcurve" smooth="yes"/>
      <point x="913" y="1026"/>
      <point x="838" y="955"/>
      <point x="802" y="916" type="qcurve" smooth="yes"/>
      <point x="783" y="896"/>
      <point x="748" y="858"/>
      <point x="731" y="838" type="qcurve"/>
      <point x="712" y="818"/>
      <point x="694" y="774"/>
      <point x="694" y="749" type="qcurve" smooth="yes"/>
      <point x="694" y="717"/>
      <point x="722" y="666"/>
      <point x="747" y="646" type="qcurve"/>
      <point x="774" y="626"/>
      <point x="830" y="588"/>
      <point x="858" y="570" type="qcurve"/>
      <point x="887" y="553"/>
      <point x="941" y="518"/>
      <point x="967" y="500" type="qcurve"/>
      <point x="1018" y="461"/>
      <point x="1082" y="352"/>
      <point x="1082" y="270" type="qcurve" smooth="yes"/>
      <point x="1082" y="223"/>
      <point x="1059" y="145"/>
      <point x="1036" y="111" type="qcurve" smooth="yes"/>
      <point x="989" y="43"/>
      <point x="822" y="-30"/>
    </contour>
  </outline>
</glyph>
<glyph name="ae" format="2">
  <advance width="1768"/>
  <unicode hex="00E6"/>
  <outline>
    <contour>
      <point x="434" y="-30" type="qcurve" smooth="yes"/>
      <point x="355" y="-30"/>
      <point x="234" y="12"/>
      <point x="189" y="53" type="qcurve"/>
      <point x="144" y="96"/>
      <point x="100" y="203"/>
      <point x="100" y="270" type="qcurve" smooth="yes"/>
      <point x="100" y="321"/>
      <point x="134" y="409"/>
      <point x="170" y="447" type="qcurve"/>
      <point x="204" y="485"/>
      <point x="318" y="539"/>
      <point x="398" y="556" type="qcurve" smooth="yes"/>
      <point x="478" y="573"/>
      <point x="689" y="574"/>
      <point x="824" y="558" type="qcurve"/>
      <point x="828" y="458" type="line"/>
      <point x="709" y="472"/>
      <point x="527" y="477"/>
      <point x="459" y="466" type="qcurve" smooth="yes"/>
      <point x="391" y="455"/>
      <point x="296" y="418"/>
      <point x="269" y="392" type="qcurve" smooth="yes"/>
      <point x="240" y="365"/>
      <point x="212" y="304"/>
      <point x="212" y="270" type="qcurve" smooth="yes"/>
      <point x="212" y="179"/>
      <point x="338" y="78"/>
      <point x="450" y="78" type="qcurve" smooth="yes"/>
      <point x="497" y="78"/>
      <point x="581" y="97"/>
      <point x="619" y="115" type="qcurve"/>
      <point x="694" y="153"/>
      <point x="780" y="291"/>
      <point x="780" y="390" type="qcurve" smooth="yes"/>
      <point x="780" y="644" type="line" smooth="yes"/>
      <point x="780" y="702"/>
      <point x="742" y="794"/>
      <point x="705" y="827" type="qcurve"/>
      <point x="666" y="859"/>
      <point x="562" y="892"/>
      <point x="496" y="892" type="qcurve" smooth="yes"/>
      <point x="458" y="892"/>
      <point x="382" y="880"/>
      <point x="344" y="870" type="qcurve"/>
      <point x="307" y="858"/>
      <point x="233" y="820"/>
      <point x="196" y="792" type="qcurve"/>
      <point x="154" y="892" type="line"/>
      <point x="240" y="955"/>
      <point x="419" y="1000"/>
      <point x="498" y="1000" type="qcurve" smooth="yes"/>
      <point x="581" y="1000"/>
      <point x="710" y="968"/>
      <point x="759" y="936" type="qcurve" smooth="yes"/>
      <point x="808" y="903"/>
      <point x="869" y="809"/>
      <point x="882" y="746" type="qcurve"/>
      <point x="856" y="750" type="line"/>
      <point x="885" y="806"/>
      <point x="968" y="895"/>
      <point x="1022" y="926" type="qcurve"/>
      <point x="1076" y="959"/>
      <point x="1194" y="990"/>
      <point x="1260" y="990" type="qcurve" smooth="yes"/>
      <point x="1331" y="990"/>
      <point x="1450" y="957"/>
      <point x="1501" y="921" type="qcurve" smooth="yes"/>
      <point x="1552" y="886"/>
      <point x="1624" y="794"/>
      <point x="1650" y="735" type="qcurve"/>
      <point x="1674" y="674"/>
      <point x="1692" y="544"/>
      <point x="1686" y="468" type="qcurve"/>
      <point x="912" y="468" type="line"/>
      <point x="907" y="381"/>
      <point x="954" y="240"/>
      <point x="1005" y="187" type="qcurve" smooth="yes"/>
      <point x="1058" y="133"/>
      <point x="1199" y="78"/>
      <point x="1292" y="78" type="qcurve" smooth="yes"/>
      <point x="1327" y="78"/>
      <point x="1399" y="93"/>
      <point x="1435" y="106" type="qcurve"/>
      <point x="1471" y="121"/>
      <point x="1530" y="158"/>
      <point x="1556" y="184" type="qcurve"/>
      <point x="1622" y="90" type="line"/>
      <point x="1598" y="71"/>
      <point x="1547" y="36"/>
      <point x="1518" y="24" type="qcurve"/>
      <point x="1460" y="-3"/>
      <point x="1338" y="-30"/>
      <point x="1278" y="-30" type="qcurve" smooth="yes"/>
      <point x="1197" y="-30"/>
      <point x="1058" y="11"/>
      <point x="998" y="52" type="qcurve" smooth="yes"/>
      <point x="938" y="93"/>
      <point x="851" y="202"/>
      <point x="824" y="274" type="qcurve"/>
      <point x="846" y="274" type="line"/>
      <point x="837" y="232"/>
      <point x="802" y="158"/>
      <point x="774" y="123" type="qcurve" smooth="yes"/>
      <point x="746" y="88"/>
      <point x="674" y="33"/>
      <point x="630" y="12" type="qcurve" smooth="yes"/>
      <point x="586" y="-9"/>
      <point x="488" y="-30"/>
    </contour>
    <contour>
      <point x="1566" y="572" type="line"/>
      <point x="1562" y="647"/>
      <point x="1520" y="759"/>
      <point x="1482" y="802" type="qcurve" smooth="yes"/>
      <point x="1444" y="843"/>
      <point x="1334" y="882"/>
      <point x="1260" y="882" type="qcurve" smooth="yes"/>
      <point x="1188" y="882"/>
      <point x="1071" y="843"/>
      <point x="1026" y="802" type="qcurve" smooth="yes"/>
      <point x="979" y="759"/>
      <point x="924" y="647"/>
      <point x="916" y="572" type="qcurve"/>
    </contour>
  </outline>
</glyph>
<glyph name="eth" format="2">
  <advance width="1147"/>
  <unicode hex="00F0"/>
  <outline>
    <contour>
      <point x="566" y="-30" type="curve" smooth="yes"/>
      <point x="711" y="-30"/>
      <point x="830" y="26"/>
      <point x="922" y="122" type="curve" smooth="yes"/>
      <point x="1014" y="215"/>
      <point x="1062" y="345"/>
      <point x="1062" y="490" type="curve" smooth="yes"/>
      <point x="1062" y="611"/>
      <point x="1040" y="723"/>
      <point x="995" y="839" type="curve" smooth="yes"/>
      <point x="951" y="952"/>
      <point x="884" y="1060"/>
      <point x="792" y="1168" type="curve"/>
      <point x="700" y="1272"/>
      <point x="591" y="1373"/>
      <point x="454" y="1470" type="curve"/>
      <point x="356" y="1402" type="line"/>
      <point x="485" y="1318"/>
      <point x="591" y="1229"/>
      <point x="679" y="1128" type="curve" smooth="yes"/>
      <point x="767" y="1028"/>
      <point x="835" y="928"/>
      <point x="884" y="816" type="curve"/>
      <point x="872" y="864" type="line"/>
      <point x="816" y="909"/>
      <point x="753" y="942"/>
      <point x="681" y="959" type="curve" smooth="yes"/>
      <point x="644" y="967"/>
      <point x="606" y="970"/>
      <point x="566" y="970" type="curve" smooth="yes"/>
      <point x="425" y="970"/>
      <point x="308" y="915"/>
      <point x="220" y="823" type="curve" smooth="yes"/>
      <point x="132" y="731"/>
      <point x="80" y="607"/>
      <point x="80" y="470" type="curve" smooth="yes"/>
      <point x="80" y="378"/>
      <point x="101" y="298"/>
      <point x="145" y="221" type="curve"/>
      <point x="186" y="145"/>
      <point x="242" y="85"/>
      <point x="318" y="40" type="curve"/>
      <point x="390" y="-8"/>
      <point x="473" y="-30"/>
    </contour>
    <contour>
      <point x="566" y="78" type="curve" smooth="yes"/>
      <point x="421" y="78"/>
      <point x="312" y="143"/>
      <point x="247" y="263" type="curve"/>
      <point x="216" y="323"/>
      <point x="200" y="390"/>
      <point x="200" y="470" type="curve" smooth="yes"/>
      <point x="200" y="634"/>
      <point x="265" y="750"/>
      <point x="377" y="815" type="curve"/>
      <point x="433" y="846"/>
      <point x="494" y="862"/>
      <point x="566" y="862" type="curve" smooth="yes"/>
      <point x="715" y="862"/>
      <point x="830" y="798"/>
      <point x="895" y="678" type="curve"/>
      <point x="926" y="618"/>
      <point x="942" y="550"/>
      <point x="942" y="470" type="curve" smooth="yes"/>
      <point x="942" y="309"/>
      <point x="875" y="191"/>
      <point x="762" y="127" type="curve" smooth="yes"/>
      <point x="702" y="94"/>
      <point x="642" y="78"/>
    </contour>
    <contour>
      <point x="334" y="1106" type="line"/>
      <point x="604" y="1232" type="line"/>
      <point x="604" y="1234" type="line"/>
      <point x="858" y="1356" type="line"/>
      <point x="858" y="1454" type="line"/>
      <point x="604" y="1332" type="line"/>
      <point x="604" y="1330" type="line"/>
      <point x="334" y="1204" type="line"/>
    </contour>
  </outline>
</glyph>
<glyph name="divide" format="2">
  <advance width="1296"/>
  <unicode hex="00F7"/>
  <outline>
    <contour>
      <point x="180" y="616" type="line"/>
      <point x="180" y="712" type="line"/>
      <point x="1114" y="712" type="line"/>
      <point x="1114" y="616" type="line"/>
    </contour>
    <contour>
      <point x="648" y="200" type="qcurve"/>
      <point x="606" y="200"/>
      <point x="548" y="254"/>
      <point x="548" y="296" type="qcurve"/>
      <point x="548" y="324"/>
      <point x="575" y="367"/>
      <point x="620" y="392"/>
      <point x="648" y="392" type="qcurve"/>
      <point x="689" y="392"/>
      <point x="750" y="338"/>
      <point x="750" y="296" type="qcurve"/>
      <point x="750" y="268"/>
      <point x="722" y="225"/>
      <point x="675" y="200"/>
    </contour>
    <contour>
      <point x="648" y="932" type="qcurve"/>
      <point x="606" y="932"/>
      <point x="548" y="986"/>
      <point x="548" y="1028" type="qcurve"/>
      <point x="548" y="1056"/>
      <point x="575" y="1099"/>
      <point x="620" y="1124"/>
      <point x="648" y="1124" type="qcurve"/>
      <point x="692" y="1124"/>
      <point x="750" y="1070"/>
      <point x="750" y="1028" type="qcurve"/>
      <point x="750" y="1001"/>
      <point x="723" y="958"/>
      <point x="677" y="932"/>
    </contour>
  </outline>
</glyph>
<glyph name="oslash" format="2">
  <advance width="1172"/>
  <unicode hex="00F8"/>
  <outline>
    <contour>
      <point x="214" y="-50" type="line"/>
      <point x="142" y="10" type="line"/>
      <point x="228" y="116" type="line"/>
      <point x="136" y="212"/>
      <point x="80" y="339"/>
      <point x="80" y="480" type="curve" smooth="yes"/>
      <point x="80" y="620"/>
      <point x="134" y="745"/>
      <point x="226" y="841" type="curve" smooth="yes"/>
      <point x="317" y="934"/>
      <point x="441" y="990"/>
      <point x="586" y="990" type="curve" smooth="yes"/>
      <point x="694" y="990"/>
      <point x="792" y="961"/>
      <point x="872" y="904" type="curve"/>
      <point x="958" y="1010" type="line"/>
      <point x="1030" y="950" type="line"/>
      <point x="944" y="844" type="line"/>
      <point x="1036" y="751"/>
      <point x="1092" y="624"/>
      <point x="1092" y="480" type="curve" smooth="yes"/>
      <point x="1092" y="340"/>
      <point x="1040" y="217"/>
      <point x="949" y="121" type="curve"/>
      <point x="857" y="28"/>
      <point x="733" y="-30"/>
      <point x="586" y="-30" type="curve" smooth="yes"/>
      <point x="478" y="-30"/>
      <point x="380" y="3"/>
      <point x="300" y="56" type="curve"/>
    </contour>
    <contour>
      <point x="804" y="822" type="line"/>
      <point x="744" y="862"/>
      <point x="671" y="882"/>
      <point x="586" y="882" type="curve" smooth="yes"/>
      <point x="511" y="882"/>
      <point x="446" y="867"/>
      <point x="386" y="834" type="curve" smooth="yes"/>
      <point x="269" y="769"/>
      <point x="200" y="645"/>
      <point x="200" y="480" type="curve" smooth="yes"/>
      <point x="200" y="364"/>
      <point x="237" y="268"/>
      <point x="296" y="200" type="curve"/>
    </contour>
    <contour>
      <point x="586" y="78" type="curve" smooth="yes"/>
      <point x="663" y="78"/>
      <point x="727" y="95"/>
      <point x="787" y="128" type="curve" smooth="yes"/>
      <point x="904" y="195"/>
      <point x="972" y="315"/>
      <point x="972" y="480" type="curve" smooth="yes"/>
      <point x="972" y="597"/>
      <point x="936" y="693"/>
      <point x="876" y="760" type="curve"/>
      <point x="368" y="138" type="line"/>
      <point x="428" y="102"/>
      <point x="502" y="78"/>
    </contour>
  </outline>
</glyph>
<glyph name="thorn" format="2">
  <advance width="1254"/>
  <unicode hex="00FE"/>
  <outline>
    <contour>
      <point x="170" y="-420" type="line"/>
      <point x="170" y="1440" type="line"/>
      <point x="282" y="1440" type="line"/>
      <point x="282" y="784" type="line"/>
      <point x="324" y="843"/>
      <point x="379" y="893"/>
      <point x="446" y="932" type="curve" smooth="yes"/>
      <point x="513" y="971"/>
      <point x="593" y="990"/>
      <point x="688" y="990" type="curve" smooth="yes"/>
      <point x="785" y="990"/>
      <point x="870" y="967"/>
      <point x="943" y="921" type="curve" smooth="yes"/>
      <point x="1016" y="874"/>
      <point x="1072" y="812"/>
      <point x="1113" y="735" type="curve" smooth="yes"/>
      <point x="1154" y="658"/>
      <point x="1174" y="573"/>
      <point x="1174" y="480" type="curve" smooth="yes"/>
      <point x="1174" y="341"/>
      <point x="1126" y="215"/>
      <point x="1040" y="121" type="curve" smooth="yes"/>
      <point x="954" y="27"/>
      <point x="833" y="-30"/>
      <point x="688" y="-30" type="curve" smooth="yes"/>
      <point x="499" y="-30"/>
      <point x="366" y="51"/>
      <point x="282" y="168" type="curve"/>
      <point x="282" y="-420" type="line"/>
    </contour>
    <contour>
      <point x="668" y="78" type="curve" smooth="yes"/>
      <point x="743" y="78"/>
      <point x="810" y="95"/>
      <point x="868" y="128" type="curve" smooth="yes"/>
      <point x="984" y="194"/>
      <point x="1054" y="316"/>
      <point x="1054" y="480" type="curve" smooth="yes"/>
      <point x="1054" y="562"/>
      <point x="1038" y="633"/>
      <point x="1005" y="694" type="curve" smooth="yes"/>
      <point x="939" y="814"/>
      <point x="819" y="882"/>
      <point x="668" y="882" type="curve" smooth="yes"/>
      <point x="593" y="882"/>
      <point x="526" y="866"/>
      <point x="468" y="833" type="curve" smooth="yes"/>
      <point x="352" y="768"/>
      <point x="282" y="644"/>
      <point x="282" y="480" type="curve" smooth="yes"/>
      <point x="282" y="398"/>
      <point x="299" y="327"/>
      <point x="332" y="267" type="curve" smooth="yes"/>
      <point x="398" y="147"/>
      <point x="517" y="78"/>
    </contour>
  </outline>
</glyph>
<glyph name="aogonek" format="2">
  <advance width="1049"/>
  <unicode hex="0105"/>
  <outline>
    <contour>
      <point x="732" y="-450" type="curve" smooth="yes"/>
      <point x="664" y="-450"/>
      <point x="617" y="-430"/>
      <point x="581" y="-393" type="curve"/>
      <point x="548" y="-353"/>
      <point x="529" y="-307"/>
      <point x="532" y="-255" type="curve"/>
      <point x="532" y="-196"/>
      <point x="549" y="-147"/>
      <point x="578" y="-106" type="curve" smooth="yes"/>
      <point x="639" y="-19"/>
      <point x="738" y="41"/>
      <point x="851" y="68" type="curve"/>
      <point x="892" y="0" type="line"/>
      <point x="845" y="-13"/>
      <point x="802" y="-28"/>
      <point x="769" y="-49" type="curve"/>
      <point x="697" y="-89"/>
      <point x="655" y="-145"/>
      <point x="652" y="-229" type="curve"/>
      <point x="652" y="-258"/>
      <point x="656" y="-286"/>
      <point x="672" y="-306" type="curve"/>
      <point x="687" y="-326"/>
      <point x="711" y="-340"/>
      <point x="748" y="-340" type="curve" smooth="yes"/>
      <point x="787" y="-340"/>
      <point x="821" y="-328"/>
      <point x="852" y="-312" type="curve"/>
      <point x="893" y="-408" type="line"/>
      <point x="844" y="-433"/>
      <point x="787" y="-450"/>
    </contour>
    <contour>
      <point x="434" y="-30" type="curve" smooth="yes"/>
      <point x="363" y="-30"/>
      <point x="304" y="-19"/>
      <point x="253" y="8" type="curve" smooth="yes"/>
      <point x="154" y="59"/>
      <point x="100" y="150"/>
      <point x="100" y="270" type="curve" smooth="yes"/>
      <point x="100" y="371"/>
      <point x="147" y="455"/>
      <point x="262" y="512" type="curve" smooth="yes"/>
      <point x="375" y="568"/>
      <point x="557" y="590"/>
      <point x="826" y="558" type="curve"/>
      <point x="832" y="458" type="line"/>
      <point x="595" y="489"/>
      <point x="440" y="476"/>
      <point x="344" y="437" type="curve" smooth="yes"/>
      <point x="248" y="398"/>
      <point x="212" y="338"/>
      <point x="212" y="271" type="curve" smooth="yes"/>
      <point x="212" y="148"/>
      <point x="300" y="78"/>
      <point x="449" y="78" type="curve" smooth="yes"/>
      <point x="513" y="78"/>
      <point x="567" y="90"/>
      <point x="618" y="114" type="curve" smooth="yes"/>
      <point x="719" y="162"/>
      <point x="780" y="246"/>
      <point x="780" y="350" type="curve" smooth="yes"/>
      <point x="780" y="644" type="line" smooth="yes"/>
      <point x="780" y="695"/>
      <point x="769" y="739"/>
      <point x="745" y="778" type="curve"/>
      <point x="701" y="853"/>
      <point x="615" y="892"/>
      <point x="496" y="892" type="curve" smooth="yes"/>
      <point x="393" y="892"/>
      <point x="295" y="865"/>
      <point x="196" y="792" type="curve"/>
      <point x="154" y="892" type="line"/>
      <point x="269" y="976"/>
      <point x="391" y="1000"/>
      <point x="498" y="1000" type="curve" smooth="yes"/>
      <point x="585" y="1000"/>
      <point x="656" y="987"/>
      <point x="716" y="959" type="curve" smooth="yes"/>
      <point x="832" y="906"/>
      <point x="892" y="799"/>
      <point x="892" y="644" type="curve" smooth="yes"/>
      <point x="892" y="0" type="line"/>
      <point x="780" y="0" type="line"/>
      <point x="780" y="126" type="line"/>
      <point x="711" y="26"/>
      <point x="582" y="-30"/>
    </contour>
  </outline>
</glyph>
<glyph name="dcroat" format="2">
  <advance width="1254"/>
  <unicode hex="0111"/>
  <outline>
    <contour>
      <point x="602" y="1152" type="line"/>
      <point x="1222" y="1152" type="line"/>
      <point x="1222" y="1256" type="line"/>
      <point x="602" y="1256" type="line"/>
    </contour>
    <contour>
      <point x="566" y="-30" type="curve" smooth="yes"/>
      <point x="675" y="-30"/>
      <point x="764" y="-8"/>
      <point x="829" y="33" type="curve" smooth="yes"/>
      <point x="893" y="74"/>
      <point x="949" y="126"/>
      <point x="990" y="186" type="curve"/>
      <point x="972" y="212" type="line"/>
      <point x="972" y="0" type="line"/>
      <point x="1084" y="0" type="line"/>
      <point x="1084" y="1440" type="line"/>
      <point x="972" y="1440" type="line"/>
      <point x="972" y="742" type="line"/>
      <point x="990" y="766" type="line"/>
      <point x="947" y="834"/>
      <point x="892" y="885"/>
      <point x="824" y="928" type="curve" smooth="yes"/>
      <point x="755" y="971"/>
      <point x="670" y="990"/>
      <point x="566" y="990" type="curve" smooth="yes"/>
      <point x="421" y="990"/>
      <point x="303" y="937"/>
      <point x="215" y="841" type="curve" smooth="yes"/>
      <point x="130" y="745"/>
      <point x="80" y="621"/>
      <point x="80" y="480" type="curve" smooth="yes"/>
      <point x="80" y="388"/>
      <point x="99" y="302"/>
      <point x="142" y="225" type="curve"/>
      <point x="182" y="149"/>
      <point x="239" y="88"/>
      <point x="312" y="41" type="curve" smooth="yes"/>
      <point x="388" y="-7"/>
      <point x="469" y="-30"/>
    </contour>
    <contour>
      <point x="586" y="78" type="curve" smooth="yes"/>
      <point x="434" y="78"/>
      <point x="319" y="144"/>
      <point x="251" y="268" type="curve"/>
      <point x="216" y="328"/>
      <point x="200" y="396"/>
      <point x="200" y="480" type="curve" smooth="yes"/>
      <point x="200" y="647"/>
      <point x="269" y="769"/>
      <point x="386" y="833" type="curve" smooth="yes"/>
      <point x="446" y="866"/>
      <point x="510" y="882"/>
      <point x="586" y="882" type="curve" smooth="yes"/>
      <point x="739" y="882"/>
      <point x="856" y="818"/>
      <point x="924" y="694" type="curve" smooth="yes"/>
      <point x="957" y="634"/>
      <point x="972" y="564"/>
      <point x="972" y="480" type="curve" smooth="yes"/>
      <point x="972" y="313"/>
      <point x="906" y="196"/>
      <point x="786" y="128" type="curve" smooth="yes"/>
      <point x="729" y="95"/>
      <point x="663" y="78"/>
    </contour>
  </outline>
</glyph>
<glyph name="eogonek" format="2">
  <advance width="1101"/>
  <unicode hex="0119"/>
  <outline>
    <contour>
      <point x="720" y="-450" type="qcurve" smooth="yes"/>
      <point x="671" y="-450"/>
      <point x="596" y="-421"/>
      <point x="571" y="-393" type="qcurve" smooth="yes"/>
      <point x="544" y="-363"/>
      <point x="520" y="-294"/>
      <point x="520" y="-255" type="qcurve"/>
      <point x="522" y="-211"/>
      <point x="544" y="-137"/>
      <point x="568" y="-106" type="qcurve"/>
      <point x="612" y="-41"/>
      <point x="756" y="48"/>
      <point x="841" y="68" type="qcurve"/>
      <point x="880" y="0" type="line"/>
      <point x="845" y="-10"/>
      <point x="784" y="-33"/>
      <point x="757" y="-49" type="qcurve"/>
      <point x="703" y="-79"/>
      <point x="642" y="-166"/>
      <point x="640" y="-229" type="qcurve"/>
      <point x="640" y="-251"/>
      <point x="650" y="-291"/>
      <point x="673" y="-321"/>
      <point x="710" y="-340"/>
      <point x="736" y="-340" type="qcurve" smooth="yes"/>
      <point x="765" y="-340"/>
      <point x="819" y="-324"/>
      <point x="840" y="-312" type="qcurve"/>
      <point x="883" y="-408" type="line"/>
      <point x="846" y="-427"/>
      <point x="763" y="-450"/>
    </contour>
    <contour>
      <point x="590" y="-30" type="qcurve" smooth="yes"/>
      <point x="516" y="-30"/>
      <point x="384" y="2"/>
      <point x="326" y="35" type="qcurve"/>
      <point x="210" y="98"/>
      <point x="80" y="325"/>
      <point x="80" y="476" type="qcurve" smooth="yes"/>
      <point x="80" y="587"/>
      <point x="155" y="774"/>
      <point x="221" y="845" type="qcurve"/>
      <point x="289" y="914"/>
      <point x="466" y="990"/>
      <point x="572" y="990" type="qcurve" smooth="yes"/>
      <point x="685" y="990"/>
      <point x="859" y="913"/>
      <point x="917" y="841" type="qcurve" smooth="yes"/>
      <point x="977" y="768"/>
      <point x="1029" y="581"/>
      <point x="1018" y="468" type="qcurve"/>
      <point x="204" y="468" type="line"/>
      <point x="202" y="410"/>
      <point x="223" y="308"/>
      <point x="245" y="264" type="qcurve"/>
      <point x="293" y="177"/>
      <point x="476" y="78"/>
      <point x="604" y="78" type="qcurve" smooth="yes"/>
      <point x="682" y="78"/>
      <point x="835" y="134"/>
      <point x="888" y="184" type="qcurve"/>
      <point x="954" y="90" type="line"/>
      <point x="929" y="71"/>
      <point x="875" y="36"/>
      <point x="843" y="22" type="qcurve" smooth="yes"/>
      <point x="782" y="-5"/>
      <point x="653" y="-30"/>
    </contour>
    <contour>
      <point x="898" y="572" type="line"/>
      <point x="896" y="647"/>
      <point x="853" y="759"/>
      <point x="810" y="802" type="qcurve" smooth="yes"/>
      <point x="769" y="843"/>
      <point x="651" y="882"/>
      <point x="572" y="882" type="qcurve" smooth="yes"/>
      <point x="496" y="882"/>
      <point x="373" y="843"/>
      <point x="324" y="802" type="qcurve" smooth="yes"/>
      <point x="274" y="759"/>
      <point x="216" y="647"/>
      <point x="208" y="572" type="qcurve"/>
    </contour>
  </outline>
</glyph>
<glyph name="Lslash" format="2">
  <advance width="1094"/>
  <unicode hex="0141"/>
  <outline>
    <contour>
      <point x="83" y="517" type="line"/>
      <point x="45" y="597" type="line"/>
      <point x="294" y="712" type="line"/>
      <point x="294" y="702" type="line"/>
      <point x="891" y="981" type="line"/>
      <point x="927" y="901" type="line"/>
      <point x="294" y="604" type="line"/>
      <point x="294" y="614" type="line"/>
    </contour>
    <contour>
      <point x="240" y="0" type="line"/>
      <point x="240" y="1400" type="line"/>
      <point x="356" y="1400" type="line"/>
      <point x="356" y="108" type="line"/>
      <point x="1014" y="108" type="line"/>
      <point x="1014" y="0" type="line"/>
    </contour>
  </outline>
</glyph>
<glyph name="lslash" format="2">
  <advance width="652"/>
  <unicode hex="0142"/>
  <outline>
    <contour>
      <point x="85" y="503" type="line"/>
      <point x="47" y="585" type="line"/>
      <point x="296" y="700" type="line"/>
      <point x="296" y="690" type="line"/>
      <point x="507" y="790" type="line"/>
      <point x="545" y="708" type="line"/>
      <point x="296" y="592" type="line"/>
      <point x="296" y="602" type="line"/>
    </contour>
    <contour>
      <point x="458" y="-28" type="qcurve" smooth="yes"/>
      <point x="426" y="-28"/>
      <point x="373" y="-17"/>
      <point x="348" y="-6" type="qcurve" smooth="yes"/>
      <point x="300" y="16"/>
      <point x="244" y="108"/>
      <point x="244" y="180" type="qcurve" smooth="yes"/>
      <point x="244" y="1440" type="line"/>
      <point x="356" y="1440" type="line"/>
      <point x="356" y="256" type="line" smooth="yes"/>
      <point x="356" y="207"/>
      <point x="368" y="139"/>
      <point x="382" y="119" type="qcurve"/>
      <point x="394" y="99"/>
      <point x="439" y="80"/>
      <point x="474" y="80" type="qcurve" smooth="yes"/>
      <point x="496" y="80"/>
      <point x="550" y="95"/>
      <point x="578" y="106" type="qcurve"/>
      <point x="610" y="6" type="line"/>
      <point x="572" y="-8"/>
      <point x="494" y="-28"/>
    </contour>
  </outline>
</glyph>
<glyph name="Eng" format="2">
  <advance width="1452"/>
  <unicode hex="014A"/>
  <outline>
    <contour>
      <point x="1154" y="-2" type="line"/>
      <point x="316" y="1188" type="line"/>
      <point x="316" y="0" type="line"/>
      <point x="200" y="0" type="line"/>
      <point x="200" y="1400" type="line"/>
      <point x="300" y="1400" type="line"/>
      <point x="1154" y="198" type="line"/>
    </contour>
    <contour>
      <point x="1020" y="-450" type="qcurve"/>
      <point x="969" y="-450"/>
      <point x="882" y="-425"/>
      <point x="852" y="-410" type="qcurve"/>
      <point x="890" y="-314" type="line"/>
      <point x="914" y="-326"/>
      <point x="964" y="-342"/>
      <point x="1004" y="-342" type="qcurve"/>
      <point x="1079" y="-342"/>
      <point x="1136" y="-256"/>
      <point x="1136" y="-174" type="qcurve"/>
      <point x="1136" y="1400" type="line"/>
      <point x="1252" y="1400" type="line"/>
      <point x="1252" y="-194" type="line"/>
      <point x="1252" y="-275"/>
      <point x="1196" y="-389"/>
      <point x="1092" y="-450"/>
    </contour>
  </outline>
</glyph>
<glyph name="eng" format="2">
  <advance width="1146"/>
  <unicode hex="014B"/>
  <outline>
    <contour>
      <point x="758" y="-450" type="qcurve"/>
      <point x="707" y="-450"/>
      <point x="620" y="-425"/>
      <point x="590" y="-410" type="qcurve"/>
      <point x="628" y="-314" type="line"/>
      <point x="652" y="-326"/>
      <point x="702" y="-342"/>
      <point x="742" y="-342" type="qcurve"/>
      <point x="817" y="-342"/>
      <point x="874" y="-256"/>
      <point x="874" y="-174" type="qcurve"/>
      <point x="874" y="612" type="line"/>
      <point x="874" y="732"/>
      <point x="719" y="882"/>
      <point x="588" y="882" type="qcurve"/>
      <point x="503" y="882"/>
      <point x="364" y="804"/>
      <point x="282" y="663"/>
      <point x="282" y="570" type="qcurve"/>
      <point x="282" y="0" type="line"/>
      <point x="170" y="0" type="line"/>
      <point x="170" y="960" type="line"/>
      <point x="282" y="960" type="line"/>
      <point x="282" y="816" type="line"/>
      <point x="347" y="909"/>
      <point x="520" y="990"/>
      <point x="608" y="990" type="qcurve"/>
      <point x="734" y="990"/>
      <point x="902" y="886"/>
      <point x="986" y="727"/>
      <point x="986" y="646" type="qcurve"/>
      <point x="986" y="-194" type="line"/>
      <point x="986" y="-275"/>
      <point x="931" y="-389"/>
      <point x="829" y="-450"/>
    </contour>
  </outline>
</glyph>
<glyph name="OE" format="2">
  <advance width="2424"/>
  <unicode hex="0152"/>
  <outline>
    <contour>
      <point x="832" y="-30" type="qcurve" smooth="yes"/>
      <point x="679" y="-30"/>
      <point x="419" y="80"/>
      <point x="320" y="180" type="qcurve" smooth="yes"/>
      <point x="220" y="280"/>
      <point x="112" y="544"/>
      <point x="112" y="700" type="qcurve" smooth="yes"/>
      <point x="112" y="857"/>
      <point x="220" y="1121"/>
      <point x="320" y="1221" type="qcurve" smooth="yes"/>
      <point x="419" y="1321"/>
      <point x="679" y="1430"/>
      <point x="832" y="1430" type="qcurve" smooth="yes"/>
      <point x="902" y="1430"/>
      <point x="1029" y="1408"/>
      <point x="1090" y="1384" type="qcurve"/>
      <point x="1211" y="1339"/>
      <point x="1400" y="1175"/>
      <point x="1460" y="1062" type="qcurve"/>
      <point x="1444" y="1040" type="line"/>
      <point x="1444" y="1400" type="line"/>
      <point x="2268" y="1400" type="line"/>
      <point x="2268" y="1292" type="line"/>
      <point x="1560" y="1292" type="line"/>
      <point x="1560" y="796" type="line"/>
      <point x="2188" y="796" type="line"/>
      <point x="2188" y="688" type="line"/>
      <point x="1560" y="688" type="line"/>
      <point x="1560" y="108" type="line"/>
      <point x="2274" y="108" type="line"/>
      <point x="2274" y="0" type="line"/>
      <point x="1444" y="0" type="line"/>
      <point x="1444" y="358" type="line"/>
      <point x="1460" y="336" type="line"/>
      <point x="1415" y="252"/>
      <point x="1288" y="121"/>
      <point x="1204" y="70" type="qcurve" smooth="yes"/>
      <point x="1120" y="19"/>
      <point x="935" y="-30"/>
    </contour>
    <contour>
      <point x="838" y="82" type="qcurve" smooth="yes"/>
      <point x="965" y="82"/>
      <point x="1183" y="171"/>
      <point x="1268" y="251" type="qcurve"/>
      <point x="1351" y="333"/>
      <point x="1444" y="561"/>
      <point x="1444" y="700" type="qcurve" smooth="yes"/>
      <point x="1444" y="794"/>
      <point x="1405" y="955"/>
      <point x="1362" y="1025" type="qcurve"/>
      <point x="1321" y="1095"/>
      <point x="1213" y="1203"/>
      <point x="1144" y="1241" type="qcurve" smooth="yes"/>
      <point x="1076" y="1279"/>
      <point x="923" y="1318"/>
      <point x="838" y="1318" type="qcurve" smooth="yes"/>
      <point x="711" y="1318"/>
      <point x="493" y="1231"/>
      <point x="410" y="1149" type="qcurve" smooth="yes"/>
      <point x="325" y="1067"/>
      <point x="232" y="841"/>
      <point x="232" y="700" type="qcurve" smooth="yes"/>
      <point x="232" y="606"/>
      <point x="273" y="445"/>
      <point x="314" y="375" type="qcurve" smooth="yes"/>
      <point x="355" y="305"/>
      <point x="465" y="197"/>
      <point x="533" y="159" type="qcurve" smooth="yes"/>
      <point x="602" y="121"/>
      <point x="753" y="82"/>
    </contour>
  </outline>
</glyph>
